%TF.GenerationSoftware,KiCad,Pcbnew,6.0.7-1.fc36*%
%TF.CreationDate,2023-03-25T15:58:43+11:00*%
%TF.ProjectId,MOOD-Motherboard-r0.1.1,4d4f4f44-2d4d-46f7-9468-6572626f6172,rev?*%
%TF.SameCoordinates,Original*%
%TF.FileFunction,Drillmap*%
%TF.FilePolarity,Positive*%
%FSLAX45Y45*%
G04 Gerber Fmt 4.5, Leading zero omitted, Abs format (unit mm)*
G04 Created by KiCad (PCBNEW 6.0.7-1.fc36) date 2023-03-25 15:58:43*
%MOMM*%
%LPD*%
G01*
G04 APERTURE LIST*
%ADD10C,0.100000*%
%ADD11C,0.200000*%
%ADD12C,0.060000*%
%ADD13C,0.177800*%
%ADD14C,0.325120*%
G04 APERTURE END LIST*
D10*
X8200000Y-2600000D02*
G75*
G03*
X8100000Y-2700000I0J-100000D01*
G01*
X8100000Y-7350000D02*
G75*
G03*
X8200000Y-7450000I100000J0D01*
G01*
X26100000Y-2600000D02*
X8200000Y-2600000D01*
X8200000Y-7450000D02*
X26100000Y-7450000D01*
X26200000Y-2700000D02*
G75*
G03*
X26100000Y-2600000I-100000J0D01*
G01*
X26200000Y-7350000D02*
X26200000Y-2700000D01*
X26100000Y-7450000D02*
G75*
G03*
X26200000Y-7350000I0J100000D01*
G01*
X8100000Y-2700000D02*
X8100000Y-7350000D01*
D11*
D12*
X16640500Y-3223440D02*
X16700500Y-3283440D01*
X16700500Y-3223440D02*
X16640500Y-3283440D01*
X17218500Y-3223440D02*
X17278500Y-3283440D01*
X17278500Y-3223440D02*
X17218500Y-3283440D01*
D13*
X9385700Y-2834800D02*
G75*
G03*
X9385700Y-2834800I-88900J0D01*
G01*
X10579500Y-2834800D02*
G75*
G03*
X10579500Y-2834800I-88900J0D01*
G01*
D14*
X23650000Y-3162440D02*
X23650000Y-3487560D01*
X23487440Y-3325000D02*
X23812560Y-3325000D01*
X24793000Y-3162440D02*
X24793000Y-3487560D01*
X24630440Y-3325000D02*
X24955560Y-3325000D01*
D11*
X8352619Y-7765476D02*
X8352619Y-7565476D01*
X8400238Y-7565476D01*
X8428810Y-7575000D01*
X8447857Y-7594048D01*
X8457381Y-7613095D01*
X8466905Y-7651190D01*
X8466905Y-7679762D01*
X8457381Y-7717857D01*
X8447857Y-7736905D01*
X8428810Y-7755952D01*
X8400238Y-7765476D01*
X8352619Y-7765476D01*
X8552619Y-7765476D02*
X8552619Y-7632143D01*
X8552619Y-7670238D02*
X8562143Y-7651190D01*
X8571667Y-7641667D01*
X8590714Y-7632143D01*
X8609762Y-7632143D01*
X8676429Y-7765476D02*
X8676429Y-7632143D01*
X8676429Y-7565476D02*
X8666905Y-7575000D01*
X8676429Y-7584524D01*
X8685952Y-7575000D01*
X8676429Y-7565476D01*
X8676429Y-7584524D01*
X8800238Y-7765476D02*
X8781190Y-7755952D01*
X8771667Y-7736905D01*
X8771667Y-7565476D01*
X8905000Y-7765476D02*
X8885952Y-7755952D01*
X8876429Y-7736905D01*
X8876429Y-7565476D01*
X9133571Y-7765476D02*
X9133571Y-7565476D01*
X9200238Y-7708333D01*
X9266905Y-7565476D01*
X9266905Y-7765476D01*
X9447857Y-7765476D02*
X9447857Y-7660714D01*
X9438333Y-7641667D01*
X9419286Y-7632143D01*
X9381190Y-7632143D01*
X9362143Y-7641667D01*
X9447857Y-7755952D02*
X9428810Y-7765476D01*
X9381190Y-7765476D01*
X9362143Y-7755952D01*
X9352619Y-7736905D01*
X9352619Y-7717857D01*
X9362143Y-7698809D01*
X9381190Y-7689286D01*
X9428810Y-7689286D01*
X9447857Y-7679762D01*
X9543095Y-7632143D02*
X9543095Y-7832143D01*
X9543095Y-7641667D02*
X9562143Y-7632143D01*
X9600238Y-7632143D01*
X9619286Y-7641667D01*
X9628810Y-7651190D01*
X9638333Y-7670238D01*
X9638333Y-7727381D01*
X9628810Y-7746428D01*
X9619286Y-7755952D01*
X9600238Y-7765476D01*
X9562143Y-7765476D01*
X9543095Y-7755952D01*
X9724048Y-7746428D02*
X9733571Y-7755952D01*
X9724048Y-7765476D01*
X9714524Y-7755952D01*
X9724048Y-7746428D01*
X9724048Y-7765476D01*
X9724048Y-7641667D02*
X9733571Y-7651190D01*
X9724048Y-7660714D01*
X9714524Y-7651190D01*
X9724048Y-7641667D01*
X9724048Y-7660714D01*
D12*
X8035000Y-8065000D02*
X8095000Y-8125000D01*
X8095000Y-8065000D02*
X8035000Y-8125000D01*
D11*
X8390714Y-7985476D02*
X8409762Y-7985476D01*
X8428810Y-7995000D01*
X8438333Y-8004524D01*
X8447857Y-8023571D01*
X8457381Y-8061667D01*
X8457381Y-8109286D01*
X8447857Y-8147381D01*
X8438333Y-8166428D01*
X8428810Y-8175952D01*
X8409762Y-8185476D01*
X8390714Y-8185476D01*
X8371667Y-8175952D01*
X8362143Y-8166428D01*
X8352619Y-8147381D01*
X8343095Y-8109286D01*
X8343095Y-8061667D01*
X8352619Y-8023571D01*
X8362143Y-8004524D01*
X8371667Y-7995000D01*
X8390714Y-7985476D01*
X8543095Y-8166428D02*
X8552619Y-8175952D01*
X8543095Y-8185476D01*
X8533571Y-8175952D01*
X8543095Y-8166428D01*
X8543095Y-8185476D01*
X8724048Y-7985476D02*
X8685952Y-7985476D01*
X8666905Y-7995000D01*
X8657381Y-8004524D01*
X8638333Y-8033095D01*
X8628810Y-8071190D01*
X8628810Y-8147381D01*
X8638333Y-8166428D01*
X8647857Y-8175952D01*
X8666905Y-8185476D01*
X8705000Y-8185476D01*
X8724048Y-8175952D01*
X8733571Y-8166428D01*
X8743095Y-8147381D01*
X8743095Y-8099762D01*
X8733571Y-8080714D01*
X8724048Y-8071190D01*
X8705000Y-8061667D01*
X8666905Y-8061667D01*
X8647857Y-8071190D01*
X8638333Y-8080714D01*
X8628810Y-8099762D01*
X8866905Y-7985476D02*
X8885952Y-7985476D01*
X8905000Y-7995000D01*
X8914524Y-8004524D01*
X8924048Y-8023571D01*
X8933571Y-8061667D01*
X8933571Y-8109286D01*
X8924048Y-8147381D01*
X8914524Y-8166428D01*
X8905000Y-8175952D01*
X8885952Y-8185476D01*
X8866905Y-8185476D01*
X8847857Y-8175952D01*
X8838333Y-8166428D01*
X8828810Y-8147381D01*
X8819286Y-8109286D01*
X8819286Y-8061667D01*
X8828810Y-8023571D01*
X8838333Y-8004524D01*
X8847857Y-7995000D01*
X8866905Y-7985476D01*
X9057381Y-7985476D02*
X9076429Y-7985476D01*
X9095476Y-7995000D01*
X9105000Y-8004524D01*
X9114524Y-8023571D01*
X9124048Y-8061667D01*
X9124048Y-8109286D01*
X9114524Y-8147381D01*
X9105000Y-8166428D01*
X9095476Y-8175952D01*
X9076429Y-8185476D01*
X9057381Y-8185476D01*
X9038333Y-8175952D01*
X9028810Y-8166428D01*
X9019286Y-8147381D01*
X9009762Y-8109286D01*
X9009762Y-8061667D01*
X9019286Y-8023571D01*
X9028810Y-8004524D01*
X9038333Y-7995000D01*
X9057381Y-7985476D01*
X9209762Y-8185476D02*
X9209762Y-8052143D01*
X9209762Y-8071190D02*
X9219286Y-8061667D01*
X9238333Y-8052143D01*
X9266905Y-8052143D01*
X9285952Y-8061667D01*
X9295476Y-8080714D01*
X9295476Y-8185476D01*
X9295476Y-8080714D02*
X9305000Y-8061667D01*
X9324048Y-8052143D01*
X9352619Y-8052143D01*
X9371667Y-8061667D01*
X9381190Y-8080714D01*
X9381190Y-8185476D01*
X9476429Y-8185476D02*
X9476429Y-8052143D01*
X9476429Y-8071190D02*
X9485952Y-8061667D01*
X9505000Y-8052143D01*
X9533571Y-8052143D01*
X9552619Y-8061667D01*
X9562143Y-8080714D01*
X9562143Y-8185476D01*
X9562143Y-8080714D02*
X9571667Y-8061667D01*
X9590714Y-8052143D01*
X9619286Y-8052143D01*
X9638333Y-8061667D01*
X9647857Y-8080714D01*
X9647857Y-8185476D01*
X10038333Y-7975952D02*
X9866905Y-8233095D01*
X10295476Y-7985476D02*
X10314524Y-7985476D01*
X10333571Y-7995000D01*
X10343095Y-8004524D01*
X10352619Y-8023571D01*
X10362143Y-8061667D01*
X10362143Y-8109286D01*
X10352619Y-8147381D01*
X10343095Y-8166428D01*
X10333571Y-8175952D01*
X10314524Y-8185476D01*
X10295476Y-8185476D01*
X10276429Y-8175952D01*
X10266905Y-8166428D01*
X10257381Y-8147381D01*
X10247857Y-8109286D01*
X10247857Y-8061667D01*
X10257381Y-8023571D01*
X10266905Y-8004524D01*
X10276429Y-7995000D01*
X10295476Y-7985476D01*
X10447857Y-8166428D02*
X10457381Y-8175952D01*
X10447857Y-8185476D01*
X10438333Y-8175952D01*
X10447857Y-8166428D01*
X10447857Y-8185476D01*
X10581190Y-7985476D02*
X10600238Y-7985476D01*
X10619286Y-7995000D01*
X10628810Y-8004524D01*
X10638333Y-8023571D01*
X10647857Y-8061667D01*
X10647857Y-8109286D01*
X10638333Y-8147381D01*
X10628810Y-8166428D01*
X10619286Y-8175952D01*
X10600238Y-8185476D01*
X10581190Y-8185476D01*
X10562143Y-8175952D01*
X10552619Y-8166428D01*
X10543095Y-8147381D01*
X10533571Y-8109286D01*
X10533571Y-8061667D01*
X10543095Y-8023571D01*
X10552619Y-8004524D01*
X10562143Y-7995000D01*
X10581190Y-7985476D01*
X10724048Y-8004524D02*
X10733571Y-7995000D01*
X10752619Y-7985476D01*
X10800238Y-7985476D01*
X10819286Y-7995000D01*
X10828810Y-8004524D01*
X10838333Y-8023571D01*
X10838333Y-8042619D01*
X10828810Y-8071190D01*
X10714524Y-8185476D01*
X10838333Y-8185476D01*
X10905000Y-7985476D02*
X11028810Y-7985476D01*
X10962143Y-8061667D01*
X10990714Y-8061667D01*
X11009762Y-8071190D01*
X11019286Y-8080714D01*
X11028810Y-8099762D01*
X11028810Y-8147381D01*
X11019286Y-8166428D01*
X11009762Y-8175952D01*
X10990714Y-8185476D01*
X10933571Y-8185476D01*
X10914524Y-8175952D01*
X10905000Y-8166428D01*
X11200238Y-7985476D02*
X11162143Y-7985476D01*
X11143095Y-7995000D01*
X11133571Y-8004524D01*
X11114524Y-8033095D01*
X11105000Y-8071190D01*
X11105000Y-8147381D01*
X11114524Y-8166428D01*
X11124048Y-8175952D01*
X11143095Y-8185476D01*
X11181190Y-8185476D01*
X11200238Y-8175952D01*
X11209762Y-8166428D01*
X11219286Y-8147381D01*
X11219286Y-8099762D01*
X11209762Y-8080714D01*
X11200238Y-8071190D01*
X11181190Y-8061667D01*
X11143095Y-8061667D01*
X11124048Y-8071190D01*
X11114524Y-8080714D01*
X11105000Y-8099762D01*
X11295476Y-7985476D02*
X11295476Y-8023571D01*
X11371667Y-7985476D02*
X11371667Y-8023571D01*
X11666905Y-8261667D02*
X11657381Y-8252143D01*
X11638333Y-8223571D01*
X11628809Y-8204524D01*
X11619286Y-8175952D01*
X11609762Y-8128333D01*
X11609762Y-8090238D01*
X11619286Y-8042619D01*
X11628809Y-8014048D01*
X11638333Y-7995000D01*
X11657381Y-7966428D01*
X11666905Y-7956905D01*
X11733571Y-8004524D02*
X11743095Y-7995000D01*
X11762143Y-7985476D01*
X11809762Y-7985476D01*
X11828809Y-7995000D01*
X11838333Y-8004524D01*
X11847857Y-8023571D01*
X11847857Y-8042619D01*
X11838333Y-8071190D01*
X11724048Y-8185476D01*
X11847857Y-8185476D01*
X12085952Y-8185476D02*
X12085952Y-7985476D01*
X12171667Y-8185476D02*
X12171667Y-8080714D01*
X12162143Y-8061667D01*
X12143095Y-8052143D01*
X12114524Y-8052143D01*
X12095476Y-8061667D01*
X12085952Y-8071190D01*
X12295476Y-8185476D02*
X12276428Y-8175952D01*
X12266905Y-8166428D01*
X12257381Y-8147381D01*
X12257381Y-8090238D01*
X12266905Y-8071190D01*
X12276428Y-8061667D01*
X12295476Y-8052143D01*
X12324048Y-8052143D01*
X12343095Y-8061667D01*
X12352619Y-8071190D01*
X12362143Y-8090238D01*
X12362143Y-8147381D01*
X12352619Y-8166428D01*
X12343095Y-8175952D01*
X12324048Y-8185476D01*
X12295476Y-8185476D01*
X12476428Y-8185476D02*
X12457381Y-8175952D01*
X12447857Y-8156905D01*
X12447857Y-7985476D01*
X12628809Y-8175952D02*
X12609762Y-8185476D01*
X12571667Y-8185476D01*
X12552619Y-8175952D01*
X12543095Y-8156905D01*
X12543095Y-8080714D01*
X12552619Y-8061667D01*
X12571667Y-8052143D01*
X12609762Y-8052143D01*
X12628809Y-8061667D01*
X12638333Y-8080714D01*
X12638333Y-8099762D01*
X12543095Y-8118809D01*
X12714524Y-8175952D02*
X12733571Y-8185476D01*
X12771667Y-8185476D01*
X12790714Y-8175952D01*
X12800238Y-8156905D01*
X12800238Y-8147381D01*
X12790714Y-8128333D01*
X12771667Y-8118809D01*
X12743095Y-8118809D01*
X12724048Y-8109286D01*
X12714524Y-8090238D01*
X12714524Y-8080714D01*
X12724048Y-8061667D01*
X12743095Y-8052143D01*
X12771667Y-8052143D01*
X12790714Y-8061667D01*
X12866905Y-8261667D02*
X12876428Y-8252143D01*
X12895476Y-8223571D01*
X12905000Y-8204524D01*
X12914524Y-8175952D01*
X12924048Y-8128333D01*
X12924048Y-8090238D01*
X12914524Y-8042619D01*
X12905000Y-8014048D01*
X12895476Y-7995000D01*
X12876428Y-7966428D01*
X12866905Y-7956905D01*
X13228809Y-8261667D02*
X13219286Y-8252143D01*
X13200238Y-8223571D01*
X13190714Y-8204524D01*
X13181190Y-8175952D01*
X13171667Y-8128333D01*
X13171667Y-8090238D01*
X13181190Y-8042619D01*
X13190714Y-8014048D01*
X13200238Y-7995000D01*
X13219286Y-7966428D01*
X13228809Y-7956905D01*
X13305000Y-8052143D02*
X13305000Y-8185476D01*
X13305000Y-8071190D02*
X13314524Y-8061667D01*
X13333571Y-8052143D01*
X13362143Y-8052143D01*
X13381190Y-8061667D01*
X13390714Y-8080714D01*
X13390714Y-8185476D01*
X13514524Y-8185476D02*
X13495476Y-8175952D01*
X13485952Y-8166428D01*
X13476428Y-8147381D01*
X13476428Y-8090238D01*
X13485952Y-8071190D01*
X13495476Y-8061667D01*
X13514524Y-8052143D01*
X13543095Y-8052143D01*
X13562143Y-8061667D01*
X13571667Y-8071190D01*
X13581190Y-8090238D01*
X13581190Y-8147381D01*
X13571667Y-8166428D01*
X13562143Y-8175952D01*
X13543095Y-8185476D01*
X13514524Y-8185476D01*
X13638333Y-8052143D02*
X13714524Y-8052143D01*
X13666905Y-7985476D02*
X13666905Y-8156905D01*
X13676428Y-8175952D01*
X13695476Y-8185476D01*
X13714524Y-8185476D01*
X13933571Y-8052143D02*
X13933571Y-8252143D01*
X13933571Y-8061667D02*
X13952619Y-8052143D01*
X13990714Y-8052143D01*
X14009762Y-8061667D01*
X14019286Y-8071190D01*
X14028809Y-8090238D01*
X14028809Y-8147381D01*
X14019286Y-8166428D01*
X14009762Y-8175952D01*
X13990714Y-8185476D01*
X13952619Y-8185476D01*
X13933571Y-8175952D01*
X14143095Y-8185476D02*
X14124048Y-8175952D01*
X14114524Y-8156905D01*
X14114524Y-7985476D01*
X14305000Y-8185476D02*
X14305000Y-8080714D01*
X14295476Y-8061667D01*
X14276428Y-8052143D01*
X14238333Y-8052143D01*
X14219286Y-8061667D01*
X14305000Y-8175952D02*
X14285952Y-8185476D01*
X14238333Y-8185476D01*
X14219286Y-8175952D01*
X14209762Y-8156905D01*
X14209762Y-8137857D01*
X14219286Y-8118809D01*
X14238333Y-8109286D01*
X14285952Y-8109286D01*
X14305000Y-8099762D01*
X14371667Y-8052143D02*
X14447857Y-8052143D01*
X14400238Y-7985476D02*
X14400238Y-8156905D01*
X14409762Y-8175952D01*
X14428809Y-8185476D01*
X14447857Y-8185476D01*
X14590714Y-8175952D02*
X14571667Y-8185476D01*
X14533571Y-8185476D01*
X14514524Y-8175952D01*
X14505000Y-8156905D01*
X14505000Y-8080714D01*
X14514524Y-8061667D01*
X14533571Y-8052143D01*
X14571667Y-8052143D01*
X14590714Y-8061667D01*
X14600238Y-8080714D01*
X14600238Y-8099762D01*
X14505000Y-8118809D01*
X14771667Y-8185476D02*
X14771667Y-7985476D01*
X14771667Y-8175952D02*
X14752619Y-8185476D01*
X14714524Y-8185476D01*
X14695476Y-8175952D01*
X14685952Y-8166428D01*
X14676428Y-8147381D01*
X14676428Y-8090238D01*
X14685952Y-8071190D01*
X14695476Y-8061667D01*
X14714524Y-8052143D01*
X14752619Y-8052143D01*
X14771667Y-8061667D01*
X14847857Y-8261667D02*
X14857381Y-8252143D01*
X14876428Y-8223571D01*
X14885952Y-8204524D01*
X14895476Y-8175952D01*
X14905000Y-8128333D01*
X14905000Y-8090238D01*
X14895476Y-8042619D01*
X14885952Y-8014048D01*
X14876428Y-7995000D01*
X14857381Y-7966428D01*
X14847857Y-7956905D01*
D13*
X8095000Y-8359000D02*
G75*
G03*
X8095000Y-8359000I-88900J0D01*
G01*
D11*
X8457381Y-8449476D02*
X8343095Y-8449476D01*
X8400238Y-8449476D02*
X8400238Y-8249476D01*
X8381190Y-8278048D01*
X8362143Y-8297095D01*
X8343095Y-8306619D01*
X8543095Y-8430429D02*
X8552619Y-8439952D01*
X8543095Y-8449476D01*
X8533571Y-8439952D01*
X8543095Y-8430429D01*
X8543095Y-8449476D01*
X8619286Y-8249476D02*
X8752619Y-8249476D01*
X8666905Y-8449476D01*
X8809762Y-8249476D02*
X8943095Y-8249476D01*
X8857381Y-8449476D01*
X9047857Y-8335190D02*
X9028810Y-8325667D01*
X9019286Y-8316143D01*
X9009762Y-8297095D01*
X9009762Y-8287571D01*
X9019286Y-8268524D01*
X9028810Y-8259000D01*
X9047857Y-8249476D01*
X9085952Y-8249476D01*
X9105000Y-8259000D01*
X9114524Y-8268524D01*
X9124048Y-8287571D01*
X9124048Y-8297095D01*
X9114524Y-8316143D01*
X9105000Y-8325667D01*
X9085952Y-8335190D01*
X9047857Y-8335190D01*
X9028810Y-8344714D01*
X9019286Y-8354238D01*
X9009762Y-8373286D01*
X9009762Y-8411381D01*
X9019286Y-8430429D01*
X9028810Y-8439952D01*
X9047857Y-8449476D01*
X9085952Y-8449476D01*
X9105000Y-8439952D01*
X9114524Y-8430429D01*
X9124048Y-8411381D01*
X9124048Y-8373286D01*
X9114524Y-8354238D01*
X9105000Y-8344714D01*
X9085952Y-8335190D01*
X9209762Y-8449476D02*
X9209762Y-8316143D01*
X9209762Y-8335190D02*
X9219286Y-8325667D01*
X9238333Y-8316143D01*
X9266905Y-8316143D01*
X9285952Y-8325667D01*
X9295476Y-8344714D01*
X9295476Y-8449476D01*
X9295476Y-8344714D02*
X9305000Y-8325667D01*
X9324048Y-8316143D01*
X9352619Y-8316143D01*
X9371667Y-8325667D01*
X9381190Y-8344714D01*
X9381190Y-8449476D01*
X9476429Y-8449476D02*
X9476429Y-8316143D01*
X9476429Y-8335190D02*
X9485952Y-8325667D01*
X9505000Y-8316143D01*
X9533571Y-8316143D01*
X9552619Y-8325667D01*
X9562143Y-8344714D01*
X9562143Y-8449476D01*
X9562143Y-8344714D02*
X9571667Y-8325667D01*
X9590714Y-8316143D01*
X9619286Y-8316143D01*
X9638333Y-8325667D01*
X9647857Y-8344714D01*
X9647857Y-8449476D01*
X10038333Y-8239952D02*
X9866905Y-8497095D01*
X10295476Y-8249476D02*
X10314524Y-8249476D01*
X10333571Y-8259000D01*
X10343095Y-8268524D01*
X10352619Y-8287571D01*
X10362143Y-8325667D01*
X10362143Y-8373286D01*
X10352619Y-8411381D01*
X10343095Y-8430429D01*
X10333571Y-8439952D01*
X10314524Y-8449476D01*
X10295476Y-8449476D01*
X10276429Y-8439952D01*
X10266905Y-8430429D01*
X10257381Y-8411381D01*
X10247857Y-8373286D01*
X10247857Y-8325667D01*
X10257381Y-8287571D01*
X10266905Y-8268524D01*
X10276429Y-8259000D01*
X10295476Y-8249476D01*
X10447857Y-8430429D02*
X10457381Y-8439952D01*
X10447857Y-8449476D01*
X10438333Y-8439952D01*
X10447857Y-8430429D01*
X10447857Y-8449476D01*
X10581190Y-8249476D02*
X10600238Y-8249476D01*
X10619286Y-8259000D01*
X10628810Y-8268524D01*
X10638333Y-8287571D01*
X10647857Y-8325667D01*
X10647857Y-8373286D01*
X10638333Y-8411381D01*
X10628810Y-8430429D01*
X10619286Y-8439952D01*
X10600238Y-8449476D01*
X10581190Y-8449476D01*
X10562143Y-8439952D01*
X10552619Y-8430429D01*
X10543095Y-8411381D01*
X10533571Y-8373286D01*
X10533571Y-8325667D01*
X10543095Y-8287571D01*
X10552619Y-8268524D01*
X10562143Y-8259000D01*
X10581190Y-8249476D01*
X10714524Y-8249476D02*
X10847857Y-8249476D01*
X10762143Y-8449476D01*
X10962143Y-8249476D02*
X10981190Y-8249476D01*
X11000238Y-8259000D01*
X11009762Y-8268524D01*
X11019286Y-8287571D01*
X11028810Y-8325667D01*
X11028810Y-8373286D01*
X11019286Y-8411381D01*
X11009762Y-8430429D01*
X11000238Y-8439952D01*
X10981190Y-8449476D01*
X10962143Y-8449476D01*
X10943095Y-8439952D01*
X10933571Y-8430429D01*
X10924048Y-8411381D01*
X10914524Y-8373286D01*
X10914524Y-8325667D01*
X10924048Y-8287571D01*
X10933571Y-8268524D01*
X10943095Y-8259000D01*
X10962143Y-8249476D01*
X11152619Y-8249476D02*
X11171667Y-8249476D01*
X11190714Y-8259000D01*
X11200238Y-8268524D01*
X11209762Y-8287571D01*
X11219286Y-8325667D01*
X11219286Y-8373286D01*
X11209762Y-8411381D01*
X11200238Y-8430429D01*
X11190714Y-8439952D01*
X11171667Y-8449476D01*
X11152619Y-8449476D01*
X11133571Y-8439952D01*
X11124048Y-8430429D01*
X11114524Y-8411381D01*
X11105000Y-8373286D01*
X11105000Y-8325667D01*
X11114524Y-8287571D01*
X11124048Y-8268524D01*
X11133571Y-8259000D01*
X11152619Y-8249476D01*
X11295476Y-8249476D02*
X11295476Y-8287571D01*
X11371667Y-8249476D02*
X11371667Y-8287571D01*
X11666905Y-8525667D02*
X11657381Y-8516143D01*
X11638333Y-8487571D01*
X11628809Y-8468524D01*
X11619286Y-8439952D01*
X11609762Y-8392333D01*
X11609762Y-8354238D01*
X11619286Y-8306619D01*
X11628809Y-8278048D01*
X11638333Y-8259000D01*
X11657381Y-8230428D01*
X11666905Y-8220905D01*
X11733571Y-8268524D02*
X11743095Y-8259000D01*
X11762143Y-8249476D01*
X11809762Y-8249476D01*
X11828809Y-8259000D01*
X11838333Y-8268524D01*
X11847857Y-8287571D01*
X11847857Y-8306619D01*
X11838333Y-8335190D01*
X11724048Y-8449476D01*
X11847857Y-8449476D01*
X12085952Y-8449476D02*
X12085952Y-8249476D01*
X12171667Y-8449476D02*
X12171667Y-8344714D01*
X12162143Y-8325667D01*
X12143095Y-8316143D01*
X12114524Y-8316143D01*
X12095476Y-8325667D01*
X12085952Y-8335190D01*
X12295476Y-8449476D02*
X12276428Y-8439952D01*
X12266905Y-8430429D01*
X12257381Y-8411381D01*
X12257381Y-8354238D01*
X12266905Y-8335190D01*
X12276428Y-8325667D01*
X12295476Y-8316143D01*
X12324048Y-8316143D01*
X12343095Y-8325667D01*
X12352619Y-8335190D01*
X12362143Y-8354238D01*
X12362143Y-8411381D01*
X12352619Y-8430429D01*
X12343095Y-8439952D01*
X12324048Y-8449476D01*
X12295476Y-8449476D01*
X12476428Y-8449476D02*
X12457381Y-8439952D01*
X12447857Y-8420905D01*
X12447857Y-8249476D01*
X12628809Y-8439952D02*
X12609762Y-8449476D01*
X12571667Y-8449476D01*
X12552619Y-8439952D01*
X12543095Y-8420905D01*
X12543095Y-8344714D01*
X12552619Y-8325667D01*
X12571667Y-8316143D01*
X12609762Y-8316143D01*
X12628809Y-8325667D01*
X12638333Y-8344714D01*
X12638333Y-8363762D01*
X12543095Y-8382809D01*
X12714524Y-8439952D02*
X12733571Y-8449476D01*
X12771667Y-8449476D01*
X12790714Y-8439952D01*
X12800238Y-8420905D01*
X12800238Y-8411381D01*
X12790714Y-8392333D01*
X12771667Y-8382809D01*
X12743095Y-8382809D01*
X12724048Y-8373286D01*
X12714524Y-8354238D01*
X12714524Y-8344714D01*
X12724048Y-8325667D01*
X12743095Y-8316143D01*
X12771667Y-8316143D01*
X12790714Y-8325667D01*
X12866905Y-8525667D02*
X12876428Y-8516143D01*
X12895476Y-8487571D01*
X12905000Y-8468524D01*
X12914524Y-8439952D01*
X12924048Y-8392333D01*
X12924048Y-8354238D01*
X12914524Y-8306619D01*
X12905000Y-8278048D01*
X12895476Y-8259000D01*
X12876428Y-8230428D01*
X12866905Y-8220905D01*
X13228809Y-8525667D02*
X13219286Y-8516143D01*
X13200238Y-8487571D01*
X13190714Y-8468524D01*
X13181190Y-8439952D01*
X13171667Y-8392333D01*
X13171667Y-8354238D01*
X13181190Y-8306619D01*
X13190714Y-8278048D01*
X13200238Y-8259000D01*
X13219286Y-8230428D01*
X13228809Y-8220905D01*
X13305000Y-8316143D02*
X13305000Y-8449476D01*
X13305000Y-8335190D02*
X13314524Y-8325667D01*
X13333571Y-8316143D01*
X13362143Y-8316143D01*
X13381190Y-8325667D01*
X13390714Y-8344714D01*
X13390714Y-8449476D01*
X13514524Y-8449476D02*
X13495476Y-8439952D01*
X13485952Y-8430429D01*
X13476428Y-8411381D01*
X13476428Y-8354238D01*
X13485952Y-8335190D01*
X13495476Y-8325667D01*
X13514524Y-8316143D01*
X13543095Y-8316143D01*
X13562143Y-8325667D01*
X13571667Y-8335190D01*
X13581190Y-8354238D01*
X13581190Y-8411381D01*
X13571667Y-8430429D01*
X13562143Y-8439952D01*
X13543095Y-8449476D01*
X13514524Y-8449476D01*
X13638333Y-8316143D02*
X13714524Y-8316143D01*
X13666905Y-8249476D02*
X13666905Y-8420905D01*
X13676428Y-8439952D01*
X13695476Y-8449476D01*
X13714524Y-8449476D01*
X13933571Y-8316143D02*
X13933571Y-8516143D01*
X13933571Y-8325667D02*
X13952619Y-8316143D01*
X13990714Y-8316143D01*
X14009762Y-8325667D01*
X14019286Y-8335190D01*
X14028809Y-8354238D01*
X14028809Y-8411381D01*
X14019286Y-8430429D01*
X14009762Y-8439952D01*
X13990714Y-8449476D01*
X13952619Y-8449476D01*
X13933571Y-8439952D01*
X14143095Y-8449476D02*
X14124048Y-8439952D01*
X14114524Y-8420905D01*
X14114524Y-8249476D01*
X14305000Y-8449476D02*
X14305000Y-8344714D01*
X14295476Y-8325667D01*
X14276428Y-8316143D01*
X14238333Y-8316143D01*
X14219286Y-8325667D01*
X14305000Y-8439952D02*
X14285952Y-8449476D01*
X14238333Y-8449476D01*
X14219286Y-8439952D01*
X14209762Y-8420905D01*
X14209762Y-8401857D01*
X14219286Y-8382809D01*
X14238333Y-8373286D01*
X14285952Y-8373286D01*
X14305000Y-8363762D01*
X14371667Y-8316143D02*
X14447857Y-8316143D01*
X14400238Y-8249476D02*
X14400238Y-8420905D01*
X14409762Y-8439952D01*
X14428809Y-8449476D01*
X14447857Y-8449476D01*
X14590714Y-8439952D02*
X14571667Y-8449476D01*
X14533571Y-8449476D01*
X14514524Y-8439952D01*
X14505000Y-8420905D01*
X14505000Y-8344714D01*
X14514524Y-8325667D01*
X14533571Y-8316143D01*
X14571667Y-8316143D01*
X14590714Y-8325667D01*
X14600238Y-8344714D01*
X14600238Y-8363762D01*
X14505000Y-8382809D01*
X14771667Y-8449476D02*
X14771667Y-8249476D01*
X14771667Y-8439952D02*
X14752619Y-8449476D01*
X14714524Y-8449476D01*
X14695476Y-8439952D01*
X14685952Y-8430429D01*
X14676428Y-8411381D01*
X14676428Y-8354238D01*
X14685952Y-8335190D01*
X14695476Y-8325667D01*
X14714524Y-8316143D01*
X14752619Y-8316143D01*
X14771667Y-8325667D01*
X14847857Y-8525667D02*
X14857381Y-8516143D01*
X14876428Y-8487571D01*
X14885952Y-8468524D01*
X14895476Y-8439952D01*
X14905000Y-8392333D01*
X14905000Y-8354238D01*
X14895476Y-8306619D01*
X14885952Y-8278048D01*
X14876428Y-8259000D01*
X14857381Y-8230428D01*
X14847857Y-8220905D01*
X7995000Y-8556800D02*
X7995000Y-8756800D01*
X7895000Y-8656800D02*
X8095000Y-8656800D01*
X8333571Y-8547276D02*
X8457381Y-8547276D01*
X8390714Y-8623467D01*
X8419286Y-8623467D01*
X8438333Y-8632990D01*
X8447857Y-8642514D01*
X8457381Y-8661562D01*
X8457381Y-8709181D01*
X8447857Y-8728229D01*
X8438333Y-8737752D01*
X8419286Y-8747276D01*
X8362143Y-8747276D01*
X8343095Y-8737752D01*
X8333571Y-8728229D01*
X8543095Y-8728229D02*
X8552619Y-8737752D01*
X8543095Y-8747276D01*
X8533571Y-8737752D01*
X8543095Y-8728229D01*
X8543095Y-8747276D01*
X8628810Y-8566324D02*
X8638333Y-8556800D01*
X8657381Y-8547276D01*
X8705000Y-8547276D01*
X8724048Y-8556800D01*
X8733571Y-8566324D01*
X8743095Y-8585371D01*
X8743095Y-8604419D01*
X8733571Y-8632990D01*
X8619286Y-8747276D01*
X8743095Y-8747276D01*
X8924048Y-8547276D02*
X8828810Y-8547276D01*
X8819286Y-8642514D01*
X8828810Y-8632990D01*
X8847857Y-8623467D01*
X8895476Y-8623467D01*
X8914524Y-8632990D01*
X8924048Y-8642514D01*
X8933571Y-8661562D01*
X8933571Y-8709181D01*
X8924048Y-8728229D01*
X8914524Y-8737752D01*
X8895476Y-8747276D01*
X8847857Y-8747276D01*
X8828810Y-8737752D01*
X8819286Y-8728229D01*
X9124048Y-8747276D02*
X9009762Y-8747276D01*
X9066905Y-8747276D02*
X9066905Y-8547276D01*
X9047857Y-8575848D01*
X9028810Y-8594895D01*
X9009762Y-8604419D01*
X9209762Y-8747276D02*
X9209762Y-8613943D01*
X9209762Y-8632990D02*
X9219286Y-8623467D01*
X9238333Y-8613943D01*
X9266905Y-8613943D01*
X9285952Y-8623467D01*
X9295476Y-8642514D01*
X9295476Y-8747276D01*
X9295476Y-8642514D02*
X9305000Y-8623467D01*
X9324048Y-8613943D01*
X9352619Y-8613943D01*
X9371667Y-8623467D01*
X9381190Y-8642514D01*
X9381190Y-8747276D01*
X9476429Y-8747276D02*
X9476429Y-8613943D01*
X9476429Y-8632990D02*
X9485952Y-8623467D01*
X9505000Y-8613943D01*
X9533571Y-8613943D01*
X9552619Y-8623467D01*
X9562143Y-8642514D01*
X9562143Y-8747276D01*
X9562143Y-8642514D02*
X9571667Y-8623467D01*
X9590714Y-8613943D01*
X9619286Y-8613943D01*
X9638333Y-8623467D01*
X9647857Y-8642514D01*
X9647857Y-8747276D01*
X10038333Y-8537752D02*
X9866905Y-8794895D01*
X10295476Y-8547276D02*
X10314524Y-8547276D01*
X10333571Y-8556800D01*
X10343095Y-8566324D01*
X10352619Y-8585371D01*
X10362143Y-8623467D01*
X10362143Y-8671086D01*
X10352619Y-8709181D01*
X10343095Y-8728229D01*
X10333571Y-8737752D01*
X10314524Y-8747276D01*
X10295476Y-8747276D01*
X10276429Y-8737752D01*
X10266905Y-8728229D01*
X10257381Y-8709181D01*
X10247857Y-8671086D01*
X10247857Y-8623467D01*
X10257381Y-8585371D01*
X10266905Y-8566324D01*
X10276429Y-8556800D01*
X10295476Y-8547276D01*
X10447857Y-8728229D02*
X10457381Y-8737752D01*
X10447857Y-8747276D01*
X10438333Y-8737752D01*
X10447857Y-8728229D01*
X10447857Y-8747276D01*
X10647857Y-8747276D02*
X10533571Y-8747276D01*
X10590714Y-8747276D02*
X10590714Y-8547276D01*
X10571667Y-8575848D01*
X10552619Y-8594895D01*
X10533571Y-8604419D01*
X10724048Y-8566324D02*
X10733571Y-8556800D01*
X10752619Y-8547276D01*
X10800238Y-8547276D01*
X10819286Y-8556800D01*
X10828810Y-8566324D01*
X10838333Y-8585371D01*
X10838333Y-8604419D01*
X10828810Y-8632990D01*
X10714524Y-8747276D01*
X10838333Y-8747276D01*
X10952619Y-8632990D02*
X10933571Y-8623467D01*
X10924048Y-8613943D01*
X10914524Y-8594895D01*
X10914524Y-8585371D01*
X10924048Y-8566324D01*
X10933571Y-8556800D01*
X10952619Y-8547276D01*
X10990714Y-8547276D01*
X11009762Y-8556800D01*
X11019286Y-8566324D01*
X11028810Y-8585371D01*
X11028810Y-8594895D01*
X11019286Y-8613943D01*
X11009762Y-8623467D01*
X10990714Y-8632990D01*
X10952619Y-8632990D01*
X10933571Y-8642514D01*
X10924048Y-8652038D01*
X10914524Y-8671086D01*
X10914524Y-8709181D01*
X10924048Y-8728229D01*
X10933571Y-8737752D01*
X10952619Y-8747276D01*
X10990714Y-8747276D01*
X11009762Y-8737752D01*
X11019286Y-8728229D01*
X11028810Y-8709181D01*
X11028810Y-8671086D01*
X11019286Y-8652038D01*
X11009762Y-8642514D01*
X10990714Y-8632990D01*
X11152619Y-8547276D02*
X11171667Y-8547276D01*
X11190714Y-8556800D01*
X11200238Y-8566324D01*
X11209762Y-8585371D01*
X11219286Y-8623467D01*
X11219286Y-8671086D01*
X11209762Y-8709181D01*
X11200238Y-8728229D01*
X11190714Y-8737752D01*
X11171667Y-8747276D01*
X11152619Y-8747276D01*
X11133571Y-8737752D01*
X11124048Y-8728229D01*
X11114524Y-8709181D01*
X11105000Y-8671086D01*
X11105000Y-8623467D01*
X11114524Y-8585371D01*
X11124048Y-8566324D01*
X11133571Y-8556800D01*
X11152619Y-8547276D01*
X11295476Y-8547276D02*
X11295476Y-8585371D01*
X11371667Y-8547276D02*
X11371667Y-8585371D01*
X11666905Y-8823467D02*
X11657381Y-8813943D01*
X11638333Y-8785371D01*
X11628809Y-8766324D01*
X11619286Y-8737752D01*
X11609762Y-8690133D01*
X11609762Y-8652038D01*
X11619286Y-8604419D01*
X11628809Y-8575848D01*
X11638333Y-8556800D01*
X11657381Y-8528229D01*
X11666905Y-8518705D01*
X11733571Y-8566324D02*
X11743095Y-8556800D01*
X11762143Y-8547276D01*
X11809762Y-8547276D01*
X11828809Y-8556800D01*
X11838333Y-8566324D01*
X11847857Y-8585371D01*
X11847857Y-8604419D01*
X11838333Y-8632990D01*
X11724048Y-8747276D01*
X11847857Y-8747276D01*
X12085952Y-8747276D02*
X12085952Y-8547276D01*
X12171667Y-8747276D02*
X12171667Y-8642514D01*
X12162143Y-8623467D01*
X12143095Y-8613943D01*
X12114524Y-8613943D01*
X12095476Y-8623467D01*
X12085952Y-8632990D01*
X12295476Y-8747276D02*
X12276428Y-8737752D01*
X12266905Y-8728229D01*
X12257381Y-8709181D01*
X12257381Y-8652038D01*
X12266905Y-8632990D01*
X12276428Y-8623467D01*
X12295476Y-8613943D01*
X12324048Y-8613943D01*
X12343095Y-8623467D01*
X12352619Y-8632990D01*
X12362143Y-8652038D01*
X12362143Y-8709181D01*
X12352619Y-8728229D01*
X12343095Y-8737752D01*
X12324048Y-8747276D01*
X12295476Y-8747276D01*
X12476428Y-8747276D02*
X12457381Y-8737752D01*
X12447857Y-8718705D01*
X12447857Y-8547276D01*
X12628809Y-8737752D02*
X12609762Y-8747276D01*
X12571667Y-8747276D01*
X12552619Y-8737752D01*
X12543095Y-8718705D01*
X12543095Y-8642514D01*
X12552619Y-8623467D01*
X12571667Y-8613943D01*
X12609762Y-8613943D01*
X12628809Y-8623467D01*
X12638333Y-8642514D01*
X12638333Y-8661562D01*
X12543095Y-8680610D01*
X12714524Y-8737752D02*
X12733571Y-8747276D01*
X12771667Y-8747276D01*
X12790714Y-8737752D01*
X12800238Y-8718705D01*
X12800238Y-8709181D01*
X12790714Y-8690133D01*
X12771667Y-8680610D01*
X12743095Y-8680610D01*
X12724048Y-8671086D01*
X12714524Y-8652038D01*
X12714524Y-8642514D01*
X12724048Y-8623467D01*
X12743095Y-8613943D01*
X12771667Y-8613943D01*
X12790714Y-8623467D01*
X12866905Y-8823467D02*
X12876428Y-8813943D01*
X12895476Y-8785371D01*
X12905000Y-8766324D01*
X12914524Y-8737752D01*
X12924048Y-8690133D01*
X12924048Y-8652038D01*
X12914524Y-8604419D01*
X12905000Y-8575848D01*
X12895476Y-8556800D01*
X12876428Y-8528229D01*
X12866905Y-8518705D01*
X13228809Y-8823467D02*
X13219286Y-8813943D01*
X13200238Y-8785371D01*
X13190714Y-8766324D01*
X13181190Y-8737752D01*
X13171667Y-8690133D01*
X13171667Y-8652038D01*
X13181190Y-8604419D01*
X13190714Y-8575848D01*
X13200238Y-8556800D01*
X13219286Y-8528229D01*
X13228809Y-8518705D01*
X13305000Y-8613943D02*
X13305000Y-8747276D01*
X13305000Y-8632990D02*
X13314524Y-8623467D01*
X13333571Y-8613943D01*
X13362143Y-8613943D01*
X13381190Y-8623467D01*
X13390714Y-8642514D01*
X13390714Y-8747276D01*
X13514524Y-8747276D02*
X13495476Y-8737752D01*
X13485952Y-8728229D01*
X13476428Y-8709181D01*
X13476428Y-8652038D01*
X13485952Y-8632990D01*
X13495476Y-8623467D01*
X13514524Y-8613943D01*
X13543095Y-8613943D01*
X13562143Y-8623467D01*
X13571667Y-8632990D01*
X13581190Y-8652038D01*
X13581190Y-8709181D01*
X13571667Y-8728229D01*
X13562143Y-8737752D01*
X13543095Y-8747276D01*
X13514524Y-8747276D01*
X13638333Y-8613943D02*
X13714524Y-8613943D01*
X13666905Y-8547276D02*
X13666905Y-8718705D01*
X13676428Y-8737752D01*
X13695476Y-8747276D01*
X13714524Y-8747276D01*
X13933571Y-8613943D02*
X13933571Y-8813943D01*
X13933571Y-8623467D02*
X13952619Y-8613943D01*
X13990714Y-8613943D01*
X14009762Y-8623467D01*
X14019286Y-8632990D01*
X14028809Y-8652038D01*
X14028809Y-8709181D01*
X14019286Y-8728229D01*
X14009762Y-8737752D01*
X13990714Y-8747276D01*
X13952619Y-8747276D01*
X13933571Y-8737752D01*
X14143095Y-8747276D02*
X14124048Y-8737752D01*
X14114524Y-8718705D01*
X14114524Y-8547276D01*
X14305000Y-8747276D02*
X14305000Y-8642514D01*
X14295476Y-8623467D01*
X14276428Y-8613943D01*
X14238333Y-8613943D01*
X14219286Y-8623467D01*
X14305000Y-8737752D02*
X14285952Y-8747276D01*
X14238333Y-8747276D01*
X14219286Y-8737752D01*
X14209762Y-8718705D01*
X14209762Y-8699657D01*
X14219286Y-8680610D01*
X14238333Y-8671086D01*
X14285952Y-8671086D01*
X14305000Y-8661562D01*
X14371667Y-8613943D02*
X14447857Y-8613943D01*
X14400238Y-8547276D02*
X14400238Y-8718705D01*
X14409762Y-8737752D01*
X14428809Y-8747276D01*
X14447857Y-8747276D01*
X14590714Y-8737752D02*
X14571667Y-8747276D01*
X14533571Y-8747276D01*
X14514524Y-8737752D01*
X14505000Y-8718705D01*
X14505000Y-8642514D01*
X14514524Y-8623467D01*
X14533571Y-8613943D01*
X14571667Y-8613943D01*
X14590714Y-8623467D01*
X14600238Y-8642514D01*
X14600238Y-8661562D01*
X14505000Y-8680610D01*
X14771667Y-8747276D02*
X14771667Y-8547276D01*
X14771667Y-8737752D02*
X14752619Y-8747276D01*
X14714524Y-8747276D01*
X14695476Y-8737752D01*
X14685952Y-8728229D01*
X14676428Y-8709181D01*
X14676428Y-8652038D01*
X14685952Y-8632990D01*
X14695476Y-8623467D01*
X14714524Y-8613943D01*
X14752619Y-8613943D01*
X14771667Y-8623467D01*
X14847857Y-8823467D02*
X14857381Y-8813943D01*
X14876428Y-8785371D01*
X14885952Y-8766324D01*
X14895476Y-8737752D01*
X14905000Y-8690133D01*
X14905000Y-8652038D01*
X14895476Y-8604419D01*
X14885952Y-8575848D01*
X14876428Y-8556800D01*
X14857381Y-8528229D01*
X14847857Y-8518705D01*
M02*
