M48
; DRILL file {KiCad 6.0.7-1.fc36} date Sat 25 Mar 2023 15:58:41
; FORMAT={-:-/ absolute / inch / decimal}
; #@! TF.CreationDate,2023-03-25T15:58:41+11:00
; #@! TF.GenerationSoftware,Kicad,Pcbnew,6.0.7-1.fc36
; #@! TF.FileFunction,Plated,1,2,PTH
FMAT,2
INCH
; #@! TA.AperFunction,Plated,PTH,ComponentDrill
T1C0.0118
; #@! TA.AperFunction,Plated,PTH,ViaDrill
T2C0.0157
; #@! TA.AperFunction,Plated,PTH,ComponentDrill
T3C0.0256
; #@! TA.AperFunction,Plated,PTH,ComponentDrill
T4C0.0320
; #@! TA.AperFunction,Plated,PTH,ComponentDrill
T5C0.0350
; #@! TA.AperFunction,Plated,PTH,ComponentDrill
T6C0.0354
; #@! TA.AperFunction,Plated,PTH,ComponentDrill
T7C0.0374
; #@! TA.AperFunction,Plated,PTH,ComponentDrill
T8C0.0394
; #@! TA.AperFunction,Plated,PTH,ComponentDrill
T9C0.0400
; #@! TA.AperFunction,Plated,PTH,ComponentDrill
T10C0.0591
; #@! TA.AperFunction,Plated,PTH,ComponentDrill
T11C0.0630
; #@! TA.AperFunction,Plated,PTH,ComponentDrill
T12C0.0650
; #@! TA.AperFunction,Plated,PTH,ComponentDrill
T13C0.1260
%
G90
G05
T1
X9.5787Y-1.9069
X9.5787Y-1.9581
X9.5787Y-2.0093
X9.5787Y-2.0604
X9.6299Y-1.9069
X9.6299Y-1.9581
X9.6299Y-2.0093
X9.6299Y-2.0604
T2
X3.395Y-1.56
X3.46Y-2.025
X3.7106Y-1.4665
X3.713Y-1.218
X3.8583Y-1.4173
X3.9862Y-1.8209
X4.0945Y-1.3976
X4.437Y-1.285
X4.4882Y-1.7815
X4.5177Y-1.9685
X4.642Y-1.34
X4.7539Y-1.939
X4.927Y-1.31
X5.093Y-1.9424
X5.093Y-2.0526
X5.422Y-1.315
X5.422Y-2.235
X5.742Y-1.295
X5.7972Y-1.811
X5.8957Y-1.8406
X5.9547Y-2.2441
X5.973Y-1.922
X6.071Y-1.252
X6.0717Y-1.7638
X6.0827Y-2.0079
X6.0934Y-1.4154
X6.1417Y-2.1752
X6.147Y-1.7664
X6.151Y-2.866
X6.221Y-1.448
X6.2303Y-2.1949
X6.2384Y-2.0669
X6.239Y-1.976
X6.2749Y-2.0666
X6.3113Y-2.0691
X6.3287Y-2.1161
X6.3681Y-2.1161
X6.379Y-1.594
X6.4075Y-2.1161
X6.4075Y-2.185
X6.431Y-1.369
X6.433Y-1.669
X6.4401Y-2.3622
X6.4704Y-1.8839
X6.4704Y-1.9783
X6.5028Y-1.561
X6.5087Y-1.8415
X6.531Y-1.39
X6.543Y-1.246
X6.5443Y-2.2628
X6.5499Y-1.8335
X6.5648Y-1.8839
X6.5648Y-1.9783
X6.6003Y-1.8583
X6.6084Y-1.9923
X6.6145Y-2.029
X6.633Y-2.3267
X6.7078Y-2.4291
X6.751Y-1.393
X6.752Y-2.3524
X6.7583Y-2.05
X6.8209Y-2.5492
X6.821Y-1.376
X6.8602Y-2.5
X6.9882Y-1.9094
X7.0058Y-1.5581
X7.0079Y-2.2835
X7.0276Y-1.811
X7.0374Y-2.3622
X7.0374Y-2.4508
X7.231Y-1.48
X7.3327Y-1.7717
X7.372Y-2.2933
X7.3819Y-2.8346
X7.4016Y-1.6551
X7.4114Y-1.5748
X7.4311Y-2.8346
X7.4409Y-1.378
X7.4606Y-1.7815
X7.4609Y-1.5748
X7.4705Y-2.0177
X7.4803Y-2.6969
X7.4902Y-2.126
X7.4974Y-1.5748
X7.5197Y-1.6535
X7.5338Y-1.5763
X7.5394Y-1.0728
X7.5394Y-1.1122
X7.5394Y-1.1516
X7.5394Y-1.1909
X7.5787Y-1.2402
X7.5787Y-1.4173
X7.5984Y-2.4016
X7.6476Y-1.998
X7.6575Y-1.6142
X7.6969Y-1.1417
X7.6969Y-1.2992
X7.7067Y-1.6831
X7.7264Y-2.5197
X7.7362Y-2.2933
X7.7657Y-1.5453
X7.8939Y-2.3228
X7.9429Y-1.1909
X8.0217Y-1.6339
X8.0413Y-2.0472
X8.1398Y-1.5256
X8.1693Y-1.5551
X8.1791Y-1.6043
X8.2283Y-1.3287
X8.248Y-1.1614
X8.2776Y-1.1909
X8.3766Y-1.1124
X8.3766Y-1.26
X8.3766Y-1.4077
X8.3766Y-1.5652
X8.6024Y-1.122
X8.8683Y-1.4171
X8.8687Y-1.1124
X8.8687Y-1.26
X8.8687Y-1.5652
X9.0157Y-1.5157
X9.0256Y-1.3189
X9.0846Y-1.122
X9.1437Y-2.0965
X9.4291Y-2.1555
X9.7835Y-2.0866
X9.9606Y-2.4508
X9.9631Y-1.8996
X9.9729Y-2.0177
X10.1575Y-2.6181
X10.2119Y-2.5098
T4
X8.5553Y-1.8692
X8.5553Y-2.0692
X8.9053Y-1.8692
X8.9053Y-2.0692
X8.9862Y-1.8701
X8.9862Y-2.0701
X9.3362Y-1.8701
X9.3362Y-2.0701
T5
X9.361Y-1.6591
X9.411Y-1.5591
X9.461Y-1.6591
X9.511Y-1.5591
X9.561Y-1.6591
X9.611Y-1.5591
X9.661Y-1.6591
X9.711Y-1.5591
T6
X4.093Y-1.859
X4.193Y-1.859
X4.293Y-1.859
X4.393Y-1.859
T7
X4.9693Y-2.4757
X5.0678Y-2.4757
X5.1662Y-2.4757
X5.2646Y-2.4757
X5.5461Y-2.4757
X5.6445Y-2.4757
X5.7429Y-2.4757
X5.8413Y-2.4757
T8
X5.9049Y-2.1063
X6.0049Y-2.1063
X6.181Y-1.1522
X6.181Y-1.2522
X6.4396Y-2.5607
X6.5396Y-2.5607
X6.6396Y-2.5607
X7.1746Y-1.912
X7.1746Y-2.012
X7.1746Y-2.112
X7.1746Y-2.212
X7.1746Y-2.312
X7.1746Y-2.412
X7.1746Y-2.512
X7.1746Y-2.612
X7.1746Y-2.712
X7.1746Y-2.812
X7.2746Y-1.912
X7.2746Y-2.012
X7.2746Y-2.112
X7.2746Y-2.212
X7.2746Y-2.312
X7.2746Y-2.412
X7.2746Y-2.512
X7.2746Y-2.612
X7.2746Y-2.712
X7.2746Y-2.812
X7.6762Y-2.7756
X7.7756Y-2.6181
X7.7762Y-2.7756
X7.8756Y-2.6181
X7.8762Y-2.7756
X8.0512Y-2.2441
X8.0512Y-2.3441
X9.2498Y-2.3126
X9.3498Y-2.3126
X9.4498Y-2.3126
X10.0394Y-2.0689
X10.0394Y-2.1689
T9
X3.7952Y-1.2261
X3.8952Y-1.2261
X3.9952Y-1.2261
X9.288Y-1.1471
X9.387Y-1.1471
X9.686Y-1.1471
X9.785Y-1.1471
T10
X4.3996Y-1.511
X4.4961Y-1.1193
X4.4961Y-1.5976
X4.5945Y-1.1193
X4.6929Y-1.511
X4.7913Y-1.1193
X4.8898Y-1.1193
X4.8898Y-1.5976
X4.9862Y-1.511
X5.2816Y-1.5084
X5.378Y-1.1167
X5.378Y-1.595
X5.4765Y-1.1167
X5.5749Y-1.5084
X5.6733Y-1.1167
X5.7717Y-1.1167
X5.7717Y-1.595
X5.8682Y-1.5084
T11
X8.3563Y-1.8949
X8.3563Y-2.4949
X8.5925Y-2.6457
X9.1925Y-2.6457
T12
X9.226Y-1.4621
X9.846Y-1.4621
T13
X3.3465Y-1.1811
X3.3563Y-2.7756
X10.1575Y-1.1811
X10.1575Y-2.7756
T3
G00X6.5067Y-1.1517
M15
G01X6.5067Y-1.1203
M16
G05
G00X6.5067Y-1.3218
M15
G01X6.5067Y-1.2785
M16
G05
G00X6.8472Y-1.1517
M15
G01X6.8472Y-1.1203
M16
G05
G00X6.8472Y-1.3218
M15
G01X6.8472Y-1.2785
M16
G05
T0
M30
