%TF.GenerationSoftware,KiCad,Pcbnew,6.0.7-1.fc36*%
%TF.CreationDate,2023-03-25T15:58:43+11:00*%
%TF.ProjectId,MOOD-Motherboard-r0.1.1,4d4f4f44-2d4d-46f7-9468-6572626f6172,rev?*%
%TF.SameCoordinates,Original*%
%TF.FileFunction,Drillmap*%
%TF.FilePolarity,Positive*%
%FSLAX45Y45*%
G04 Gerber Fmt 4.5, Leading zero omitted, Abs format (unit mm)*
G04 Created by KiCad (PCBNEW 6.0.7-1.fc36) date 2023-03-25 15:58:43*
%MOMM*%
%LPD*%
G01*
G04 APERTURE LIST*
%ADD10C,0.100000*%
%ADD11C,0.200000*%
%ADD12C,0.030000*%
%ADD13C,0.040000*%
%ADD14C,0.065000*%
%ADD15C,0.081280*%
%ADD16C,0.088900*%
%ADD17C,0.090000*%
%ADD18C,0.095000*%
%ADD19C,0.101600*%
%ADD20C,0.150000*%
%ADD21C,0.160000*%
%ADD22C,0.165100*%
%ADD23C,0.320000*%
G04 APERTURE END LIST*
D10*
X8200000Y-2600000D02*
G75*
G03*
X8100000Y-2700000I0J-100000D01*
G01*
X8100000Y-7350000D02*
G75*
G03*
X8200000Y-7450000I100000J0D01*
G01*
X26100000Y-2600000D02*
X8200000Y-2600000D01*
X8200000Y-7450000D02*
X26100000Y-7450000D01*
X26200000Y-2700000D02*
G75*
G03*
X26100000Y-2600000I-100000J0D01*
G01*
X26200000Y-7350000D02*
X26200000Y-2700000D01*
X26100000Y-7450000D02*
G75*
G03*
X26200000Y-7350000I0J100000D01*
G01*
X8100000Y-2700000D02*
X8100000Y-7350000D01*
D11*
D12*
X24315000Y-4828500D02*
X24345000Y-4858500D01*
X24345000Y-4828500D02*
X24315000Y-4858500D01*
X24315000Y-4958500D02*
X24345000Y-4988500D01*
X24345000Y-4958500D02*
X24315000Y-4988500D01*
X24315000Y-5088500D02*
X24345000Y-5118500D01*
X24345000Y-5088500D02*
X24315000Y-5118500D01*
X24315000Y-5218500D02*
X24345000Y-5248500D01*
X24345000Y-5218500D02*
X24315000Y-5248500D01*
X24445000Y-4828500D02*
X24475000Y-4858500D01*
X24475000Y-4828500D02*
X24445000Y-4858500D01*
X24445000Y-4958500D02*
X24475000Y-4988500D01*
X24475000Y-4958500D02*
X24445000Y-4988500D01*
X24445000Y-5088500D02*
X24475000Y-5118500D01*
X24475000Y-5088500D02*
X24445000Y-5118500D01*
X24445000Y-5218500D02*
X24475000Y-5248500D01*
X24475000Y-5218500D02*
X24445000Y-5248500D01*
D13*
X8643300Y-3962400D02*
G75*
G03*
X8643300Y-3962400I-20000J0D01*
G01*
X8808400Y-5143500D02*
G75*
G03*
X8808400Y-5143500I-20000J0D01*
G01*
X9445000Y-3725000D02*
G75*
G03*
X9445000Y-3725000I-20000J0D01*
G01*
X9450940Y-3093720D02*
G75*
G03*
X9450940Y-3093720I-20000J0D01*
G01*
X9820000Y-3600000D02*
G75*
G03*
X9820000Y-3600000I-20000J0D01*
G01*
X10145000Y-4625000D02*
G75*
G03*
X10145000Y-4625000I-20000J0D01*
G01*
X10420000Y-3550000D02*
G75*
G03*
X10420000Y-3550000I-20000J0D01*
G01*
X11289900Y-3263900D02*
G75*
G03*
X11289900Y-3263900I-20000J0D01*
G01*
X11420000Y-4525000D02*
G75*
G03*
X11420000Y-4525000I-20000J0D01*
G01*
X11495000Y-5000000D02*
G75*
G03*
X11495000Y-5000000I-20000J0D01*
G01*
X11810600Y-3403600D02*
G75*
G03*
X11810600Y-3403600I-20000J0D01*
G01*
X12095000Y-4925000D02*
G75*
G03*
X12095000Y-4925000I-20000J0D01*
G01*
X12534500Y-3327400D02*
G75*
G03*
X12534500Y-3327400I-20000J0D01*
G01*
X12956300Y-4933700D02*
G75*
G03*
X12956300Y-4933700I-20000J0D01*
G01*
X12956300Y-5213700D02*
G75*
G03*
X12956300Y-5213700I-20000J0D01*
G01*
X13791800Y-3340100D02*
G75*
G03*
X13791800Y-3340100I-20000J0D01*
G01*
X13791800Y-5676900D02*
G75*
G03*
X13791800Y-5676900I-20000J0D01*
G01*
X14604600Y-3289300D02*
G75*
G03*
X14604600Y-3289300I-20000J0D01*
G01*
X14745000Y-4600000D02*
G75*
G03*
X14745000Y-4600000I-20000J0D01*
G01*
X14995000Y-4675000D02*
G75*
G03*
X14995000Y-4675000I-20000J0D01*
G01*
X15145000Y-5700000D02*
G75*
G03*
X15145000Y-5700000I-20000J0D01*
G01*
X15191340Y-4881880D02*
G75*
G03*
X15191340Y-4881880I-20000J0D01*
G01*
X15440260Y-3180080D02*
G75*
G03*
X15440260Y-3180080I-20000J0D01*
G01*
X15442200Y-4480000D02*
G75*
G03*
X15442200Y-4480000I-20000J0D01*
G01*
X15470000Y-5100000D02*
G75*
G03*
X15470000Y-5100000I-20000J0D01*
G01*
X15497200Y-3595000D02*
G75*
G03*
X15497200Y-3595000I-20000J0D01*
G01*
X15620000Y-5525000D02*
G75*
G03*
X15620000Y-5525000I-20000J0D01*
G01*
X15633300Y-4486700D02*
G75*
G03*
X15633300Y-4486700I-20000J0D01*
G01*
X15643460Y-7279640D02*
G75*
G03*
X15643460Y-7279640I-20000J0D01*
G01*
X15821260Y-3677920D02*
G75*
G03*
X15821260Y-3677920I-20000J0D01*
G01*
X15845000Y-5575000D02*
G75*
G03*
X15845000Y-5575000I-20000J0D01*
G01*
X15865512Y-5250042D02*
G75*
G03*
X15865512Y-5250042I-20000J0D01*
G01*
X15866980Y-5019040D02*
G75*
G03*
X15866980Y-5019040I-20000J0D01*
G01*
X15958158Y-5249179D02*
G75*
G03*
X15958158Y-5249179I-20000J0D01*
G01*
X16050587Y-5255587D02*
G75*
G03*
X16050587Y-5255587I-20000J0D01*
G01*
X16095000Y-5375000D02*
G75*
G03*
X16095000Y-5375000I-20000J0D01*
G01*
X16195000Y-5375000D02*
G75*
G03*
X16195000Y-5375000I-20000J0D01*
G01*
X16222580Y-4048760D02*
G75*
G03*
X16222580Y-4048760I-20000J0D01*
G01*
X16295000Y-5375000D02*
G75*
G03*
X16295000Y-5375000I-20000J0D01*
G01*
X16295000Y-5550000D02*
G75*
G03*
X16295000Y-5550000I-20000J0D01*
G01*
X16354660Y-3477260D02*
G75*
G03*
X16354660Y-3477260I-20000J0D01*
G01*
X16359740Y-4239260D02*
G75*
G03*
X16359740Y-4239260I-20000J0D01*
G01*
X16377740Y-5999880D02*
G75*
G03*
X16377740Y-5999880I-20000J0D01*
G01*
X16454700Y-4785000D02*
G75*
G03*
X16454700Y-4785000I-20000J0D01*
G01*
X16454700Y-5025000D02*
G75*
G03*
X16454700Y-5025000I-20000J0D01*
G01*
X16537200Y-3965000D02*
G75*
G03*
X16537200Y-3965000I-20000J0D01*
G01*
X16552200Y-4677500D02*
G75*
G03*
X16552200Y-4677500I-20000J0D01*
G01*
X16608660Y-3530600D02*
G75*
G03*
X16608660Y-3530600I-20000J0D01*
G01*
X16639140Y-3164840D02*
G75*
G03*
X16639140Y-3164840I-20000J0D01*
G01*
X16642430Y-5747615D02*
G75*
G03*
X16642430Y-5747615I-20000J0D01*
G01*
X16656757Y-4657046D02*
G75*
G03*
X16656757Y-4657046I-20000J0D01*
G01*
X16694700Y-4785000D02*
G75*
G03*
X16694700Y-4785000I-20000J0D01*
G01*
X16694700Y-5025000D02*
G75*
G03*
X16694700Y-5025000I-20000J0D01*
G01*
X16784700Y-4720000D02*
G75*
G03*
X16784700Y-4720000I-20000J0D01*
G01*
X16805441Y-5060441D02*
G75*
G03*
X16805441Y-5060441I-20000J0D01*
G01*
X16820818Y-5153626D02*
G75*
G03*
X16820818Y-5153626I-20000J0D01*
G01*
X16867740Y-5909880D02*
G75*
G03*
X16867740Y-5909880I-20000J0D01*
G01*
X17057740Y-6169880D02*
G75*
G03*
X17057740Y-6169880I-20000J0D01*
G01*
X17167460Y-3538220D02*
G75*
G03*
X17167460Y-3538220I-20000J0D01*
G01*
X17170000Y-5975000D02*
G75*
G03*
X17170000Y-5975000I-20000J0D01*
G01*
X17186207Y-5207000D02*
G75*
G03*
X17186207Y-5207000I-20000J0D01*
G01*
X17345000Y-6475000D02*
G75*
G03*
X17345000Y-6475000I-20000J0D01*
G01*
X17345260Y-3495040D02*
G75*
G03*
X17345260Y-3495040I-20000J0D01*
G01*
X17445000Y-6350000D02*
G75*
G03*
X17445000Y-6350000I-20000J0D01*
G01*
X17770000Y-4850000D02*
G75*
G03*
X17770000Y-4850000I-20000J0D01*
G01*
X17814700Y-3957500D02*
G75*
G03*
X17814700Y-3957500I-20000J0D01*
G01*
X17820000Y-5800000D02*
G75*
G03*
X17820000Y-5800000I-20000J0D01*
G01*
X17870000Y-4600000D02*
G75*
G03*
X17870000Y-4600000I-20000J0D01*
G01*
X17895000Y-6000000D02*
G75*
G03*
X17895000Y-6000000I-20000J0D01*
G01*
X17895000Y-6225000D02*
G75*
G03*
X17895000Y-6225000I-20000J0D01*
G01*
X18386660Y-3759200D02*
G75*
G03*
X18386660Y-3759200I-20000J0D01*
G01*
X18645000Y-4500000D02*
G75*
G03*
X18645000Y-4500000I-20000J0D01*
G01*
X18745000Y-5825000D02*
G75*
G03*
X18745000Y-5825000I-20000J0D01*
G01*
X18770000Y-7200000D02*
G75*
G03*
X18770000Y-7200000I-20000J0D01*
G01*
X18820000Y-4203850D02*
G75*
G03*
X18820000Y-4203850I-20000J0D01*
G01*
X18845000Y-4000000D02*
G75*
G03*
X18845000Y-4000000I-20000J0D01*
G01*
X18895000Y-7200000D02*
G75*
G03*
X18895000Y-7200000I-20000J0D01*
G01*
X18920000Y-3500000D02*
G75*
G03*
X18920000Y-3500000I-20000J0D01*
G01*
X18970000Y-4525000D02*
G75*
G03*
X18970000Y-4525000I-20000J0D01*
G01*
X18970670Y-4000000D02*
G75*
G03*
X18970670Y-4000000I-20000J0D01*
G01*
X18995000Y-5125000D02*
G75*
G03*
X18995000Y-5125000I-20000J0D01*
G01*
X19020000Y-6850000D02*
G75*
G03*
X19020000Y-6850000I-20000J0D01*
G01*
X19045000Y-5400000D02*
G75*
G03*
X19045000Y-5400000I-20000J0D01*
G01*
X19063320Y-4000000D02*
G75*
G03*
X19063320Y-4000000I-20000J0D01*
G01*
X19120000Y-4200000D02*
G75*
G03*
X19120000Y-4200000I-20000J0D01*
G01*
X19155889Y-4003880D02*
G75*
G03*
X19155889Y-4003880I-20000J0D01*
G01*
X19170000Y-2725000D02*
G75*
G03*
X19170000Y-2725000I-20000J0D01*
G01*
X19170000Y-2825000D02*
G75*
G03*
X19170000Y-2825000I-20000J0D01*
G01*
X19170000Y-2925000D02*
G75*
G03*
X19170000Y-2925000I-20000J0D01*
G01*
X19170000Y-3025000D02*
G75*
G03*
X19170000Y-3025000I-20000J0D01*
G01*
X19270000Y-3150000D02*
G75*
G03*
X19270000Y-3150000I-20000J0D01*
G01*
X19270000Y-3600000D02*
G75*
G03*
X19270000Y-3600000I-20000J0D01*
G01*
X19320000Y-6100000D02*
G75*
G03*
X19320000Y-6100000I-20000J0D01*
G01*
X19445000Y-5075000D02*
G75*
G03*
X19445000Y-5075000I-20000J0D01*
G01*
X19470000Y-4100000D02*
G75*
G03*
X19470000Y-4100000I-20000J0D01*
G01*
X19570000Y-2900000D02*
G75*
G03*
X19570000Y-2900000I-20000J0D01*
G01*
X19570000Y-3300000D02*
G75*
G03*
X19570000Y-3300000I-20000J0D01*
G01*
X19595000Y-4275000D02*
G75*
G03*
X19595000Y-4275000I-20000J0D01*
G01*
X19645000Y-6400000D02*
G75*
G03*
X19645000Y-6400000I-20000J0D01*
G01*
X19670000Y-5825000D02*
G75*
G03*
X19670000Y-5825000I-20000J0D01*
G01*
X19745000Y-3925000D02*
G75*
G03*
X19745000Y-3925000I-20000J0D01*
G01*
X20070500Y-5900000D02*
G75*
G03*
X20070500Y-5900000I-20000J0D01*
G01*
X20195000Y-3025000D02*
G75*
G03*
X20195000Y-3025000I-20000J0D01*
G01*
X20395000Y-4150000D02*
G75*
G03*
X20395000Y-4150000I-20000J0D01*
G01*
X20445000Y-5200000D02*
G75*
G03*
X20445000Y-5200000I-20000J0D01*
G01*
X20695000Y-3875000D02*
G75*
G03*
X20695000Y-3875000I-20000J0D01*
G01*
X20770000Y-3950000D02*
G75*
G03*
X20770000Y-3950000I-20000J0D01*
G01*
X20795000Y-4075000D02*
G75*
G03*
X20795000Y-4075000I-20000J0D01*
G01*
X20920000Y-3375000D02*
G75*
G03*
X20920000Y-3375000I-20000J0D01*
G01*
X20970000Y-2950000D02*
G75*
G03*
X20970000Y-2950000I-20000J0D01*
G01*
X21045000Y-3025000D02*
G75*
G03*
X21045000Y-3025000I-20000J0D01*
G01*
X21296500Y-2825500D02*
G75*
G03*
X21296500Y-2825500I-20000J0D01*
G01*
X21296500Y-3200500D02*
G75*
G03*
X21296500Y-3200500I-20000J0D01*
G01*
X21296500Y-3575500D02*
G75*
G03*
X21296500Y-3575500I-20000J0D01*
G01*
X21296500Y-3975500D02*
G75*
G03*
X21296500Y-3975500I-20000J0D01*
G01*
X21870000Y-2850000D02*
G75*
G03*
X21870000Y-2850000I-20000J0D01*
G01*
X22545500Y-3599500D02*
G75*
G03*
X22545500Y-3599500I-20000J0D01*
G01*
X22546500Y-2825500D02*
G75*
G03*
X22546500Y-2825500I-20000J0D01*
G01*
X22546500Y-3200500D02*
G75*
G03*
X22546500Y-3200500I-20000J0D01*
G01*
X22546500Y-3975500D02*
G75*
G03*
X22546500Y-3975500I-20000J0D01*
G01*
X22920000Y-3850000D02*
G75*
G03*
X22920000Y-3850000I-20000J0D01*
G01*
X22945000Y-3350000D02*
G75*
G03*
X22945000Y-3350000I-20000J0D01*
G01*
X23095000Y-2850000D02*
G75*
G03*
X23095000Y-2850000I-20000J0D01*
G01*
X23245000Y-5325000D02*
G75*
G03*
X23245000Y-5325000I-20000J0D01*
G01*
X23970000Y-5475000D02*
G75*
G03*
X23970000Y-5475000I-20000J0D01*
G01*
X24870000Y-5300000D02*
G75*
G03*
X24870000Y-5300000I-20000J0D01*
G01*
X25320000Y-6225000D02*
G75*
G03*
X25320000Y-6225000I-20000J0D01*
G01*
X25326250Y-4825000D02*
G75*
G03*
X25326250Y-4825000I-20000J0D01*
G01*
X25351250Y-5125000D02*
G75*
G03*
X25351250Y-5125000I-20000J0D01*
G01*
X25820000Y-6650000D02*
G75*
G03*
X25820000Y-6650000I-20000J0D01*
G01*
X25958345Y-6375000D02*
G75*
G03*
X25958345Y-6375000I-20000J0D01*
G01*
D14*
X16527000Y-2852940D02*
X16527000Y-2917940D01*
X16494500Y-2885440D02*
X16559500Y-2885440D01*
D11*
X16559500Y-2925440D02*
X16559500Y-2845440D01*
X16494500Y-2925440D02*
X16494500Y-2845440D01*
X16559500Y-2845440D02*
G75*
G03*
X16494500Y-2845440I-32500J0D01*
G01*
X16494500Y-2925440D02*
G75*
G03*
X16559500Y-2925440I32500J0D01*
G01*
D14*
X16527000Y-3269940D02*
X16527000Y-3334940D01*
X16494500Y-3302440D02*
X16559500Y-3302440D01*
D11*
X16559500Y-3357440D02*
X16559500Y-3247440D01*
X16494500Y-3357440D02*
X16494500Y-3247440D01*
X16559500Y-3247440D02*
G75*
G03*
X16494500Y-3247440I-32500J0D01*
G01*
X16494500Y-3357440D02*
G75*
G03*
X16559500Y-3357440I32500J0D01*
G01*
D14*
X17392000Y-2852940D02*
X17392000Y-2917940D01*
X17359500Y-2885440D02*
X17424500Y-2885440D01*
D11*
X17424500Y-2925440D02*
X17424500Y-2845440D01*
X17359500Y-2925440D02*
X17359500Y-2845440D01*
X17424500Y-2845440D02*
G75*
G03*
X17359500Y-2845440I-32500J0D01*
G01*
X17359500Y-2925440D02*
G75*
G03*
X17424500Y-2925440I32500J0D01*
G01*
D14*
X17392000Y-3269940D02*
X17392000Y-3334940D01*
X17359500Y-3302440D02*
X17424500Y-3302440D01*
D11*
X17424500Y-3357440D02*
X17424500Y-3247440D01*
X17359500Y-3357440D02*
X17359500Y-3247440D01*
X17424500Y-3247440D02*
G75*
G03*
X17359500Y-3247440I-32500J0D01*
G01*
X17359500Y-3357440D02*
G75*
G03*
X17424500Y-3357440I32500J0D01*
G01*
D15*
X21759237Y-4776515D02*
X21759237Y-4719040D01*
X21701763Y-4719040D01*
X21701763Y-4776515D01*
X21759237Y-4776515D01*
X21759237Y-5284515D02*
X21759237Y-5227040D01*
X21701763Y-5227040D01*
X21701763Y-5284515D01*
X21759237Y-5284515D01*
X22648237Y-4776515D02*
X22648237Y-4719040D01*
X22590763Y-4719040D01*
X22590763Y-4776515D01*
X22648237Y-4776515D01*
X22648237Y-5284515D02*
X22648237Y-5227040D01*
X22590763Y-5227040D01*
X22590763Y-5284515D01*
X22648237Y-5284515D01*
X22853737Y-4778737D02*
X22853737Y-4721263D01*
X22796263Y-4721263D01*
X22796263Y-4778737D01*
X22853737Y-4778737D01*
X22853737Y-5286737D02*
X22853737Y-5229263D01*
X22796263Y-5229263D01*
X22796263Y-5286737D01*
X22853737Y-5286737D01*
X23742737Y-4778737D02*
X23742737Y-4721263D01*
X23685263Y-4721263D01*
X23685263Y-4778737D01*
X23742737Y-4778737D01*
X23742737Y-5286737D02*
X23742737Y-5229263D01*
X23685263Y-5229263D01*
X23685263Y-5286737D01*
X23742737Y-5286737D01*
D16*
X23777000Y-4258450D02*
X23821450Y-4214000D01*
X23777000Y-4169550D01*
X23732550Y-4214000D01*
X23777000Y-4258450D01*
X23904000Y-4004450D02*
X23948450Y-3960000D01*
X23904000Y-3915550D01*
X23859550Y-3960000D01*
X23904000Y-4004450D01*
X24031000Y-4258450D02*
X24075450Y-4214000D01*
X24031000Y-4169550D01*
X23986550Y-4214000D01*
X24031000Y-4258450D01*
X24158000Y-4004450D02*
X24202450Y-3960000D01*
X24158000Y-3915550D01*
X24113550Y-3960000D01*
X24158000Y-4004450D01*
X24285000Y-4258450D02*
X24329450Y-4214000D01*
X24285000Y-4169550D01*
X24240550Y-4214000D01*
X24285000Y-4258450D01*
X24412000Y-4004450D02*
X24456450Y-3960000D01*
X24412000Y-3915550D01*
X24367550Y-3960000D01*
X24412000Y-4004450D01*
X24539000Y-4258450D02*
X24583450Y-4214000D01*
X24539000Y-4169550D01*
X24494550Y-4214000D01*
X24539000Y-4258450D01*
X24666000Y-4004450D02*
X24710450Y-3960000D01*
X24666000Y-3915550D01*
X24621550Y-3960000D01*
X24666000Y-4004450D01*
D17*
X10351250Y-4676750D02*
X10441250Y-4766750D01*
X10441250Y-4676750D02*
X10351250Y-4766750D01*
X10441250Y-4721750D02*
G75*
G03*
X10441250Y-4721750I-45000J0D01*
G01*
X10605250Y-4676750D02*
X10695250Y-4766750D01*
X10695250Y-4676750D02*
X10605250Y-4766750D01*
X10695250Y-4721750D02*
G75*
G03*
X10695250Y-4721750I-45000J0D01*
G01*
X10859250Y-4676750D02*
X10949250Y-4766750D01*
X10949250Y-4676750D02*
X10859250Y-4766750D01*
X10949250Y-4721750D02*
G75*
G03*
X10949250Y-4721750I-45000J0D01*
G01*
X11113250Y-4676750D02*
X11203250Y-4766750D01*
X11203250Y-4676750D02*
X11113250Y-4766750D01*
X11203250Y-4721750D02*
G75*
G03*
X11203250Y-4721750I-45000J0D01*
G01*
D18*
X12574600Y-6240700D02*
X12669600Y-6335700D01*
X12669600Y-6240700D02*
X12574600Y-6335700D01*
X12622100Y-6240700D02*
X12622100Y-6335700D01*
X12574600Y-6288200D02*
X12669600Y-6288200D01*
X12824600Y-6240700D02*
X12919600Y-6335700D01*
X12919600Y-6240700D02*
X12824600Y-6335700D01*
X12872100Y-6240700D02*
X12872100Y-6335700D01*
X12824600Y-6288200D02*
X12919600Y-6288200D01*
X13074600Y-6240700D02*
X13169600Y-6335700D01*
X13169600Y-6240700D02*
X13074600Y-6335700D01*
X13122100Y-6240700D02*
X13122100Y-6335700D01*
X13074600Y-6288200D02*
X13169600Y-6288200D01*
X13324600Y-6240700D02*
X13419600Y-6335700D01*
X13419600Y-6240700D02*
X13324600Y-6335700D01*
X13372100Y-6240700D02*
X13372100Y-6335700D01*
X13324600Y-6288200D02*
X13419600Y-6288200D01*
X14039500Y-6240700D02*
X14134500Y-6335700D01*
X14134500Y-6240700D02*
X14039500Y-6335700D01*
X14087000Y-6240700D02*
X14087000Y-6335700D01*
X14039500Y-6288200D02*
X14134500Y-6288200D01*
X14289500Y-6240700D02*
X14384500Y-6335700D01*
X14384500Y-6240700D02*
X14289500Y-6335700D01*
X14337000Y-6240700D02*
X14337000Y-6335700D01*
X14289500Y-6288200D02*
X14384500Y-6288200D01*
X14539500Y-6240700D02*
X14634500Y-6335700D01*
X14634500Y-6240700D02*
X14539500Y-6335700D01*
X14587000Y-6240700D02*
X14587000Y-6335700D01*
X14539500Y-6288200D02*
X14634500Y-6288200D01*
X14789500Y-6240700D02*
X14884500Y-6335700D01*
X14884500Y-6240700D02*
X14789500Y-6335700D01*
X14837000Y-6240700D02*
X14837000Y-6335700D01*
X14789500Y-6288200D02*
X14884500Y-6288200D01*
D10*
X14948500Y-5300000D02*
X15048500Y-5400000D01*
X15048500Y-5300000D02*
X14948500Y-5400000D01*
X15033856Y-5385356D02*
X15033856Y-5314644D01*
X14963144Y-5314644D01*
X14963144Y-5385356D01*
X15033856Y-5385356D01*
X15202500Y-5300000D02*
X15302500Y-5400000D01*
X15302500Y-5300000D02*
X15202500Y-5400000D01*
X15287856Y-5385356D02*
X15287856Y-5314644D01*
X15217144Y-5314644D01*
X15217144Y-5385356D01*
X15287856Y-5385356D01*
X15649660Y-2876580D02*
X15749660Y-2976580D01*
X15749660Y-2876580D02*
X15649660Y-2976580D01*
X15735016Y-2961936D02*
X15735016Y-2891224D01*
X15664304Y-2891224D01*
X15664304Y-2961936D01*
X15735016Y-2961936D01*
X15649660Y-3130580D02*
X15749660Y-3230580D01*
X15749660Y-3130580D02*
X15649660Y-3230580D01*
X15735016Y-3215936D02*
X15735016Y-3145224D01*
X15664304Y-3145224D01*
X15664304Y-3215936D01*
X15735016Y-3215936D01*
X16306680Y-6454160D02*
X16406680Y-6554160D01*
X16406680Y-6454160D02*
X16306680Y-6554160D01*
X16392036Y-6539516D02*
X16392036Y-6468804D01*
X16321324Y-6468804D01*
X16321324Y-6539516D01*
X16392036Y-6539516D01*
X16560680Y-6454160D02*
X16660680Y-6554160D01*
X16660680Y-6454160D02*
X16560680Y-6554160D01*
X16646036Y-6539516D02*
X16646036Y-6468804D01*
X16575324Y-6468804D01*
X16575324Y-6539516D01*
X16646036Y-6539516D01*
X16814680Y-6454160D02*
X16914680Y-6554160D01*
X16914680Y-6454160D02*
X16814680Y-6554160D01*
X16900036Y-6539516D02*
X16900036Y-6468804D01*
X16829324Y-6468804D01*
X16829324Y-6539516D01*
X16900036Y-6539516D01*
X18173500Y-4806500D02*
X18273500Y-4906500D01*
X18273500Y-4806500D02*
X18173500Y-4906500D01*
X18258856Y-4891856D02*
X18258856Y-4821144D01*
X18188144Y-4821144D01*
X18188144Y-4891856D01*
X18258856Y-4891856D01*
X18173500Y-5060500D02*
X18273500Y-5160500D01*
X18273500Y-5060500D02*
X18173500Y-5160500D01*
X18258856Y-5145856D02*
X18258856Y-5075144D01*
X18188144Y-5075144D01*
X18188144Y-5145856D01*
X18258856Y-5145856D01*
X18173500Y-5314500D02*
X18273500Y-5414500D01*
X18273500Y-5314500D02*
X18173500Y-5414500D01*
X18258856Y-5399856D02*
X18258856Y-5329144D01*
X18188144Y-5329144D01*
X18188144Y-5399856D01*
X18258856Y-5399856D01*
X18173500Y-5568500D02*
X18273500Y-5668500D01*
X18273500Y-5568500D02*
X18173500Y-5668500D01*
X18258856Y-5653856D02*
X18258856Y-5583144D01*
X18188144Y-5583144D01*
X18188144Y-5653856D01*
X18258856Y-5653856D01*
X18173500Y-5822500D02*
X18273500Y-5922500D01*
X18273500Y-5822500D02*
X18173500Y-5922500D01*
X18258856Y-5907856D02*
X18258856Y-5837144D01*
X18188144Y-5837144D01*
X18188144Y-5907856D01*
X18258856Y-5907856D01*
X18173500Y-6076500D02*
X18273500Y-6176500D01*
X18273500Y-6076500D02*
X18173500Y-6176500D01*
X18258856Y-6161856D02*
X18258856Y-6091144D01*
X18188144Y-6091144D01*
X18188144Y-6161856D01*
X18258856Y-6161856D01*
X18173500Y-6330500D02*
X18273500Y-6430500D01*
X18273500Y-6330500D02*
X18173500Y-6430500D01*
X18258856Y-6415856D02*
X18258856Y-6345144D01*
X18188144Y-6345144D01*
X18188144Y-6415856D01*
X18258856Y-6415856D01*
X18173500Y-6584500D02*
X18273500Y-6684500D01*
X18273500Y-6584500D02*
X18173500Y-6684500D01*
X18258856Y-6669856D02*
X18258856Y-6599144D01*
X18188144Y-6599144D01*
X18188144Y-6669856D01*
X18258856Y-6669856D01*
X18173500Y-6838500D02*
X18273500Y-6938500D01*
X18273500Y-6838500D02*
X18173500Y-6938500D01*
X18258856Y-6923856D02*
X18258856Y-6853144D01*
X18188144Y-6853144D01*
X18188144Y-6923856D01*
X18258856Y-6923856D01*
X18173500Y-7092500D02*
X18273500Y-7192500D01*
X18273500Y-7092500D02*
X18173500Y-7192500D01*
X18258856Y-7177856D02*
X18258856Y-7107144D01*
X18188144Y-7107144D01*
X18188144Y-7177856D01*
X18258856Y-7177856D01*
X18427500Y-4806500D02*
X18527500Y-4906500D01*
X18527500Y-4806500D02*
X18427500Y-4906500D01*
X18512856Y-4891856D02*
X18512856Y-4821144D01*
X18442144Y-4821144D01*
X18442144Y-4891856D01*
X18512856Y-4891856D01*
X18427500Y-5060500D02*
X18527500Y-5160500D01*
X18527500Y-5060500D02*
X18427500Y-5160500D01*
X18512856Y-5145856D02*
X18512856Y-5075144D01*
X18442144Y-5075144D01*
X18442144Y-5145856D01*
X18512856Y-5145856D01*
X18427500Y-5314500D02*
X18527500Y-5414500D01*
X18527500Y-5314500D02*
X18427500Y-5414500D01*
X18512856Y-5399856D02*
X18512856Y-5329144D01*
X18442144Y-5329144D01*
X18442144Y-5399856D01*
X18512856Y-5399856D01*
X18427500Y-5568500D02*
X18527500Y-5668500D01*
X18527500Y-5568500D02*
X18427500Y-5668500D01*
X18512856Y-5653856D02*
X18512856Y-5583144D01*
X18442144Y-5583144D01*
X18442144Y-5653856D01*
X18512856Y-5653856D01*
X18427500Y-5822500D02*
X18527500Y-5922500D01*
X18527500Y-5822500D02*
X18427500Y-5922500D01*
X18512856Y-5907856D02*
X18512856Y-5837144D01*
X18442144Y-5837144D01*
X18442144Y-5907856D01*
X18512856Y-5907856D01*
X18427500Y-6076500D02*
X18527500Y-6176500D01*
X18527500Y-6076500D02*
X18427500Y-6176500D01*
X18512856Y-6161856D02*
X18512856Y-6091144D01*
X18442144Y-6091144D01*
X18442144Y-6161856D01*
X18512856Y-6161856D01*
X18427500Y-6330500D02*
X18527500Y-6430500D01*
X18527500Y-6330500D02*
X18427500Y-6430500D01*
X18512856Y-6415856D02*
X18512856Y-6345144D01*
X18442144Y-6345144D01*
X18442144Y-6415856D01*
X18512856Y-6415856D01*
X18427500Y-6584500D02*
X18527500Y-6684500D01*
X18527500Y-6584500D02*
X18427500Y-6684500D01*
X18512856Y-6669856D02*
X18512856Y-6599144D01*
X18442144Y-6599144D01*
X18442144Y-6669856D01*
X18512856Y-6669856D01*
X18427500Y-6838500D02*
X18527500Y-6938500D01*
X18527500Y-6838500D02*
X18427500Y-6938500D01*
X18512856Y-6923856D02*
X18512856Y-6853144D01*
X18442144Y-6853144D01*
X18442144Y-6923856D01*
X18512856Y-6923856D01*
X18427500Y-7092500D02*
X18527500Y-7192500D01*
X18527500Y-7092500D02*
X18427500Y-7192500D01*
X18512856Y-7177856D02*
X18512856Y-7107144D01*
X18442144Y-7107144D01*
X18442144Y-7177856D01*
X18512856Y-7177856D01*
X19447500Y-7000000D02*
X19547500Y-7100000D01*
X19547500Y-7000000D02*
X19447500Y-7100000D01*
X19532856Y-7085356D02*
X19532856Y-7014644D01*
X19462144Y-7014644D01*
X19462144Y-7085356D01*
X19532856Y-7085356D01*
X19700000Y-6600000D02*
X19800000Y-6700000D01*
X19800000Y-6600000D02*
X19700000Y-6700000D01*
X19785356Y-6685356D02*
X19785356Y-6614644D01*
X19714644Y-6614644D01*
X19714644Y-6685356D01*
X19785356Y-6685356D01*
X19701500Y-7000000D02*
X19801500Y-7100000D01*
X19801500Y-7000000D02*
X19701500Y-7100000D01*
X19786856Y-7085356D02*
X19786856Y-7014644D01*
X19716144Y-7014644D01*
X19716144Y-7085356D01*
X19786856Y-7085356D01*
X19954000Y-6600000D02*
X20054000Y-6700000D01*
X20054000Y-6600000D02*
X19954000Y-6700000D01*
X20039356Y-6685356D02*
X20039356Y-6614644D01*
X19968644Y-6614644D01*
X19968644Y-6685356D01*
X20039356Y-6685356D01*
X19955500Y-7000000D02*
X20055500Y-7100000D01*
X20055500Y-7000000D02*
X19955500Y-7100000D01*
X20040856Y-7085356D02*
X20040856Y-7014644D01*
X19970144Y-7014644D01*
X19970144Y-7085356D01*
X20040856Y-7085356D01*
X20400000Y-5650000D02*
X20500000Y-5750000D01*
X20500000Y-5650000D02*
X20400000Y-5750000D01*
X20485356Y-5735356D02*
X20485356Y-5664644D01*
X20414644Y-5664644D01*
X20414644Y-5735356D01*
X20485356Y-5735356D01*
X20400000Y-5904000D02*
X20500000Y-6004000D01*
X20500000Y-5904000D02*
X20400000Y-6004000D01*
X20485356Y-5989356D02*
X20485356Y-5918644D01*
X20414644Y-5918644D01*
X20414644Y-5989356D01*
X20485356Y-5989356D01*
X23444500Y-5824000D02*
X23544500Y-5924000D01*
X23544500Y-5824000D02*
X23444500Y-5924000D01*
X23529856Y-5909356D02*
X23529856Y-5838644D01*
X23459144Y-5838644D01*
X23459144Y-5909356D01*
X23529856Y-5909356D01*
X23698500Y-5824000D02*
X23798500Y-5924000D01*
X23798500Y-5824000D02*
X23698500Y-5924000D01*
X23783856Y-5909356D02*
X23783856Y-5838644D01*
X23713144Y-5838644D01*
X23713144Y-5909356D01*
X23783856Y-5909356D01*
X23952500Y-5824000D02*
X24052500Y-5924000D01*
X24052500Y-5824000D02*
X23952500Y-5924000D01*
X24037856Y-5909356D02*
X24037856Y-5838644D01*
X23967144Y-5838644D01*
X23967144Y-5909356D01*
X24037856Y-5909356D01*
X25450000Y-5205000D02*
X25550000Y-5305000D01*
X25550000Y-5205000D02*
X25450000Y-5305000D01*
X25535356Y-5290356D02*
X25535356Y-5219644D01*
X25464644Y-5219644D01*
X25464644Y-5290356D01*
X25535356Y-5290356D01*
X25450000Y-5459000D02*
X25550000Y-5559000D01*
X25550000Y-5459000D02*
X25450000Y-5559000D01*
X25535356Y-5544356D02*
X25535356Y-5473644D01*
X25464644Y-5473644D01*
X25464644Y-5544356D01*
X25535356Y-5544356D01*
D19*
X9588900Y-3063400D02*
X9690500Y-3165000D01*
X9690500Y-3063400D02*
X9588900Y-3165000D01*
X9639700Y-3165000D02*
X9690500Y-3114200D01*
X9639700Y-3063400D01*
X9588900Y-3114200D01*
X9639700Y-3165000D01*
X9842900Y-3063400D02*
X9944500Y-3165000D01*
X9944500Y-3063400D02*
X9842900Y-3165000D01*
X9893700Y-3165000D02*
X9944500Y-3114200D01*
X9893700Y-3063400D01*
X9842900Y-3114200D01*
X9893700Y-3165000D01*
X10096900Y-3063400D02*
X10198500Y-3165000D01*
X10198500Y-3063400D02*
X10096900Y-3165000D01*
X10147700Y-3165000D02*
X10198500Y-3114200D01*
X10147700Y-3063400D01*
X10096900Y-3114200D01*
X10147700Y-3165000D01*
X23540780Y-2862720D02*
X23642380Y-2964320D01*
X23642380Y-2862720D02*
X23540780Y-2964320D01*
X23591580Y-2964320D02*
X23642380Y-2913520D01*
X23591580Y-2862720D01*
X23540780Y-2913520D01*
X23591580Y-2964320D01*
X23792240Y-2862720D02*
X23893840Y-2964320D01*
X23893840Y-2862720D02*
X23792240Y-2964320D01*
X23843040Y-2964320D02*
X23893840Y-2913520D01*
X23843040Y-2862720D01*
X23792240Y-2913520D01*
X23843040Y-2964320D01*
X24551700Y-2862720D02*
X24653300Y-2964320D01*
X24653300Y-2862720D02*
X24551700Y-2964320D01*
X24602500Y-2964320D02*
X24653300Y-2913520D01*
X24602500Y-2862720D01*
X24551700Y-2913520D01*
X24602500Y-2964320D01*
X24803160Y-2862720D02*
X24904760Y-2964320D01*
X24904760Y-2862720D02*
X24803160Y-2964320D01*
X24853960Y-2964320D02*
X24904760Y-2913520D01*
X24853960Y-2862720D01*
X24803160Y-2913520D01*
X24853960Y-2964320D01*
D20*
X11175000Y-3762900D02*
X11175000Y-3912900D01*
X11100000Y-3837900D02*
X11250000Y-3837900D01*
X11250000Y-3837900D02*
G75*
G03*
X11250000Y-3837900I-75000J0D01*
G01*
X11420000Y-2767900D02*
X11420000Y-2917900D01*
X11345000Y-2842900D02*
X11495000Y-2842900D01*
X11495000Y-2842900D02*
G75*
G03*
X11495000Y-2842900I-75000J0D01*
G01*
X11420000Y-3982900D02*
X11420000Y-4132900D01*
X11345000Y-4057900D02*
X11495000Y-4057900D01*
X11495000Y-4057900D02*
G75*
G03*
X11495000Y-4057900I-75000J0D01*
G01*
X11670000Y-2767900D02*
X11670000Y-2917900D01*
X11595000Y-2842900D02*
X11745000Y-2842900D01*
X11745000Y-2842900D02*
G75*
G03*
X11745000Y-2842900I-75000J0D01*
G01*
X11920000Y-3762900D02*
X11920000Y-3912900D01*
X11845000Y-3837900D02*
X11995000Y-3837900D01*
X11995000Y-3837900D02*
G75*
G03*
X11995000Y-3837900I-75000J0D01*
G01*
X12170000Y-2767900D02*
X12170000Y-2917900D01*
X12095000Y-2842900D02*
X12245000Y-2842900D01*
X12245000Y-2842900D02*
G75*
G03*
X12245000Y-2842900I-75000J0D01*
G01*
X12420000Y-2767900D02*
X12420000Y-2917900D01*
X12345000Y-2842900D02*
X12495000Y-2842900D01*
X12495000Y-2842900D02*
G75*
G03*
X12495000Y-2842900I-75000J0D01*
G01*
X12420000Y-3982900D02*
X12420000Y-4132900D01*
X12345000Y-4057900D02*
X12495000Y-4057900D01*
X12495000Y-4057900D02*
G75*
G03*
X12495000Y-4057900I-75000J0D01*
G01*
X12665000Y-3762900D02*
X12665000Y-3912900D01*
X12590000Y-3837900D02*
X12740000Y-3837900D01*
X12740000Y-3837900D02*
G75*
G03*
X12740000Y-3837900I-75000J0D01*
G01*
X13415200Y-3756300D02*
X13415200Y-3906300D01*
X13340200Y-3831300D02*
X13490200Y-3831300D01*
X13490200Y-3831300D02*
G75*
G03*
X13490200Y-3831300I-75000J0D01*
G01*
X13660200Y-2761300D02*
X13660200Y-2911300D01*
X13585200Y-2836300D02*
X13735200Y-2836300D01*
X13735200Y-2836300D02*
G75*
G03*
X13735200Y-2836300I-75000J0D01*
G01*
X13660200Y-3976300D02*
X13660200Y-4126300D01*
X13585200Y-4051300D02*
X13735200Y-4051300D01*
X13735200Y-4051300D02*
G75*
G03*
X13735200Y-4051300I-75000J0D01*
G01*
X13910200Y-2761300D02*
X13910200Y-2911300D01*
X13835200Y-2836300D02*
X13985200Y-2836300D01*
X13985200Y-2836300D02*
G75*
G03*
X13985200Y-2836300I-75000J0D01*
G01*
X14160200Y-3756300D02*
X14160200Y-3906300D01*
X14085200Y-3831300D02*
X14235200Y-3831300D01*
X14235200Y-3831300D02*
G75*
G03*
X14235200Y-3831300I-75000J0D01*
G01*
X14410200Y-2761300D02*
X14410200Y-2911300D01*
X14335200Y-2836300D02*
X14485200Y-2836300D01*
X14485200Y-2836300D02*
G75*
G03*
X14485200Y-2836300I-75000J0D01*
G01*
X14660200Y-2761300D02*
X14660200Y-2911300D01*
X14585200Y-2836300D02*
X14735200Y-2836300D01*
X14735200Y-2836300D02*
G75*
G03*
X14735200Y-2836300I-75000J0D01*
G01*
X14660200Y-3976300D02*
X14660200Y-4126300D01*
X14585200Y-4051300D02*
X14735200Y-4051300D01*
X14735200Y-4051300D02*
G75*
G03*
X14735200Y-4051300I-75000J0D01*
G01*
X14905200Y-3756300D02*
X14905200Y-3906300D01*
X14830200Y-3831300D02*
X14980200Y-3831300D01*
X14980200Y-3831300D02*
G75*
G03*
X14980200Y-3831300I-75000J0D01*
G01*
D21*
X21281569Y-4869569D02*
X21281569Y-4756431D01*
X21168431Y-4756431D01*
X21168431Y-4869569D01*
X21281569Y-4869569D01*
X21305000Y-4813000D02*
G75*
G03*
X21305000Y-4813000I-80000J0D01*
G01*
X21281569Y-6393569D02*
X21281569Y-6280431D01*
X21168431Y-6280431D01*
X21168431Y-6393569D01*
X21281569Y-6393569D01*
X21305000Y-6337000D02*
G75*
G03*
X21305000Y-6337000I-80000J0D01*
G01*
X21881569Y-6776569D02*
X21881569Y-6663431D01*
X21768431Y-6663431D01*
X21768431Y-6776569D01*
X21881569Y-6776569D01*
X21905000Y-6720000D02*
G75*
G03*
X21905000Y-6720000I-80000J0D01*
G01*
X23405569Y-6776569D02*
X23405569Y-6663431D01*
X23292431Y-6663431D01*
X23292431Y-6776569D01*
X23405569Y-6776569D01*
X23429000Y-6720000D02*
G75*
G03*
X23429000Y-6720000I-80000J0D01*
G01*
D22*
X23434100Y-3796170D02*
X23516650Y-3713620D01*
X23434100Y-3631070D01*
X23351550Y-3713620D01*
X23434100Y-3796170D01*
X23516650Y-3713620D02*
G75*
G03*
X23516650Y-3713620I-82550J0D01*
G01*
X25008900Y-3796170D02*
X25091450Y-3713620D01*
X25008900Y-3631070D01*
X24926350Y-3713620D01*
X25008900Y-3796170D01*
X25091450Y-3713620D02*
G75*
G03*
X25091450Y-3713620I-82550J0D01*
G01*
D23*
X8500000Y-2840000D02*
X8500000Y-3160000D01*
X8340000Y-3000000D02*
X8660000Y-3000000D01*
X8613138Y-3113138D02*
X8613138Y-2886862D01*
X8386862Y-2886862D01*
X8386862Y-3113138D01*
X8613138Y-3113138D01*
X8525000Y-6890000D02*
X8525000Y-7210000D01*
X8365000Y-7050000D02*
X8685000Y-7050000D01*
X8638138Y-7163138D02*
X8638138Y-6936862D01*
X8411862Y-6936862D01*
X8411862Y-7163138D01*
X8638138Y-7163138D01*
X25800000Y-2840000D02*
X25800000Y-3160000D01*
X25640000Y-3000000D02*
X25960000Y-3000000D01*
X25913138Y-3113138D02*
X25913138Y-2886862D01*
X25686862Y-2886862D01*
X25686862Y-3113138D01*
X25913138Y-3113138D01*
X25800000Y-6890000D02*
X25800000Y-7210000D01*
X25640000Y-7050000D02*
X25960000Y-7050000D01*
X25913138Y-7163138D02*
X25913138Y-6936862D01*
X25686862Y-6936862D01*
X25686862Y-7163138D01*
X25913138Y-7163138D01*
D11*
X8352619Y-7765476D02*
X8352619Y-7565476D01*
X8400238Y-7565476D01*
X8428810Y-7575000D01*
X8447857Y-7594048D01*
X8457381Y-7613095D01*
X8466905Y-7651190D01*
X8466905Y-7679762D01*
X8457381Y-7717857D01*
X8447857Y-7736905D01*
X8428810Y-7755952D01*
X8400238Y-7765476D01*
X8352619Y-7765476D01*
X8552619Y-7765476D02*
X8552619Y-7632143D01*
X8552619Y-7670238D02*
X8562143Y-7651190D01*
X8571667Y-7641667D01*
X8590714Y-7632143D01*
X8609762Y-7632143D01*
X8676429Y-7765476D02*
X8676429Y-7632143D01*
X8676429Y-7565476D02*
X8666905Y-7575000D01*
X8676429Y-7584524D01*
X8685952Y-7575000D01*
X8676429Y-7565476D01*
X8676429Y-7584524D01*
X8800238Y-7765476D02*
X8781190Y-7755952D01*
X8771667Y-7736905D01*
X8771667Y-7565476D01*
X8905000Y-7765476D02*
X8885952Y-7755952D01*
X8876429Y-7736905D01*
X8876429Y-7565476D01*
X9133571Y-7765476D02*
X9133571Y-7565476D01*
X9200238Y-7708333D01*
X9266905Y-7565476D01*
X9266905Y-7765476D01*
X9447857Y-7765476D02*
X9447857Y-7660714D01*
X9438333Y-7641667D01*
X9419286Y-7632143D01*
X9381190Y-7632143D01*
X9362143Y-7641667D01*
X9447857Y-7755952D02*
X9428810Y-7765476D01*
X9381190Y-7765476D01*
X9362143Y-7755952D01*
X9352619Y-7736905D01*
X9352619Y-7717857D01*
X9362143Y-7698809D01*
X9381190Y-7689286D01*
X9428810Y-7689286D01*
X9447857Y-7679762D01*
X9543095Y-7632143D02*
X9543095Y-7832143D01*
X9543095Y-7641667D02*
X9562143Y-7632143D01*
X9600238Y-7632143D01*
X9619286Y-7641667D01*
X9628810Y-7651190D01*
X9638333Y-7670238D01*
X9638333Y-7727381D01*
X9628810Y-7746428D01*
X9619286Y-7755952D01*
X9600238Y-7765476D01*
X9562143Y-7765476D01*
X9543095Y-7755952D01*
X9724048Y-7746428D02*
X9733571Y-7755952D01*
X9724048Y-7765476D01*
X9714524Y-7755952D01*
X9724048Y-7746428D01*
X9724048Y-7765476D01*
X9724048Y-7641667D02*
X9733571Y-7651190D01*
X9724048Y-7660714D01*
X9714524Y-7651190D01*
X9724048Y-7641667D01*
X9724048Y-7660714D01*
D12*
X8065000Y-8080000D02*
X8095000Y-8110000D01*
X8095000Y-8080000D02*
X8065000Y-8110000D01*
D11*
X8390714Y-7985476D02*
X8409762Y-7985476D01*
X8428810Y-7995000D01*
X8438333Y-8004524D01*
X8447857Y-8023571D01*
X8457381Y-8061667D01*
X8457381Y-8109286D01*
X8447857Y-8147381D01*
X8438333Y-8166428D01*
X8428810Y-8175952D01*
X8409762Y-8185476D01*
X8390714Y-8185476D01*
X8371667Y-8175952D01*
X8362143Y-8166428D01*
X8352619Y-8147381D01*
X8343095Y-8109286D01*
X8343095Y-8061667D01*
X8352619Y-8023571D01*
X8362143Y-8004524D01*
X8371667Y-7995000D01*
X8390714Y-7985476D01*
X8543095Y-8166428D02*
X8552619Y-8175952D01*
X8543095Y-8185476D01*
X8533571Y-8175952D01*
X8543095Y-8166428D01*
X8543095Y-8185476D01*
X8619286Y-7985476D02*
X8743095Y-7985476D01*
X8676429Y-8061667D01*
X8705000Y-8061667D01*
X8724048Y-8071190D01*
X8733571Y-8080714D01*
X8743095Y-8099762D01*
X8743095Y-8147381D01*
X8733571Y-8166428D01*
X8724048Y-8175952D01*
X8705000Y-8185476D01*
X8647857Y-8185476D01*
X8628810Y-8175952D01*
X8619286Y-8166428D01*
X8866905Y-7985476D02*
X8885952Y-7985476D01*
X8905000Y-7995000D01*
X8914524Y-8004524D01*
X8924048Y-8023571D01*
X8933571Y-8061667D01*
X8933571Y-8109286D01*
X8924048Y-8147381D01*
X8914524Y-8166428D01*
X8905000Y-8175952D01*
X8885952Y-8185476D01*
X8866905Y-8185476D01*
X8847857Y-8175952D01*
X8838333Y-8166428D01*
X8828810Y-8147381D01*
X8819286Y-8109286D01*
X8819286Y-8061667D01*
X8828810Y-8023571D01*
X8838333Y-8004524D01*
X8847857Y-7995000D01*
X8866905Y-7985476D01*
X9057381Y-7985476D02*
X9076429Y-7985476D01*
X9095476Y-7995000D01*
X9105000Y-8004524D01*
X9114524Y-8023571D01*
X9124048Y-8061667D01*
X9124048Y-8109286D01*
X9114524Y-8147381D01*
X9105000Y-8166428D01*
X9095476Y-8175952D01*
X9076429Y-8185476D01*
X9057381Y-8185476D01*
X9038333Y-8175952D01*
X9028810Y-8166428D01*
X9019286Y-8147381D01*
X9009762Y-8109286D01*
X9009762Y-8061667D01*
X9019286Y-8023571D01*
X9028810Y-8004524D01*
X9038333Y-7995000D01*
X9057381Y-7985476D01*
X9209762Y-8185476D02*
X9209762Y-8052143D01*
X9209762Y-8071190D02*
X9219286Y-8061667D01*
X9238333Y-8052143D01*
X9266905Y-8052143D01*
X9285952Y-8061667D01*
X9295476Y-8080714D01*
X9295476Y-8185476D01*
X9295476Y-8080714D02*
X9305000Y-8061667D01*
X9324048Y-8052143D01*
X9352619Y-8052143D01*
X9371667Y-8061667D01*
X9381190Y-8080714D01*
X9381190Y-8185476D01*
X9476429Y-8185476D02*
X9476429Y-8052143D01*
X9476429Y-8071190D02*
X9485952Y-8061667D01*
X9505000Y-8052143D01*
X9533571Y-8052143D01*
X9552619Y-8061667D01*
X9562143Y-8080714D01*
X9562143Y-8185476D01*
X9562143Y-8080714D02*
X9571667Y-8061667D01*
X9590714Y-8052143D01*
X9619286Y-8052143D01*
X9638333Y-8061667D01*
X9647857Y-8080714D01*
X9647857Y-8185476D01*
X10038333Y-7975952D02*
X9866905Y-8233095D01*
X10295476Y-7985476D02*
X10314524Y-7985476D01*
X10333571Y-7995000D01*
X10343095Y-8004524D01*
X10352619Y-8023571D01*
X10362143Y-8061667D01*
X10362143Y-8109286D01*
X10352619Y-8147381D01*
X10343095Y-8166428D01*
X10333571Y-8175952D01*
X10314524Y-8185476D01*
X10295476Y-8185476D01*
X10276429Y-8175952D01*
X10266905Y-8166428D01*
X10257381Y-8147381D01*
X10247857Y-8109286D01*
X10247857Y-8061667D01*
X10257381Y-8023571D01*
X10266905Y-8004524D01*
X10276429Y-7995000D01*
X10295476Y-7985476D01*
X10447857Y-8166428D02*
X10457381Y-8175952D01*
X10447857Y-8185476D01*
X10438333Y-8175952D01*
X10447857Y-8166428D01*
X10447857Y-8185476D01*
X10581190Y-7985476D02*
X10600238Y-7985476D01*
X10619286Y-7995000D01*
X10628810Y-8004524D01*
X10638333Y-8023571D01*
X10647857Y-8061667D01*
X10647857Y-8109286D01*
X10638333Y-8147381D01*
X10628810Y-8166428D01*
X10619286Y-8175952D01*
X10600238Y-8185476D01*
X10581190Y-8185476D01*
X10562143Y-8175952D01*
X10552619Y-8166428D01*
X10543095Y-8147381D01*
X10533571Y-8109286D01*
X10533571Y-8061667D01*
X10543095Y-8023571D01*
X10552619Y-8004524D01*
X10562143Y-7995000D01*
X10581190Y-7985476D01*
X10838333Y-8185476D02*
X10724048Y-8185476D01*
X10781190Y-8185476D02*
X10781190Y-7985476D01*
X10762143Y-8014048D01*
X10743095Y-8033095D01*
X10724048Y-8042619D01*
X11028810Y-8185476D02*
X10914524Y-8185476D01*
X10971667Y-8185476D02*
X10971667Y-7985476D01*
X10952619Y-8014048D01*
X10933571Y-8033095D01*
X10914524Y-8042619D01*
X11143095Y-8071190D02*
X11124048Y-8061667D01*
X11114524Y-8052143D01*
X11105000Y-8033095D01*
X11105000Y-8023571D01*
X11114524Y-8004524D01*
X11124048Y-7995000D01*
X11143095Y-7985476D01*
X11181190Y-7985476D01*
X11200238Y-7995000D01*
X11209762Y-8004524D01*
X11219286Y-8023571D01*
X11219286Y-8033095D01*
X11209762Y-8052143D01*
X11200238Y-8061667D01*
X11181190Y-8071190D01*
X11143095Y-8071190D01*
X11124048Y-8080714D01*
X11114524Y-8090238D01*
X11105000Y-8109286D01*
X11105000Y-8147381D01*
X11114524Y-8166428D01*
X11124048Y-8175952D01*
X11143095Y-8185476D01*
X11181190Y-8185476D01*
X11200238Y-8175952D01*
X11209762Y-8166428D01*
X11219286Y-8147381D01*
X11219286Y-8109286D01*
X11209762Y-8090238D01*
X11200238Y-8080714D01*
X11181190Y-8071190D01*
X11295476Y-7985476D02*
X11295476Y-8023571D01*
X11371667Y-7985476D02*
X11371667Y-8023571D01*
X11666905Y-8261667D02*
X11657381Y-8252143D01*
X11638333Y-8223571D01*
X11628809Y-8204524D01*
X11619286Y-8175952D01*
X11609762Y-8128333D01*
X11609762Y-8090238D01*
X11619286Y-8042619D01*
X11628809Y-8014048D01*
X11638333Y-7995000D01*
X11657381Y-7966428D01*
X11666905Y-7956905D01*
X11771667Y-8071190D02*
X11752619Y-8061667D01*
X11743095Y-8052143D01*
X11733571Y-8033095D01*
X11733571Y-8023571D01*
X11743095Y-8004524D01*
X11752619Y-7995000D01*
X11771667Y-7985476D01*
X11809762Y-7985476D01*
X11828809Y-7995000D01*
X11838333Y-8004524D01*
X11847857Y-8023571D01*
X11847857Y-8033095D01*
X11838333Y-8052143D01*
X11828809Y-8061667D01*
X11809762Y-8071190D01*
X11771667Y-8071190D01*
X11752619Y-8080714D01*
X11743095Y-8090238D01*
X11733571Y-8109286D01*
X11733571Y-8147381D01*
X11743095Y-8166428D01*
X11752619Y-8175952D01*
X11771667Y-8185476D01*
X11809762Y-8185476D01*
X11828809Y-8175952D01*
X11838333Y-8166428D01*
X11847857Y-8147381D01*
X11847857Y-8109286D01*
X11838333Y-8090238D01*
X11828809Y-8080714D01*
X11809762Y-8071190D01*
X12085952Y-8185476D02*
X12085952Y-7985476D01*
X12171667Y-8185476D02*
X12171667Y-8080714D01*
X12162143Y-8061667D01*
X12143095Y-8052143D01*
X12114524Y-8052143D01*
X12095476Y-8061667D01*
X12085952Y-8071190D01*
X12295476Y-8185476D02*
X12276428Y-8175952D01*
X12266905Y-8166428D01*
X12257381Y-8147381D01*
X12257381Y-8090238D01*
X12266905Y-8071190D01*
X12276428Y-8061667D01*
X12295476Y-8052143D01*
X12324048Y-8052143D01*
X12343095Y-8061667D01*
X12352619Y-8071190D01*
X12362143Y-8090238D01*
X12362143Y-8147381D01*
X12352619Y-8166428D01*
X12343095Y-8175952D01*
X12324048Y-8185476D01*
X12295476Y-8185476D01*
X12476428Y-8185476D02*
X12457381Y-8175952D01*
X12447857Y-8156905D01*
X12447857Y-7985476D01*
X12628809Y-8175952D02*
X12609762Y-8185476D01*
X12571667Y-8185476D01*
X12552619Y-8175952D01*
X12543095Y-8156905D01*
X12543095Y-8080714D01*
X12552619Y-8061667D01*
X12571667Y-8052143D01*
X12609762Y-8052143D01*
X12628809Y-8061667D01*
X12638333Y-8080714D01*
X12638333Y-8099762D01*
X12543095Y-8118809D01*
X12714524Y-8175952D02*
X12733571Y-8185476D01*
X12771667Y-8185476D01*
X12790714Y-8175952D01*
X12800238Y-8156905D01*
X12800238Y-8147381D01*
X12790714Y-8128333D01*
X12771667Y-8118809D01*
X12743095Y-8118809D01*
X12724048Y-8109286D01*
X12714524Y-8090238D01*
X12714524Y-8080714D01*
X12724048Y-8061667D01*
X12743095Y-8052143D01*
X12771667Y-8052143D01*
X12790714Y-8061667D01*
X12866905Y-8261667D02*
X12876428Y-8252143D01*
X12895476Y-8223571D01*
X12905000Y-8204524D01*
X12914524Y-8175952D01*
X12924048Y-8128333D01*
X12924048Y-8090238D01*
X12914524Y-8042619D01*
X12905000Y-8014048D01*
X12895476Y-7995000D01*
X12876428Y-7966428D01*
X12866905Y-7956905D01*
D13*
X8095000Y-8359000D02*
G75*
G03*
X8095000Y-8359000I-20000J0D01*
G01*
D11*
X8390714Y-8249476D02*
X8409762Y-8249476D01*
X8428810Y-8259000D01*
X8438333Y-8268524D01*
X8447857Y-8287571D01*
X8457381Y-8325667D01*
X8457381Y-8373286D01*
X8447857Y-8411381D01*
X8438333Y-8430429D01*
X8428810Y-8439952D01*
X8409762Y-8449476D01*
X8390714Y-8449476D01*
X8371667Y-8439952D01*
X8362143Y-8430429D01*
X8352619Y-8411381D01*
X8343095Y-8373286D01*
X8343095Y-8325667D01*
X8352619Y-8287571D01*
X8362143Y-8268524D01*
X8371667Y-8259000D01*
X8390714Y-8249476D01*
X8543095Y-8430429D02*
X8552619Y-8439952D01*
X8543095Y-8449476D01*
X8533571Y-8439952D01*
X8543095Y-8430429D01*
X8543095Y-8449476D01*
X8724048Y-8316143D02*
X8724048Y-8449476D01*
X8676429Y-8239952D02*
X8628810Y-8382809D01*
X8752619Y-8382809D01*
X8866905Y-8249476D02*
X8885952Y-8249476D01*
X8905000Y-8259000D01*
X8914524Y-8268524D01*
X8924048Y-8287571D01*
X8933571Y-8325667D01*
X8933571Y-8373286D01*
X8924048Y-8411381D01*
X8914524Y-8430429D01*
X8905000Y-8439952D01*
X8885952Y-8449476D01*
X8866905Y-8449476D01*
X8847857Y-8439952D01*
X8838333Y-8430429D01*
X8828810Y-8411381D01*
X8819286Y-8373286D01*
X8819286Y-8325667D01*
X8828810Y-8287571D01*
X8838333Y-8268524D01*
X8847857Y-8259000D01*
X8866905Y-8249476D01*
X9057381Y-8249476D02*
X9076429Y-8249476D01*
X9095476Y-8259000D01*
X9105000Y-8268524D01*
X9114524Y-8287571D01*
X9124048Y-8325667D01*
X9124048Y-8373286D01*
X9114524Y-8411381D01*
X9105000Y-8430429D01*
X9095476Y-8439952D01*
X9076429Y-8449476D01*
X9057381Y-8449476D01*
X9038333Y-8439952D01*
X9028810Y-8430429D01*
X9019286Y-8411381D01*
X9009762Y-8373286D01*
X9009762Y-8325667D01*
X9019286Y-8287571D01*
X9028810Y-8268524D01*
X9038333Y-8259000D01*
X9057381Y-8249476D01*
X9209762Y-8449476D02*
X9209762Y-8316143D01*
X9209762Y-8335190D02*
X9219286Y-8325667D01*
X9238333Y-8316143D01*
X9266905Y-8316143D01*
X9285952Y-8325667D01*
X9295476Y-8344714D01*
X9295476Y-8449476D01*
X9295476Y-8344714D02*
X9305000Y-8325667D01*
X9324048Y-8316143D01*
X9352619Y-8316143D01*
X9371667Y-8325667D01*
X9381190Y-8344714D01*
X9381190Y-8449476D01*
X9476429Y-8449476D02*
X9476429Y-8316143D01*
X9476429Y-8335190D02*
X9485952Y-8325667D01*
X9505000Y-8316143D01*
X9533571Y-8316143D01*
X9552619Y-8325667D01*
X9562143Y-8344714D01*
X9562143Y-8449476D01*
X9562143Y-8344714D02*
X9571667Y-8325667D01*
X9590714Y-8316143D01*
X9619286Y-8316143D01*
X9638333Y-8325667D01*
X9647857Y-8344714D01*
X9647857Y-8449476D01*
X10038333Y-8239952D02*
X9866905Y-8497095D01*
X10295476Y-8249476D02*
X10314524Y-8249476D01*
X10333571Y-8259000D01*
X10343095Y-8268524D01*
X10352619Y-8287571D01*
X10362143Y-8325667D01*
X10362143Y-8373286D01*
X10352619Y-8411381D01*
X10343095Y-8430429D01*
X10333571Y-8439952D01*
X10314524Y-8449476D01*
X10295476Y-8449476D01*
X10276429Y-8439952D01*
X10266905Y-8430429D01*
X10257381Y-8411381D01*
X10247857Y-8373286D01*
X10247857Y-8325667D01*
X10257381Y-8287571D01*
X10266905Y-8268524D01*
X10276429Y-8259000D01*
X10295476Y-8249476D01*
X10447857Y-8430429D02*
X10457381Y-8439952D01*
X10447857Y-8449476D01*
X10438333Y-8439952D01*
X10447857Y-8430429D01*
X10447857Y-8449476D01*
X10581190Y-8249476D02*
X10600238Y-8249476D01*
X10619286Y-8259000D01*
X10628810Y-8268524D01*
X10638333Y-8287571D01*
X10647857Y-8325667D01*
X10647857Y-8373286D01*
X10638333Y-8411381D01*
X10628810Y-8430429D01*
X10619286Y-8439952D01*
X10600238Y-8449476D01*
X10581190Y-8449476D01*
X10562143Y-8439952D01*
X10552619Y-8430429D01*
X10543095Y-8411381D01*
X10533571Y-8373286D01*
X10533571Y-8325667D01*
X10543095Y-8287571D01*
X10552619Y-8268524D01*
X10562143Y-8259000D01*
X10581190Y-8249476D01*
X10838333Y-8449476D02*
X10724048Y-8449476D01*
X10781190Y-8449476D02*
X10781190Y-8249476D01*
X10762143Y-8278048D01*
X10743095Y-8297095D01*
X10724048Y-8306619D01*
X11019286Y-8249476D02*
X10924048Y-8249476D01*
X10914524Y-8344714D01*
X10924048Y-8335190D01*
X10943095Y-8325667D01*
X10990714Y-8325667D01*
X11009762Y-8335190D01*
X11019286Y-8344714D01*
X11028810Y-8363762D01*
X11028810Y-8411381D01*
X11019286Y-8430429D01*
X11009762Y-8439952D01*
X10990714Y-8449476D01*
X10943095Y-8449476D01*
X10924048Y-8439952D01*
X10914524Y-8430429D01*
X11095476Y-8249476D02*
X11228809Y-8249476D01*
X11143095Y-8449476D01*
X11295476Y-8249476D02*
X11295476Y-8287571D01*
X11371667Y-8249476D02*
X11371667Y-8287571D01*
X11666905Y-8525667D02*
X11657381Y-8516143D01*
X11638333Y-8487571D01*
X11628809Y-8468524D01*
X11619286Y-8439952D01*
X11609762Y-8392333D01*
X11609762Y-8354238D01*
X11619286Y-8306619D01*
X11628809Y-8278048D01*
X11638333Y-8259000D01*
X11657381Y-8230428D01*
X11666905Y-8220905D01*
X11847857Y-8449476D02*
X11733571Y-8449476D01*
X11790714Y-8449476D02*
X11790714Y-8249476D01*
X11771667Y-8278048D01*
X11752619Y-8297095D01*
X11733571Y-8306619D01*
X11914524Y-8249476D02*
X12038333Y-8249476D01*
X11971667Y-8325667D01*
X12000238Y-8325667D01*
X12019286Y-8335190D01*
X12028809Y-8344714D01*
X12038333Y-8363762D01*
X12038333Y-8411381D01*
X12028809Y-8430429D01*
X12019286Y-8439952D01*
X12000238Y-8449476D01*
X11943095Y-8449476D01*
X11924048Y-8439952D01*
X11914524Y-8430429D01*
X12228809Y-8449476D02*
X12114524Y-8449476D01*
X12171667Y-8449476D02*
X12171667Y-8249476D01*
X12152619Y-8278048D01*
X12133571Y-8297095D01*
X12114524Y-8306619D01*
X12466905Y-8449476D02*
X12466905Y-8249476D01*
X12552619Y-8449476D02*
X12552619Y-8344714D01*
X12543095Y-8325667D01*
X12524048Y-8316143D01*
X12495476Y-8316143D01*
X12476428Y-8325667D01*
X12466905Y-8335190D01*
X12676428Y-8449476D02*
X12657381Y-8439952D01*
X12647857Y-8430429D01*
X12638333Y-8411381D01*
X12638333Y-8354238D01*
X12647857Y-8335190D01*
X12657381Y-8325667D01*
X12676428Y-8316143D01*
X12705000Y-8316143D01*
X12724048Y-8325667D01*
X12733571Y-8335190D01*
X12743095Y-8354238D01*
X12743095Y-8411381D01*
X12733571Y-8430429D01*
X12724048Y-8439952D01*
X12705000Y-8449476D01*
X12676428Y-8449476D01*
X12857381Y-8449476D02*
X12838333Y-8439952D01*
X12828809Y-8420905D01*
X12828809Y-8249476D01*
X13009762Y-8439952D02*
X12990714Y-8449476D01*
X12952619Y-8449476D01*
X12933571Y-8439952D01*
X12924048Y-8420905D01*
X12924048Y-8344714D01*
X12933571Y-8325667D01*
X12952619Y-8316143D01*
X12990714Y-8316143D01*
X13009762Y-8325667D01*
X13019286Y-8344714D01*
X13019286Y-8363762D01*
X12924048Y-8382809D01*
X13095476Y-8439952D02*
X13114524Y-8449476D01*
X13152619Y-8449476D01*
X13171667Y-8439952D01*
X13181190Y-8420905D01*
X13181190Y-8411381D01*
X13171667Y-8392333D01*
X13152619Y-8382809D01*
X13124048Y-8382809D01*
X13105000Y-8373286D01*
X13095476Y-8354238D01*
X13095476Y-8344714D01*
X13105000Y-8325667D01*
X13124048Y-8316143D01*
X13152619Y-8316143D01*
X13171667Y-8325667D01*
X13247857Y-8525667D02*
X13257381Y-8516143D01*
X13276428Y-8487571D01*
X13285952Y-8468524D01*
X13295476Y-8439952D01*
X13305000Y-8392333D01*
X13305000Y-8354238D01*
X13295476Y-8306619D01*
X13285952Y-8278048D01*
X13276428Y-8259000D01*
X13257381Y-8230428D01*
X13247857Y-8220905D01*
D14*
X8062500Y-8590500D02*
X8062500Y-8655500D01*
X8030000Y-8623000D02*
X8095000Y-8623000D01*
D11*
X8390714Y-8513476D02*
X8409762Y-8513476D01*
X8428810Y-8523000D01*
X8438333Y-8532524D01*
X8447857Y-8551571D01*
X8457381Y-8589667D01*
X8457381Y-8637286D01*
X8447857Y-8675381D01*
X8438333Y-8694429D01*
X8428810Y-8703952D01*
X8409762Y-8713476D01*
X8390714Y-8713476D01*
X8371667Y-8703952D01*
X8362143Y-8694429D01*
X8352619Y-8675381D01*
X8343095Y-8637286D01*
X8343095Y-8589667D01*
X8352619Y-8551571D01*
X8362143Y-8532524D01*
X8371667Y-8523000D01*
X8390714Y-8513476D01*
X8543095Y-8694429D02*
X8552619Y-8703952D01*
X8543095Y-8713476D01*
X8533571Y-8703952D01*
X8543095Y-8694429D01*
X8543095Y-8713476D01*
X8724048Y-8513476D02*
X8685952Y-8513476D01*
X8666905Y-8523000D01*
X8657381Y-8532524D01*
X8638333Y-8561095D01*
X8628810Y-8599190D01*
X8628810Y-8675381D01*
X8638333Y-8694429D01*
X8647857Y-8703952D01*
X8666905Y-8713476D01*
X8705000Y-8713476D01*
X8724048Y-8703952D01*
X8733571Y-8694429D01*
X8743095Y-8675381D01*
X8743095Y-8627762D01*
X8733571Y-8608714D01*
X8724048Y-8599190D01*
X8705000Y-8589667D01*
X8666905Y-8589667D01*
X8647857Y-8599190D01*
X8638333Y-8608714D01*
X8628810Y-8627762D01*
X8924048Y-8513476D02*
X8828810Y-8513476D01*
X8819286Y-8608714D01*
X8828810Y-8599190D01*
X8847857Y-8589667D01*
X8895476Y-8589667D01*
X8914524Y-8599190D01*
X8924048Y-8608714D01*
X8933571Y-8627762D01*
X8933571Y-8675381D01*
X8924048Y-8694429D01*
X8914524Y-8703952D01*
X8895476Y-8713476D01*
X8847857Y-8713476D01*
X8828810Y-8703952D01*
X8819286Y-8694429D01*
X9057381Y-8513476D02*
X9076429Y-8513476D01*
X9095476Y-8523000D01*
X9105000Y-8532524D01*
X9114524Y-8551571D01*
X9124048Y-8589667D01*
X9124048Y-8637286D01*
X9114524Y-8675381D01*
X9105000Y-8694429D01*
X9095476Y-8703952D01*
X9076429Y-8713476D01*
X9057381Y-8713476D01*
X9038333Y-8703952D01*
X9028810Y-8694429D01*
X9019286Y-8675381D01*
X9009762Y-8637286D01*
X9009762Y-8589667D01*
X9019286Y-8551571D01*
X9028810Y-8532524D01*
X9038333Y-8523000D01*
X9057381Y-8513476D01*
X9209762Y-8713476D02*
X9209762Y-8580143D01*
X9209762Y-8599190D02*
X9219286Y-8589667D01*
X9238333Y-8580143D01*
X9266905Y-8580143D01*
X9285952Y-8589667D01*
X9295476Y-8608714D01*
X9295476Y-8713476D01*
X9295476Y-8608714D02*
X9305000Y-8589667D01*
X9324048Y-8580143D01*
X9352619Y-8580143D01*
X9371667Y-8589667D01*
X9381190Y-8608714D01*
X9381190Y-8713476D01*
X9476429Y-8713476D02*
X9476429Y-8580143D01*
X9476429Y-8599190D02*
X9485952Y-8589667D01*
X9505000Y-8580143D01*
X9533571Y-8580143D01*
X9552619Y-8589667D01*
X9562143Y-8608714D01*
X9562143Y-8713476D01*
X9562143Y-8608714D02*
X9571667Y-8589667D01*
X9590714Y-8580143D01*
X9619286Y-8580143D01*
X9638333Y-8589667D01*
X9647857Y-8608714D01*
X9647857Y-8713476D01*
X10038333Y-8503952D02*
X9866905Y-8761095D01*
X10295476Y-8513476D02*
X10314524Y-8513476D01*
X10333571Y-8523000D01*
X10343095Y-8532524D01*
X10352619Y-8551571D01*
X10362143Y-8589667D01*
X10362143Y-8637286D01*
X10352619Y-8675381D01*
X10343095Y-8694429D01*
X10333571Y-8703952D01*
X10314524Y-8713476D01*
X10295476Y-8713476D01*
X10276429Y-8703952D01*
X10266905Y-8694429D01*
X10257381Y-8675381D01*
X10247857Y-8637286D01*
X10247857Y-8589667D01*
X10257381Y-8551571D01*
X10266905Y-8532524D01*
X10276429Y-8523000D01*
X10295476Y-8513476D01*
X10447857Y-8694429D02*
X10457381Y-8703952D01*
X10447857Y-8713476D01*
X10438333Y-8703952D01*
X10447857Y-8694429D01*
X10447857Y-8713476D01*
X10581190Y-8513476D02*
X10600238Y-8513476D01*
X10619286Y-8523000D01*
X10628810Y-8532524D01*
X10638333Y-8551571D01*
X10647857Y-8589667D01*
X10647857Y-8637286D01*
X10638333Y-8675381D01*
X10628810Y-8694429D01*
X10619286Y-8703952D01*
X10600238Y-8713476D01*
X10581190Y-8713476D01*
X10562143Y-8703952D01*
X10552619Y-8694429D01*
X10543095Y-8675381D01*
X10533571Y-8637286D01*
X10533571Y-8589667D01*
X10543095Y-8551571D01*
X10552619Y-8532524D01*
X10562143Y-8523000D01*
X10581190Y-8513476D01*
X10724048Y-8532524D02*
X10733571Y-8523000D01*
X10752619Y-8513476D01*
X10800238Y-8513476D01*
X10819286Y-8523000D01*
X10828810Y-8532524D01*
X10838333Y-8551571D01*
X10838333Y-8570619D01*
X10828810Y-8599190D01*
X10714524Y-8713476D01*
X10838333Y-8713476D01*
X11019286Y-8513476D02*
X10924048Y-8513476D01*
X10914524Y-8608714D01*
X10924048Y-8599190D01*
X10943095Y-8589667D01*
X10990714Y-8589667D01*
X11009762Y-8599190D01*
X11019286Y-8608714D01*
X11028810Y-8627762D01*
X11028810Y-8675381D01*
X11019286Y-8694429D01*
X11009762Y-8703952D01*
X10990714Y-8713476D01*
X10943095Y-8713476D01*
X10924048Y-8703952D01*
X10914524Y-8694429D01*
X11200238Y-8513476D02*
X11162143Y-8513476D01*
X11143095Y-8523000D01*
X11133571Y-8532524D01*
X11114524Y-8561095D01*
X11105000Y-8599190D01*
X11105000Y-8675381D01*
X11114524Y-8694429D01*
X11124048Y-8703952D01*
X11143095Y-8713476D01*
X11181190Y-8713476D01*
X11200238Y-8703952D01*
X11209762Y-8694429D01*
X11219286Y-8675381D01*
X11219286Y-8627762D01*
X11209762Y-8608714D01*
X11200238Y-8599190D01*
X11181190Y-8589667D01*
X11143095Y-8589667D01*
X11124048Y-8599190D01*
X11114524Y-8608714D01*
X11105000Y-8627762D01*
X11295476Y-8513476D02*
X11295476Y-8551571D01*
X11371667Y-8513476D02*
X11371667Y-8551571D01*
X11666905Y-8789667D02*
X11657381Y-8780143D01*
X11638333Y-8751571D01*
X11628809Y-8732524D01*
X11619286Y-8703952D01*
X11609762Y-8656333D01*
X11609762Y-8618238D01*
X11619286Y-8570619D01*
X11628809Y-8542048D01*
X11638333Y-8523000D01*
X11657381Y-8494429D01*
X11666905Y-8484905D01*
X11781190Y-8513476D02*
X11800238Y-8513476D01*
X11819286Y-8523000D01*
X11828809Y-8532524D01*
X11838333Y-8551571D01*
X11847857Y-8589667D01*
X11847857Y-8637286D01*
X11838333Y-8675381D01*
X11828809Y-8694429D01*
X11819286Y-8703952D01*
X11800238Y-8713476D01*
X11781190Y-8713476D01*
X11762143Y-8703952D01*
X11752619Y-8694429D01*
X11743095Y-8675381D01*
X11733571Y-8637286D01*
X11733571Y-8589667D01*
X11743095Y-8551571D01*
X11752619Y-8532524D01*
X11762143Y-8523000D01*
X11781190Y-8513476D01*
X12085952Y-8713476D02*
X12085952Y-8513476D01*
X12171667Y-8713476D02*
X12171667Y-8608714D01*
X12162143Y-8589667D01*
X12143095Y-8580143D01*
X12114524Y-8580143D01*
X12095476Y-8589667D01*
X12085952Y-8599190D01*
X12295476Y-8713476D02*
X12276428Y-8703952D01*
X12266905Y-8694429D01*
X12257381Y-8675381D01*
X12257381Y-8618238D01*
X12266905Y-8599190D01*
X12276428Y-8589667D01*
X12295476Y-8580143D01*
X12324048Y-8580143D01*
X12343095Y-8589667D01*
X12352619Y-8599190D01*
X12362143Y-8618238D01*
X12362143Y-8675381D01*
X12352619Y-8694429D01*
X12343095Y-8703952D01*
X12324048Y-8713476D01*
X12295476Y-8713476D01*
X12476428Y-8713476D02*
X12457381Y-8703952D01*
X12447857Y-8684905D01*
X12447857Y-8513476D01*
X12628809Y-8703952D02*
X12609762Y-8713476D01*
X12571667Y-8713476D01*
X12552619Y-8703952D01*
X12543095Y-8684905D01*
X12543095Y-8608714D01*
X12552619Y-8589667D01*
X12571667Y-8580143D01*
X12609762Y-8580143D01*
X12628809Y-8589667D01*
X12638333Y-8608714D01*
X12638333Y-8627762D01*
X12543095Y-8646810D01*
X12714524Y-8703952D02*
X12733571Y-8713476D01*
X12771667Y-8713476D01*
X12790714Y-8703952D01*
X12800238Y-8684905D01*
X12800238Y-8675381D01*
X12790714Y-8656333D01*
X12771667Y-8646810D01*
X12743095Y-8646810D01*
X12724048Y-8637286D01*
X12714524Y-8618238D01*
X12714524Y-8608714D01*
X12724048Y-8589667D01*
X12743095Y-8580143D01*
X12771667Y-8580143D01*
X12790714Y-8589667D01*
X13038333Y-8637286D02*
X13190714Y-8637286D01*
X13114524Y-8713476D02*
X13114524Y-8561095D01*
X13524048Y-8580143D02*
X13524048Y-8713476D01*
X13476428Y-8503952D02*
X13428809Y-8646810D01*
X13552619Y-8646810D01*
X13771667Y-8703952D02*
X13790714Y-8713476D01*
X13828809Y-8713476D01*
X13847857Y-8703952D01*
X13857381Y-8684905D01*
X13857381Y-8675381D01*
X13847857Y-8656333D01*
X13828809Y-8646810D01*
X13800238Y-8646810D01*
X13781190Y-8637286D01*
X13771667Y-8618238D01*
X13771667Y-8608714D01*
X13781190Y-8589667D01*
X13800238Y-8580143D01*
X13828809Y-8580143D01*
X13847857Y-8589667D01*
X13971667Y-8713476D02*
X13952619Y-8703952D01*
X13943095Y-8684905D01*
X13943095Y-8513476D01*
X14076428Y-8713476D02*
X14057381Y-8703952D01*
X14047857Y-8694429D01*
X14038333Y-8675381D01*
X14038333Y-8618238D01*
X14047857Y-8599190D01*
X14057381Y-8589667D01*
X14076428Y-8580143D01*
X14105000Y-8580143D01*
X14124048Y-8589667D01*
X14133571Y-8599190D01*
X14143095Y-8618238D01*
X14143095Y-8675381D01*
X14133571Y-8694429D01*
X14124048Y-8703952D01*
X14105000Y-8713476D01*
X14076428Y-8713476D01*
X14200238Y-8580143D02*
X14276428Y-8580143D01*
X14228809Y-8513476D02*
X14228809Y-8684905D01*
X14238333Y-8703952D01*
X14257381Y-8713476D01*
X14276428Y-8713476D01*
X14333571Y-8703952D02*
X14352619Y-8713476D01*
X14390714Y-8713476D01*
X14409762Y-8703952D01*
X14419286Y-8684905D01*
X14419286Y-8675381D01*
X14409762Y-8656333D01*
X14390714Y-8646810D01*
X14362143Y-8646810D01*
X14343095Y-8637286D01*
X14333571Y-8618238D01*
X14333571Y-8608714D01*
X14343095Y-8589667D01*
X14362143Y-8580143D01*
X14390714Y-8580143D01*
X14409762Y-8589667D01*
X14485952Y-8789667D02*
X14495476Y-8780143D01*
X14514524Y-8751571D01*
X14524048Y-8732524D01*
X14533571Y-8703952D01*
X14543095Y-8656333D01*
X14543095Y-8618238D01*
X14533571Y-8570619D01*
X14524048Y-8542048D01*
X14514524Y-8523000D01*
X14495476Y-8494429D01*
X14485952Y-8484905D01*
D15*
X8083097Y-8915737D02*
X8083097Y-8858263D01*
X8025623Y-8858263D01*
X8025623Y-8915737D01*
X8083097Y-8915737D01*
D11*
X8390714Y-8777476D02*
X8409762Y-8777476D01*
X8428810Y-8787000D01*
X8438333Y-8796524D01*
X8447857Y-8815571D01*
X8457381Y-8853667D01*
X8457381Y-8901286D01*
X8447857Y-8939381D01*
X8438333Y-8958429D01*
X8428810Y-8967952D01*
X8409762Y-8977476D01*
X8390714Y-8977476D01*
X8371667Y-8967952D01*
X8362143Y-8958429D01*
X8352619Y-8939381D01*
X8343095Y-8901286D01*
X8343095Y-8853667D01*
X8352619Y-8815571D01*
X8362143Y-8796524D01*
X8371667Y-8787000D01*
X8390714Y-8777476D01*
X8543095Y-8958429D02*
X8552619Y-8967952D01*
X8543095Y-8977476D01*
X8533571Y-8967952D01*
X8543095Y-8958429D01*
X8543095Y-8977476D01*
X8666905Y-8863190D02*
X8647857Y-8853667D01*
X8638333Y-8844143D01*
X8628810Y-8825095D01*
X8628810Y-8815571D01*
X8638333Y-8796524D01*
X8647857Y-8787000D01*
X8666905Y-8777476D01*
X8705000Y-8777476D01*
X8724048Y-8787000D01*
X8733571Y-8796524D01*
X8743095Y-8815571D01*
X8743095Y-8825095D01*
X8733571Y-8844143D01*
X8724048Y-8853667D01*
X8705000Y-8863190D01*
X8666905Y-8863190D01*
X8647857Y-8872714D01*
X8638333Y-8882238D01*
X8628810Y-8901286D01*
X8628810Y-8939381D01*
X8638333Y-8958429D01*
X8647857Y-8967952D01*
X8666905Y-8977476D01*
X8705000Y-8977476D01*
X8724048Y-8967952D01*
X8733571Y-8958429D01*
X8743095Y-8939381D01*
X8743095Y-8901286D01*
X8733571Y-8882238D01*
X8724048Y-8872714D01*
X8705000Y-8863190D01*
X8933571Y-8977476D02*
X8819286Y-8977476D01*
X8876429Y-8977476D02*
X8876429Y-8777476D01*
X8857381Y-8806048D01*
X8838333Y-8825095D01*
X8819286Y-8834619D01*
X9000238Y-8777476D02*
X9124048Y-8777476D01*
X9057381Y-8853667D01*
X9085952Y-8853667D01*
X9105000Y-8863190D01*
X9114524Y-8872714D01*
X9124048Y-8891762D01*
X9124048Y-8939381D01*
X9114524Y-8958429D01*
X9105000Y-8967952D01*
X9085952Y-8977476D01*
X9028810Y-8977476D01*
X9009762Y-8967952D01*
X9000238Y-8958429D01*
X9209762Y-8977476D02*
X9209762Y-8844143D01*
X9209762Y-8863190D02*
X9219286Y-8853667D01*
X9238333Y-8844143D01*
X9266905Y-8844143D01*
X9285952Y-8853667D01*
X9295476Y-8872714D01*
X9295476Y-8977476D01*
X9295476Y-8872714D02*
X9305000Y-8853667D01*
X9324048Y-8844143D01*
X9352619Y-8844143D01*
X9371667Y-8853667D01*
X9381190Y-8872714D01*
X9381190Y-8977476D01*
X9476429Y-8977476D02*
X9476429Y-8844143D01*
X9476429Y-8863190D02*
X9485952Y-8853667D01*
X9505000Y-8844143D01*
X9533571Y-8844143D01*
X9552619Y-8853667D01*
X9562143Y-8872714D01*
X9562143Y-8977476D01*
X9562143Y-8872714D02*
X9571667Y-8853667D01*
X9590714Y-8844143D01*
X9619286Y-8844143D01*
X9638333Y-8853667D01*
X9647857Y-8872714D01*
X9647857Y-8977476D01*
X10038333Y-8767952D02*
X9866905Y-9025095D01*
X10295476Y-8777476D02*
X10314524Y-8777476D01*
X10333571Y-8787000D01*
X10343095Y-8796524D01*
X10352619Y-8815571D01*
X10362143Y-8853667D01*
X10362143Y-8901286D01*
X10352619Y-8939381D01*
X10343095Y-8958429D01*
X10333571Y-8967952D01*
X10314524Y-8977476D01*
X10295476Y-8977476D01*
X10276429Y-8967952D01*
X10266905Y-8958429D01*
X10257381Y-8939381D01*
X10247857Y-8901286D01*
X10247857Y-8853667D01*
X10257381Y-8815571D01*
X10266905Y-8796524D01*
X10276429Y-8787000D01*
X10295476Y-8777476D01*
X10447857Y-8958429D02*
X10457381Y-8967952D01*
X10447857Y-8977476D01*
X10438333Y-8967952D01*
X10447857Y-8958429D01*
X10447857Y-8977476D01*
X10581190Y-8777476D02*
X10600238Y-8777476D01*
X10619286Y-8787000D01*
X10628810Y-8796524D01*
X10638333Y-8815571D01*
X10647857Y-8853667D01*
X10647857Y-8901286D01*
X10638333Y-8939381D01*
X10628810Y-8958429D01*
X10619286Y-8967952D01*
X10600238Y-8977476D01*
X10581190Y-8977476D01*
X10562143Y-8967952D01*
X10552619Y-8958429D01*
X10543095Y-8939381D01*
X10533571Y-8901286D01*
X10533571Y-8853667D01*
X10543095Y-8815571D01*
X10552619Y-8796524D01*
X10562143Y-8787000D01*
X10581190Y-8777476D01*
X10714524Y-8777476D02*
X10838333Y-8777476D01*
X10771667Y-8853667D01*
X10800238Y-8853667D01*
X10819286Y-8863190D01*
X10828810Y-8872714D01*
X10838333Y-8891762D01*
X10838333Y-8939381D01*
X10828810Y-8958429D01*
X10819286Y-8967952D01*
X10800238Y-8977476D01*
X10743095Y-8977476D01*
X10724048Y-8967952D01*
X10714524Y-8958429D01*
X10914524Y-8796524D02*
X10924048Y-8787000D01*
X10943095Y-8777476D01*
X10990714Y-8777476D01*
X11009762Y-8787000D01*
X11019286Y-8796524D01*
X11028810Y-8815571D01*
X11028810Y-8834619D01*
X11019286Y-8863190D01*
X10905000Y-8977476D01*
X11028810Y-8977476D01*
X11152619Y-8777476D02*
X11171667Y-8777476D01*
X11190714Y-8787000D01*
X11200238Y-8796524D01*
X11209762Y-8815571D01*
X11219286Y-8853667D01*
X11219286Y-8901286D01*
X11209762Y-8939381D01*
X11200238Y-8958429D01*
X11190714Y-8967952D01*
X11171667Y-8977476D01*
X11152619Y-8977476D01*
X11133571Y-8967952D01*
X11124048Y-8958429D01*
X11114524Y-8939381D01*
X11105000Y-8901286D01*
X11105000Y-8853667D01*
X11114524Y-8815571D01*
X11124048Y-8796524D01*
X11133571Y-8787000D01*
X11152619Y-8777476D01*
X11295476Y-8777476D02*
X11295476Y-8815571D01*
X11371667Y-8777476D02*
X11371667Y-8815571D01*
X11666905Y-9053667D02*
X11657381Y-9044143D01*
X11638333Y-9015571D01*
X11628809Y-8996524D01*
X11619286Y-8967952D01*
X11609762Y-8920333D01*
X11609762Y-8882238D01*
X11619286Y-8834619D01*
X11628809Y-8806048D01*
X11638333Y-8787000D01*
X11657381Y-8758429D01*
X11666905Y-8748905D01*
X11771667Y-8863190D02*
X11752619Y-8853667D01*
X11743095Y-8844143D01*
X11733571Y-8825095D01*
X11733571Y-8815571D01*
X11743095Y-8796524D01*
X11752619Y-8787000D01*
X11771667Y-8777476D01*
X11809762Y-8777476D01*
X11828809Y-8787000D01*
X11838333Y-8796524D01*
X11847857Y-8815571D01*
X11847857Y-8825095D01*
X11838333Y-8844143D01*
X11828809Y-8853667D01*
X11809762Y-8863190D01*
X11771667Y-8863190D01*
X11752619Y-8872714D01*
X11743095Y-8882238D01*
X11733571Y-8901286D01*
X11733571Y-8939381D01*
X11743095Y-8958429D01*
X11752619Y-8967952D01*
X11771667Y-8977476D01*
X11809762Y-8977476D01*
X11828809Y-8967952D01*
X11838333Y-8958429D01*
X11847857Y-8939381D01*
X11847857Y-8901286D01*
X11838333Y-8882238D01*
X11828809Y-8872714D01*
X11809762Y-8863190D01*
X12085952Y-8977476D02*
X12085952Y-8777476D01*
X12171667Y-8977476D02*
X12171667Y-8872714D01*
X12162143Y-8853667D01*
X12143095Y-8844143D01*
X12114524Y-8844143D01*
X12095476Y-8853667D01*
X12085952Y-8863190D01*
X12295476Y-8977476D02*
X12276428Y-8967952D01*
X12266905Y-8958429D01*
X12257381Y-8939381D01*
X12257381Y-8882238D01*
X12266905Y-8863190D01*
X12276428Y-8853667D01*
X12295476Y-8844143D01*
X12324048Y-8844143D01*
X12343095Y-8853667D01*
X12352619Y-8863190D01*
X12362143Y-8882238D01*
X12362143Y-8939381D01*
X12352619Y-8958429D01*
X12343095Y-8967952D01*
X12324048Y-8977476D01*
X12295476Y-8977476D01*
X12476428Y-8977476D02*
X12457381Y-8967952D01*
X12447857Y-8948905D01*
X12447857Y-8777476D01*
X12628809Y-8967952D02*
X12609762Y-8977476D01*
X12571667Y-8977476D01*
X12552619Y-8967952D01*
X12543095Y-8948905D01*
X12543095Y-8872714D01*
X12552619Y-8853667D01*
X12571667Y-8844143D01*
X12609762Y-8844143D01*
X12628809Y-8853667D01*
X12638333Y-8872714D01*
X12638333Y-8891762D01*
X12543095Y-8910810D01*
X12714524Y-8967952D02*
X12733571Y-8977476D01*
X12771667Y-8977476D01*
X12790714Y-8967952D01*
X12800238Y-8948905D01*
X12800238Y-8939381D01*
X12790714Y-8920333D01*
X12771667Y-8910810D01*
X12743095Y-8910810D01*
X12724048Y-8901286D01*
X12714524Y-8882238D01*
X12714524Y-8872714D01*
X12724048Y-8853667D01*
X12743095Y-8844143D01*
X12771667Y-8844143D01*
X12790714Y-8853667D01*
X12866905Y-9053667D02*
X12876428Y-9044143D01*
X12895476Y-9015571D01*
X12905000Y-8996524D01*
X12914524Y-8967952D01*
X12924048Y-8920333D01*
X12924048Y-8882238D01*
X12914524Y-8834619D01*
X12905000Y-8806048D01*
X12895476Y-8787000D01*
X12876428Y-8758429D01*
X12866905Y-8748905D01*
D16*
X8050550Y-9195450D02*
X8095000Y-9151000D01*
X8050550Y-9106550D01*
X8006100Y-9151000D01*
X8050550Y-9195450D01*
D11*
X8390714Y-9041476D02*
X8409762Y-9041476D01*
X8428810Y-9051000D01*
X8438333Y-9060524D01*
X8447857Y-9079571D01*
X8457381Y-9117667D01*
X8457381Y-9165286D01*
X8447857Y-9203381D01*
X8438333Y-9222429D01*
X8428810Y-9231952D01*
X8409762Y-9241476D01*
X8390714Y-9241476D01*
X8371667Y-9231952D01*
X8362143Y-9222429D01*
X8352619Y-9203381D01*
X8343095Y-9165286D01*
X8343095Y-9117667D01*
X8352619Y-9079571D01*
X8362143Y-9060524D01*
X8371667Y-9051000D01*
X8390714Y-9041476D01*
X8543095Y-9222429D02*
X8552619Y-9231952D01*
X8543095Y-9241476D01*
X8533571Y-9231952D01*
X8543095Y-9222429D01*
X8543095Y-9241476D01*
X8666905Y-9127190D02*
X8647857Y-9117667D01*
X8638333Y-9108143D01*
X8628810Y-9089095D01*
X8628810Y-9079571D01*
X8638333Y-9060524D01*
X8647857Y-9051000D01*
X8666905Y-9041476D01*
X8705000Y-9041476D01*
X8724048Y-9051000D01*
X8733571Y-9060524D01*
X8743095Y-9079571D01*
X8743095Y-9089095D01*
X8733571Y-9108143D01*
X8724048Y-9117667D01*
X8705000Y-9127190D01*
X8666905Y-9127190D01*
X8647857Y-9136714D01*
X8638333Y-9146238D01*
X8628810Y-9165286D01*
X8628810Y-9203381D01*
X8638333Y-9222429D01*
X8647857Y-9231952D01*
X8666905Y-9241476D01*
X8705000Y-9241476D01*
X8724048Y-9231952D01*
X8733571Y-9222429D01*
X8743095Y-9203381D01*
X8743095Y-9165286D01*
X8733571Y-9146238D01*
X8724048Y-9136714D01*
X8705000Y-9127190D01*
X8857381Y-9127190D02*
X8838333Y-9117667D01*
X8828810Y-9108143D01*
X8819286Y-9089095D01*
X8819286Y-9079571D01*
X8828810Y-9060524D01*
X8838333Y-9051000D01*
X8857381Y-9041476D01*
X8895476Y-9041476D01*
X8914524Y-9051000D01*
X8924048Y-9060524D01*
X8933571Y-9079571D01*
X8933571Y-9089095D01*
X8924048Y-9108143D01*
X8914524Y-9117667D01*
X8895476Y-9127190D01*
X8857381Y-9127190D01*
X8838333Y-9136714D01*
X8828810Y-9146238D01*
X8819286Y-9165286D01*
X8819286Y-9203381D01*
X8828810Y-9222429D01*
X8838333Y-9231952D01*
X8857381Y-9241476D01*
X8895476Y-9241476D01*
X8914524Y-9231952D01*
X8924048Y-9222429D01*
X8933571Y-9203381D01*
X8933571Y-9165286D01*
X8924048Y-9146238D01*
X8914524Y-9136714D01*
X8895476Y-9127190D01*
X9028810Y-9241476D02*
X9066905Y-9241476D01*
X9085952Y-9231952D01*
X9095476Y-9222429D01*
X9114524Y-9193857D01*
X9124048Y-9155762D01*
X9124048Y-9079571D01*
X9114524Y-9060524D01*
X9105000Y-9051000D01*
X9085952Y-9041476D01*
X9047857Y-9041476D01*
X9028810Y-9051000D01*
X9019286Y-9060524D01*
X9009762Y-9079571D01*
X9009762Y-9127190D01*
X9019286Y-9146238D01*
X9028810Y-9155762D01*
X9047857Y-9165286D01*
X9085952Y-9165286D01*
X9105000Y-9155762D01*
X9114524Y-9146238D01*
X9124048Y-9127190D01*
X9209762Y-9241476D02*
X9209762Y-9108143D01*
X9209762Y-9127190D02*
X9219286Y-9117667D01*
X9238333Y-9108143D01*
X9266905Y-9108143D01*
X9285952Y-9117667D01*
X9295476Y-9136714D01*
X9295476Y-9241476D01*
X9295476Y-9136714D02*
X9305000Y-9117667D01*
X9324048Y-9108143D01*
X9352619Y-9108143D01*
X9371667Y-9117667D01*
X9381190Y-9136714D01*
X9381190Y-9241476D01*
X9476429Y-9241476D02*
X9476429Y-9108143D01*
X9476429Y-9127190D02*
X9485952Y-9117667D01*
X9505000Y-9108143D01*
X9533571Y-9108143D01*
X9552619Y-9117667D01*
X9562143Y-9136714D01*
X9562143Y-9241476D01*
X9562143Y-9136714D02*
X9571667Y-9117667D01*
X9590714Y-9108143D01*
X9619286Y-9108143D01*
X9638333Y-9117667D01*
X9647857Y-9136714D01*
X9647857Y-9241476D01*
X10038333Y-9031952D02*
X9866905Y-9289095D01*
X10295476Y-9041476D02*
X10314524Y-9041476D01*
X10333571Y-9051000D01*
X10343095Y-9060524D01*
X10352619Y-9079571D01*
X10362143Y-9117667D01*
X10362143Y-9165286D01*
X10352619Y-9203381D01*
X10343095Y-9222429D01*
X10333571Y-9231952D01*
X10314524Y-9241476D01*
X10295476Y-9241476D01*
X10276429Y-9231952D01*
X10266905Y-9222429D01*
X10257381Y-9203381D01*
X10247857Y-9165286D01*
X10247857Y-9117667D01*
X10257381Y-9079571D01*
X10266905Y-9060524D01*
X10276429Y-9051000D01*
X10295476Y-9041476D01*
X10447857Y-9222429D02*
X10457381Y-9231952D01*
X10447857Y-9241476D01*
X10438333Y-9231952D01*
X10447857Y-9222429D01*
X10447857Y-9241476D01*
X10581190Y-9041476D02*
X10600238Y-9041476D01*
X10619286Y-9051000D01*
X10628810Y-9060524D01*
X10638333Y-9079571D01*
X10647857Y-9117667D01*
X10647857Y-9165286D01*
X10638333Y-9203381D01*
X10628810Y-9222429D01*
X10619286Y-9231952D01*
X10600238Y-9241476D01*
X10581190Y-9241476D01*
X10562143Y-9231952D01*
X10552619Y-9222429D01*
X10543095Y-9203381D01*
X10533571Y-9165286D01*
X10533571Y-9117667D01*
X10543095Y-9079571D01*
X10552619Y-9060524D01*
X10562143Y-9051000D01*
X10581190Y-9041476D01*
X10714524Y-9041476D02*
X10838333Y-9041476D01*
X10771667Y-9117667D01*
X10800238Y-9117667D01*
X10819286Y-9127190D01*
X10828810Y-9136714D01*
X10838333Y-9155762D01*
X10838333Y-9203381D01*
X10828810Y-9222429D01*
X10819286Y-9231952D01*
X10800238Y-9241476D01*
X10743095Y-9241476D01*
X10724048Y-9231952D01*
X10714524Y-9222429D01*
X11019286Y-9041476D02*
X10924048Y-9041476D01*
X10914524Y-9136714D01*
X10924048Y-9127190D01*
X10943095Y-9117667D01*
X10990714Y-9117667D01*
X11009762Y-9127190D01*
X11019286Y-9136714D01*
X11028810Y-9155762D01*
X11028810Y-9203381D01*
X11019286Y-9222429D01*
X11009762Y-9231952D01*
X10990714Y-9241476D01*
X10943095Y-9241476D01*
X10924048Y-9231952D01*
X10914524Y-9222429D01*
X11152619Y-9041476D02*
X11171667Y-9041476D01*
X11190714Y-9051000D01*
X11200238Y-9060524D01*
X11209762Y-9079571D01*
X11219286Y-9117667D01*
X11219286Y-9165286D01*
X11209762Y-9203381D01*
X11200238Y-9222429D01*
X11190714Y-9231952D01*
X11171667Y-9241476D01*
X11152619Y-9241476D01*
X11133571Y-9231952D01*
X11124048Y-9222429D01*
X11114524Y-9203381D01*
X11105000Y-9165286D01*
X11105000Y-9117667D01*
X11114524Y-9079571D01*
X11124048Y-9060524D01*
X11133571Y-9051000D01*
X11152619Y-9041476D01*
X11295476Y-9041476D02*
X11295476Y-9079571D01*
X11371667Y-9041476D02*
X11371667Y-9079571D01*
X11666905Y-9317667D02*
X11657381Y-9308143D01*
X11638333Y-9279571D01*
X11628809Y-9260524D01*
X11619286Y-9231952D01*
X11609762Y-9184333D01*
X11609762Y-9146238D01*
X11619286Y-9098619D01*
X11628809Y-9070048D01*
X11638333Y-9051000D01*
X11657381Y-9022429D01*
X11666905Y-9012905D01*
X11771667Y-9127190D02*
X11752619Y-9117667D01*
X11743095Y-9108143D01*
X11733571Y-9089095D01*
X11733571Y-9079571D01*
X11743095Y-9060524D01*
X11752619Y-9051000D01*
X11771667Y-9041476D01*
X11809762Y-9041476D01*
X11828809Y-9051000D01*
X11838333Y-9060524D01*
X11847857Y-9079571D01*
X11847857Y-9089095D01*
X11838333Y-9108143D01*
X11828809Y-9117667D01*
X11809762Y-9127190D01*
X11771667Y-9127190D01*
X11752619Y-9136714D01*
X11743095Y-9146238D01*
X11733571Y-9165286D01*
X11733571Y-9203381D01*
X11743095Y-9222429D01*
X11752619Y-9231952D01*
X11771667Y-9241476D01*
X11809762Y-9241476D01*
X11828809Y-9231952D01*
X11838333Y-9222429D01*
X11847857Y-9203381D01*
X11847857Y-9165286D01*
X11838333Y-9146238D01*
X11828809Y-9136714D01*
X11809762Y-9127190D01*
X12085952Y-9241476D02*
X12085952Y-9041476D01*
X12171667Y-9241476D02*
X12171667Y-9136714D01*
X12162143Y-9117667D01*
X12143095Y-9108143D01*
X12114524Y-9108143D01*
X12095476Y-9117667D01*
X12085952Y-9127190D01*
X12295476Y-9241476D02*
X12276428Y-9231952D01*
X12266905Y-9222429D01*
X12257381Y-9203381D01*
X12257381Y-9146238D01*
X12266905Y-9127190D01*
X12276428Y-9117667D01*
X12295476Y-9108143D01*
X12324048Y-9108143D01*
X12343095Y-9117667D01*
X12352619Y-9127190D01*
X12362143Y-9146238D01*
X12362143Y-9203381D01*
X12352619Y-9222429D01*
X12343095Y-9231952D01*
X12324048Y-9241476D01*
X12295476Y-9241476D01*
X12476428Y-9241476D02*
X12457381Y-9231952D01*
X12447857Y-9212905D01*
X12447857Y-9041476D01*
X12628809Y-9231952D02*
X12609762Y-9241476D01*
X12571667Y-9241476D01*
X12552619Y-9231952D01*
X12543095Y-9212905D01*
X12543095Y-9136714D01*
X12552619Y-9117667D01*
X12571667Y-9108143D01*
X12609762Y-9108143D01*
X12628809Y-9117667D01*
X12638333Y-9136714D01*
X12638333Y-9155762D01*
X12543095Y-9174810D01*
X12714524Y-9231952D02*
X12733571Y-9241476D01*
X12771667Y-9241476D01*
X12790714Y-9231952D01*
X12800238Y-9212905D01*
X12800238Y-9203381D01*
X12790714Y-9184333D01*
X12771667Y-9174810D01*
X12743095Y-9174810D01*
X12724048Y-9165286D01*
X12714524Y-9146238D01*
X12714524Y-9136714D01*
X12724048Y-9117667D01*
X12743095Y-9108143D01*
X12771667Y-9108143D01*
X12790714Y-9117667D01*
X12866905Y-9317667D02*
X12876428Y-9308143D01*
X12895476Y-9279571D01*
X12905000Y-9260524D01*
X12914524Y-9231952D01*
X12924048Y-9184333D01*
X12924048Y-9146238D01*
X12914524Y-9098619D01*
X12905000Y-9070048D01*
X12895476Y-9051000D01*
X12876428Y-9022429D01*
X12866905Y-9012905D01*
D17*
X8005000Y-9370000D02*
X8095000Y-9460000D01*
X8095000Y-9370000D02*
X8005000Y-9460000D01*
X8095000Y-9415000D02*
G75*
G03*
X8095000Y-9415000I-45000J0D01*
G01*
D11*
X8390714Y-9305476D02*
X8409762Y-9305476D01*
X8428810Y-9315000D01*
X8438333Y-9324524D01*
X8447857Y-9343571D01*
X8457381Y-9381667D01*
X8457381Y-9429286D01*
X8447857Y-9467381D01*
X8438333Y-9486429D01*
X8428810Y-9495952D01*
X8409762Y-9505476D01*
X8390714Y-9505476D01*
X8371667Y-9495952D01*
X8362143Y-9486429D01*
X8352619Y-9467381D01*
X8343095Y-9429286D01*
X8343095Y-9381667D01*
X8352619Y-9343571D01*
X8362143Y-9324524D01*
X8371667Y-9315000D01*
X8390714Y-9305476D01*
X8543095Y-9486429D02*
X8552619Y-9495952D01*
X8543095Y-9505476D01*
X8533571Y-9495952D01*
X8543095Y-9486429D01*
X8543095Y-9505476D01*
X8647857Y-9505476D02*
X8685952Y-9505476D01*
X8705000Y-9495952D01*
X8714524Y-9486429D01*
X8733571Y-9457857D01*
X8743095Y-9419762D01*
X8743095Y-9343571D01*
X8733571Y-9324524D01*
X8724048Y-9315000D01*
X8705000Y-9305476D01*
X8666905Y-9305476D01*
X8647857Y-9315000D01*
X8638333Y-9324524D01*
X8628810Y-9343571D01*
X8628810Y-9391190D01*
X8638333Y-9410238D01*
X8647857Y-9419762D01*
X8666905Y-9429286D01*
X8705000Y-9429286D01*
X8724048Y-9419762D01*
X8733571Y-9410238D01*
X8743095Y-9391190D01*
X8866905Y-9305476D02*
X8885952Y-9305476D01*
X8905000Y-9315000D01*
X8914524Y-9324524D01*
X8924048Y-9343571D01*
X8933571Y-9381667D01*
X8933571Y-9429286D01*
X8924048Y-9467381D01*
X8914524Y-9486429D01*
X8905000Y-9495952D01*
X8885952Y-9505476D01*
X8866905Y-9505476D01*
X8847857Y-9495952D01*
X8838333Y-9486429D01*
X8828810Y-9467381D01*
X8819286Y-9429286D01*
X8819286Y-9381667D01*
X8828810Y-9343571D01*
X8838333Y-9324524D01*
X8847857Y-9315000D01*
X8866905Y-9305476D01*
X9057381Y-9305476D02*
X9076429Y-9305476D01*
X9095476Y-9315000D01*
X9105000Y-9324524D01*
X9114524Y-9343571D01*
X9124048Y-9381667D01*
X9124048Y-9429286D01*
X9114524Y-9467381D01*
X9105000Y-9486429D01*
X9095476Y-9495952D01*
X9076429Y-9505476D01*
X9057381Y-9505476D01*
X9038333Y-9495952D01*
X9028810Y-9486429D01*
X9019286Y-9467381D01*
X9009762Y-9429286D01*
X9009762Y-9381667D01*
X9019286Y-9343571D01*
X9028810Y-9324524D01*
X9038333Y-9315000D01*
X9057381Y-9305476D01*
X9209762Y-9505476D02*
X9209762Y-9372143D01*
X9209762Y-9391190D02*
X9219286Y-9381667D01*
X9238333Y-9372143D01*
X9266905Y-9372143D01*
X9285952Y-9381667D01*
X9295476Y-9400714D01*
X9295476Y-9505476D01*
X9295476Y-9400714D02*
X9305000Y-9381667D01*
X9324048Y-9372143D01*
X9352619Y-9372143D01*
X9371667Y-9381667D01*
X9381190Y-9400714D01*
X9381190Y-9505476D01*
X9476429Y-9505476D02*
X9476429Y-9372143D01*
X9476429Y-9391190D02*
X9485952Y-9381667D01*
X9505000Y-9372143D01*
X9533571Y-9372143D01*
X9552619Y-9381667D01*
X9562143Y-9400714D01*
X9562143Y-9505476D01*
X9562143Y-9400714D02*
X9571667Y-9381667D01*
X9590714Y-9372143D01*
X9619286Y-9372143D01*
X9638333Y-9381667D01*
X9647857Y-9400714D01*
X9647857Y-9505476D01*
X10038333Y-9295952D02*
X9866905Y-9553095D01*
X10295476Y-9305476D02*
X10314524Y-9305476D01*
X10333571Y-9315000D01*
X10343095Y-9324524D01*
X10352619Y-9343571D01*
X10362143Y-9381667D01*
X10362143Y-9429286D01*
X10352619Y-9467381D01*
X10343095Y-9486429D01*
X10333571Y-9495952D01*
X10314524Y-9505476D01*
X10295476Y-9505476D01*
X10276429Y-9495952D01*
X10266905Y-9486429D01*
X10257381Y-9467381D01*
X10247857Y-9429286D01*
X10247857Y-9381667D01*
X10257381Y-9343571D01*
X10266905Y-9324524D01*
X10276429Y-9315000D01*
X10295476Y-9305476D01*
X10447857Y-9486429D02*
X10457381Y-9495952D01*
X10447857Y-9505476D01*
X10438333Y-9495952D01*
X10447857Y-9486429D01*
X10447857Y-9505476D01*
X10581190Y-9305476D02*
X10600238Y-9305476D01*
X10619286Y-9315000D01*
X10628810Y-9324524D01*
X10638333Y-9343571D01*
X10647857Y-9381667D01*
X10647857Y-9429286D01*
X10638333Y-9467381D01*
X10628810Y-9486429D01*
X10619286Y-9495952D01*
X10600238Y-9505476D01*
X10581190Y-9505476D01*
X10562143Y-9495952D01*
X10552619Y-9486429D01*
X10543095Y-9467381D01*
X10533571Y-9429286D01*
X10533571Y-9381667D01*
X10543095Y-9343571D01*
X10552619Y-9324524D01*
X10562143Y-9315000D01*
X10581190Y-9305476D01*
X10714524Y-9305476D02*
X10838333Y-9305476D01*
X10771667Y-9381667D01*
X10800238Y-9381667D01*
X10819286Y-9391190D01*
X10828810Y-9400714D01*
X10838333Y-9419762D01*
X10838333Y-9467381D01*
X10828810Y-9486429D01*
X10819286Y-9495952D01*
X10800238Y-9505476D01*
X10743095Y-9505476D01*
X10724048Y-9495952D01*
X10714524Y-9486429D01*
X11019286Y-9305476D02*
X10924048Y-9305476D01*
X10914524Y-9400714D01*
X10924048Y-9391190D01*
X10943095Y-9381667D01*
X10990714Y-9381667D01*
X11009762Y-9391190D01*
X11019286Y-9400714D01*
X11028810Y-9419762D01*
X11028810Y-9467381D01*
X11019286Y-9486429D01*
X11009762Y-9495952D01*
X10990714Y-9505476D01*
X10943095Y-9505476D01*
X10924048Y-9495952D01*
X10914524Y-9486429D01*
X11200238Y-9372143D02*
X11200238Y-9505476D01*
X11152619Y-9295952D02*
X11105000Y-9438810D01*
X11228809Y-9438810D01*
X11295476Y-9305476D02*
X11295476Y-9343571D01*
X11371667Y-9305476D02*
X11371667Y-9343571D01*
X11666905Y-9581667D02*
X11657381Y-9572143D01*
X11638333Y-9543571D01*
X11628809Y-9524524D01*
X11619286Y-9495952D01*
X11609762Y-9448333D01*
X11609762Y-9410238D01*
X11619286Y-9362619D01*
X11628809Y-9334048D01*
X11638333Y-9315000D01*
X11657381Y-9286429D01*
X11666905Y-9276905D01*
X11828809Y-9372143D02*
X11828809Y-9505476D01*
X11781190Y-9295952D02*
X11733571Y-9438810D01*
X11857381Y-9438810D01*
X12085952Y-9505476D02*
X12085952Y-9305476D01*
X12171667Y-9505476D02*
X12171667Y-9400714D01*
X12162143Y-9381667D01*
X12143095Y-9372143D01*
X12114524Y-9372143D01*
X12095476Y-9381667D01*
X12085952Y-9391190D01*
X12295476Y-9505476D02*
X12276428Y-9495952D01*
X12266905Y-9486429D01*
X12257381Y-9467381D01*
X12257381Y-9410238D01*
X12266905Y-9391190D01*
X12276428Y-9381667D01*
X12295476Y-9372143D01*
X12324048Y-9372143D01*
X12343095Y-9381667D01*
X12352619Y-9391190D01*
X12362143Y-9410238D01*
X12362143Y-9467381D01*
X12352619Y-9486429D01*
X12343095Y-9495952D01*
X12324048Y-9505476D01*
X12295476Y-9505476D01*
X12476428Y-9505476D02*
X12457381Y-9495952D01*
X12447857Y-9476905D01*
X12447857Y-9305476D01*
X12628809Y-9495952D02*
X12609762Y-9505476D01*
X12571667Y-9505476D01*
X12552619Y-9495952D01*
X12543095Y-9476905D01*
X12543095Y-9400714D01*
X12552619Y-9381667D01*
X12571667Y-9372143D01*
X12609762Y-9372143D01*
X12628809Y-9381667D01*
X12638333Y-9400714D01*
X12638333Y-9419762D01*
X12543095Y-9438810D01*
X12714524Y-9495952D02*
X12733571Y-9505476D01*
X12771667Y-9505476D01*
X12790714Y-9495952D01*
X12800238Y-9476905D01*
X12800238Y-9467381D01*
X12790714Y-9448333D01*
X12771667Y-9438810D01*
X12743095Y-9438810D01*
X12724048Y-9429286D01*
X12714524Y-9410238D01*
X12714524Y-9400714D01*
X12724048Y-9381667D01*
X12743095Y-9372143D01*
X12771667Y-9372143D01*
X12790714Y-9381667D01*
X12866905Y-9581667D02*
X12876428Y-9572143D01*
X12895476Y-9543571D01*
X12905000Y-9524524D01*
X12914524Y-9495952D01*
X12924048Y-9448333D01*
X12924048Y-9410238D01*
X12914524Y-9362619D01*
X12905000Y-9334048D01*
X12895476Y-9315000D01*
X12876428Y-9286429D01*
X12866905Y-9276905D01*
D18*
X8000000Y-9631500D02*
X8095000Y-9726500D01*
X8095000Y-9631500D02*
X8000000Y-9726500D01*
X8047500Y-9631500D02*
X8047500Y-9726500D01*
X8000000Y-9679000D02*
X8095000Y-9679000D01*
D11*
X8390714Y-9569476D02*
X8409762Y-9569476D01*
X8428810Y-9579000D01*
X8438333Y-9588524D01*
X8447857Y-9607571D01*
X8457381Y-9645667D01*
X8457381Y-9693286D01*
X8447857Y-9731381D01*
X8438333Y-9750429D01*
X8428810Y-9759952D01*
X8409762Y-9769476D01*
X8390714Y-9769476D01*
X8371667Y-9759952D01*
X8362143Y-9750429D01*
X8352619Y-9731381D01*
X8343095Y-9693286D01*
X8343095Y-9645667D01*
X8352619Y-9607571D01*
X8362143Y-9588524D01*
X8371667Y-9579000D01*
X8390714Y-9569476D01*
X8543095Y-9750429D02*
X8552619Y-9759952D01*
X8543095Y-9769476D01*
X8533571Y-9759952D01*
X8543095Y-9750429D01*
X8543095Y-9769476D01*
X8647857Y-9769476D02*
X8685952Y-9769476D01*
X8705000Y-9759952D01*
X8714524Y-9750429D01*
X8733571Y-9721857D01*
X8743095Y-9683762D01*
X8743095Y-9607571D01*
X8733571Y-9588524D01*
X8724048Y-9579000D01*
X8705000Y-9569476D01*
X8666905Y-9569476D01*
X8647857Y-9579000D01*
X8638333Y-9588524D01*
X8628810Y-9607571D01*
X8628810Y-9655190D01*
X8638333Y-9674238D01*
X8647857Y-9683762D01*
X8666905Y-9693286D01*
X8705000Y-9693286D01*
X8724048Y-9683762D01*
X8733571Y-9674238D01*
X8743095Y-9655190D01*
X8924048Y-9569476D02*
X8828810Y-9569476D01*
X8819286Y-9664714D01*
X8828810Y-9655190D01*
X8847857Y-9645667D01*
X8895476Y-9645667D01*
X8914524Y-9655190D01*
X8924048Y-9664714D01*
X8933571Y-9683762D01*
X8933571Y-9731381D01*
X8924048Y-9750429D01*
X8914524Y-9759952D01*
X8895476Y-9769476D01*
X8847857Y-9769476D01*
X8828810Y-9759952D01*
X8819286Y-9750429D01*
X9057381Y-9569476D02*
X9076429Y-9569476D01*
X9095476Y-9579000D01*
X9105000Y-9588524D01*
X9114524Y-9607571D01*
X9124048Y-9645667D01*
X9124048Y-9693286D01*
X9114524Y-9731381D01*
X9105000Y-9750429D01*
X9095476Y-9759952D01*
X9076429Y-9769476D01*
X9057381Y-9769476D01*
X9038333Y-9759952D01*
X9028810Y-9750429D01*
X9019286Y-9731381D01*
X9009762Y-9693286D01*
X9009762Y-9645667D01*
X9019286Y-9607571D01*
X9028810Y-9588524D01*
X9038333Y-9579000D01*
X9057381Y-9569476D01*
X9209762Y-9769476D02*
X9209762Y-9636143D01*
X9209762Y-9655190D02*
X9219286Y-9645667D01*
X9238333Y-9636143D01*
X9266905Y-9636143D01*
X9285952Y-9645667D01*
X9295476Y-9664714D01*
X9295476Y-9769476D01*
X9295476Y-9664714D02*
X9305000Y-9645667D01*
X9324048Y-9636143D01*
X9352619Y-9636143D01*
X9371667Y-9645667D01*
X9381190Y-9664714D01*
X9381190Y-9769476D01*
X9476429Y-9769476D02*
X9476429Y-9636143D01*
X9476429Y-9655190D02*
X9485952Y-9645667D01*
X9505000Y-9636143D01*
X9533571Y-9636143D01*
X9552619Y-9645667D01*
X9562143Y-9664714D01*
X9562143Y-9769476D01*
X9562143Y-9664714D02*
X9571667Y-9645667D01*
X9590714Y-9636143D01*
X9619286Y-9636143D01*
X9638333Y-9645667D01*
X9647857Y-9664714D01*
X9647857Y-9769476D01*
X10038333Y-9559952D02*
X9866905Y-9817095D01*
X10295476Y-9569476D02*
X10314524Y-9569476D01*
X10333571Y-9579000D01*
X10343095Y-9588524D01*
X10352619Y-9607571D01*
X10362143Y-9645667D01*
X10362143Y-9693286D01*
X10352619Y-9731381D01*
X10343095Y-9750429D01*
X10333571Y-9759952D01*
X10314524Y-9769476D01*
X10295476Y-9769476D01*
X10276429Y-9759952D01*
X10266905Y-9750429D01*
X10257381Y-9731381D01*
X10247857Y-9693286D01*
X10247857Y-9645667D01*
X10257381Y-9607571D01*
X10266905Y-9588524D01*
X10276429Y-9579000D01*
X10295476Y-9569476D01*
X10447857Y-9750429D02*
X10457381Y-9759952D01*
X10447857Y-9769476D01*
X10438333Y-9759952D01*
X10447857Y-9750429D01*
X10447857Y-9769476D01*
X10581190Y-9569476D02*
X10600238Y-9569476D01*
X10619286Y-9579000D01*
X10628810Y-9588524D01*
X10638333Y-9607571D01*
X10647857Y-9645667D01*
X10647857Y-9693286D01*
X10638333Y-9731381D01*
X10628810Y-9750429D01*
X10619286Y-9759952D01*
X10600238Y-9769476D01*
X10581190Y-9769476D01*
X10562143Y-9759952D01*
X10552619Y-9750429D01*
X10543095Y-9731381D01*
X10533571Y-9693286D01*
X10533571Y-9645667D01*
X10543095Y-9607571D01*
X10552619Y-9588524D01*
X10562143Y-9579000D01*
X10581190Y-9569476D01*
X10714524Y-9569476D02*
X10838333Y-9569476D01*
X10771667Y-9645667D01*
X10800238Y-9645667D01*
X10819286Y-9655190D01*
X10828810Y-9664714D01*
X10838333Y-9683762D01*
X10838333Y-9731381D01*
X10828810Y-9750429D01*
X10819286Y-9759952D01*
X10800238Y-9769476D01*
X10743095Y-9769476D01*
X10724048Y-9759952D01*
X10714524Y-9750429D01*
X10905000Y-9569476D02*
X11038333Y-9569476D01*
X10952619Y-9769476D01*
X11200238Y-9636143D02*
X11200238Y-9769476D01*
X11152619Y-9559952D02*
X11105000Y-9702810D01*
X11228809Y-9702810D01*
X11295476Y-9569476D02*
X11295476Y-9607571D01*
X11371667Y-9569476D02*
X11371667Y-9607571D01*
X11666905Y-9845667D02*
X11657381Y-9836143D01*
X11638333Y-9807571D01*
X11628809Y-9788524D01*
X11619286Y-9759952D01*
X11609762Y-9712333D01*
X11609762Y-9674238D01*
X11619286Y-9626619D01*
X11628809Y-9598048D01*
X11638333Y-9579000D01*
X11657381Y-9550429D01*
X11666905Y-9540905D01*
X11771667Y-9655190D02*
X11752619Y-9645667D01*
X11743095Y-9636143D01*
X11733571Y-9617095D01*
X11733571Y-9607571D01*
X11743095Y-9588524D01*
X11752619Y-9579000D01*
X11771667Y-9569476D01*
X11809762Y-9569476D01*
X11828809Y-9579000D01*
X11838333Y-9588524D01*
X11847857Y-9607571D01*
X11847857Y-9617095D01*
X11838333Y-9636143D01*
X11828809Y-9645667D01*
X11809762Y-9655190D01*
X11771667Y-9655190D01*
X11752619Y-9664714D01*
X11743095Y-9674238D01*
X11733571Y-9693286D01*
X11733571Y-9731381D01*
X11743095Y-9750429D01*
X11752619Y-9759952D01*
X11771667Y-9769476D01*
X11809762Y-9769476D01*
X11828809Y-9759952D01*
X11838333Y-9750429D01*
X11847857Y-9731381D01*
X11847857Y-9693286D01*
X11838333Y-9674238D01*
X11828809Y-9664714D01*
X11809762Y-9655190D01*
X12085952Y-9769476D02*
X12085952Y-9569476D01*
X12171667Y-9769476D02*
X12171667Y-9664714D01*
X12162143Y-9645667D01*
X12143095Y-9636143D01*
X12114524Y-9636143D01*
X12095476Y-9645667D01*
X12085952Y-9655190D01*
X12295476Y-9769476D02*
X12276428Y-9759952D01*
X12266905Y-9750429D01*
X12257381Y-9731381D01*
X12257381Y-9674238D01*
X12266905Y-9655190D01*
X12276428Y-9645667D01*
X12295476Y-9636143D01*
X12324048Y-9636143D01*
X12343095Y-9645667D01*
X12352619Y-9655190D01*
X12362143Y-9674238D01*
X12362143Y-9731381D01*
X12352619Y-9750429D01*
X12343095Y-9759952D01*
X12324048Y-9769476D01*
X12295476Y-9769476D01*
X12476428Y-9769476D02*
X12457381Y-9759952D01*
X12447857Y-9740905D01*
X12447857Y-9569476D01*
X12628809Y-9759952D02*
X12609762Y-9769476D01*
X12571667Y-9769476D01*
X12552619Y-9759952D01*
X12543095Y-9740905D01*
X12543095Y-9664714D01*
X12552619Y-9645667D01*
X12571667Y-9636143D01*
X12609762Y-9636143D01*
X12628809Y-9645667D01*
X12638333Y-9664714D01*
X12638333Y-9683762D01*
X12543095Y-9702810D01*
X12714524Y-9759952D02*
X12733571Y-9769476D01*
X12771667Y-9769476D01*
X12790714Y-9759952D01*
X12800238Y-9740905D01*
X12800238Y-9731381D01*
X12790714Y-9712333D01*
X12771667Y-9702810D01*
X12743095Y-9702810D01*
X12724048Y-9693286D01*
X12714524Y-9674238D01*
X12714524Y-9664714D01*
X12724048Y-9645667D01*
X12743095Y-9636143D01*
X12771667Y-9636143D01*
X12790714Y-9645667D01*
X12866905Y-9845667D02*
X12876428Y-9836143D01*
X12895476Y-9807571D01*
X12905000Y-9788524D01*
X12914524Y-9759952D01*
X12924048Y-9712333D01*
X12924048Y-9674238D01*
X12914524Y-9626619D01*
X12905000Y-9598048D01*
X12895476Y-9579000D01*
X12876428Y-9550429D01*
X12866905Y-9540905D01*
D10*
X7995000Y-9893000D02*
X8095000Y-9993000D01*
X8095000Y-9893000D02*
X7995000Y-9993000D01*
X8080356Y-9978356D02*
X8080356Y-9907644D01*
X8009644Y-9907644D01*
X8009644Y-9978356D01*
X8080356Y-9978356D01*
D11*
X8457381Y-10033476D02*
X8343095Y-10033476D01*
X8400238Y-10033476D02*
X8400238Y-9833476D01*
X8381190Y-9862048D01*
X8362143Y-9881095D01*
X8343095Y-9890619D01*
X8543095Y-10014429D02*
X8552619Y-10023952D01*
X8543095Y-10033476D01*
X8533571Y-10023952D01*
X8543095Y-10014429D01*
X8543095Y-10033476D01*
X8676429Y-9833476D02*
X8695476Y-9833476D01*
X8714524Y-9843000D01*
X8724048Y-9852524D01*
X8733571Y-9871571D01*
X8743095Y-9909667D01*
X8743095Y-9957286D01*
X8733571Y-9995381D01*
X8724048Y-10014429D01*
X8714524Y-10023952D01*
X8695476Y-10033476D01*
X8676429Y-10033476D01*
X8657381Y-10023952D01*
X8647857Y-10014429D01*
X8638333Y-9995381D01*
X8628810Y-9957286D01*
X8628810Y-9909667D01*
X8638333Y-9871571D01*
X8647857Y-9852524D01*
X8657381Y-9843000D01*
X8676429Y-9833476D01*
X8866905Y-9833476D02*
X8885952Y-9833476D01*
X8905000Y-9843000D01*
X8914524Y-9852524D01*
X8924048Y-9871571D01*
X8933571Y-9909667D01*
X8933571Y-9957286D01*
X8924048Y-9995381D01*
X8914524Y-10014429D01*
X8905000Y-10023952D01*
X8885952Y-10033476D01*
X8866905Y-10033476D01*
X8847857Y-10023952D01*
X8838333Y-10014429D01*
X8828810Y-9995381D01*
X8819286Y-9957286D01*
X8819286Y-9909667D01*
X8828810Y-9871571D01*
X8838333Y-9852524D01*
X8847857Y-9843000D01*
X8866905Y-9833476D01*
X9057381Y-9833476D02*
X9076429Y-9833476D01*
X9095476Y-9843000D01*
X9105000Y-9852524D01*
X9114524Y-9871571D01*
X9124048Y-9909667D01*
X9124048Y-9957286D01*
X9114524Y-9995381D01*
X9105000Y-10014429D01*
X9095476Y-10023952D01*
X9076429Y-10033476D01*
X9057381Y-10033476D01*
X9038333Y-10023952D01*
X9028810Y-10014429D01*
X9019286Y-9995381D01*
X9009762Y-9957286D01*
X9009762Y-9909667D01*
X9019286Y-9871571D01*
X9028810Y-9852524D01*
X9038333Y-9843000D01*
X9057381Y-9833476D01*
X9209762Y-10033476D02*
X9209762Y-9900143D01*
X9209762Y-9919190D02*
X9219286Y-9909667D01*
X9238333Y-9900143D01*
X9266905Y-9900143D01*
X9285952Y-9909667D01*
X9295476Y-9928714D01*
X9295476Y-10033476D01*
X9295476Y-9928714D02*
X9305000Y-9909667D01*
X9324048Y-9900143D01*
X9352619Y-9900143D01*
X9371667Y-9909667D01*
X9381190Y-9928714D01*
X9381190Y-10033476D01*
X9476429Y-10033476D02*
X9476429Y-9900143D01*
X9476429Y-9919190D02*
X9485952Y-9909667D01*
X9505000Y-9900143D01*
X9533571Y-9900143D01*
X9552619Y-9909667D01*
X9562143Y-9928714D01*
X9562143Y-10033476D01*
X9562143Y-9928714D02*
X9571667Y-9909667D01*
X9590714Y-9900143D01*
X9619286Y-9900143D01*
X9638333Y-9909667D01*
X9647857Y-9928714D01*
X9647857Y-10033476D01*
X10038333Y-9823952D02*
X9866905Y-10081095D01*
X10295476Y-9833476D02*
X10314524Y-9833476D01*
X10333571Y-9843000D01*
X10343095Y-9852524D01*
X10352619Y-9871571D01*
X10362143Y-9909667D01*
X10362143Y-9957286D01*
X10352619Y-9995381D01*
X10343095Y-10014429D01*
X10333571Y-10023952D01*
X10314524Y-10033476D01*
X10295476Y-10033476D01*
X10276429Y-10023952D01*
X10266905Y-10014429D01*
X10257381Y-9995381D01*
X10247857Y-9957286D01*
X10247857Y-9909667D01*
X10257381Y-9871571D01*
X10266905Y-9852524D01*
X10276429Y-9843000D01*
X10295476Y-9833476D01*
X10447857Y-10014429D02*
X10457381Y-10023952D01*
X10447857Y-10033476D01*
X10438333Y-10023952D01*
X10447857Y-10014429D01*
X10447857Y-10033476D01*
X10581190Y-9833476D02*
X10600238Y-9833476D01*
X10619286Y-9843000D01*
X10628810Y-9852524D01*
X10638333Y-9871571D01*
X10647857Y-9909667D01*
X10647857Y-9957286D01*
X10638333Y-9995381D01*
X10628810Y-10014429D01*
X10619286Y-10023952D01*
X10600238Y-10033476D01*
X10581190Y-10033476D01*
X10562143Y-10023952D01*
X10552619Y-10014429D01*
X10543095Y-9995381D01*
X10533571Y-9957286D01*
X10533571Y-9909667D01*
X10543095Y-9871571D01*
X10552619Y-9852524D01*
X10562143Y-9843000D01*
X10581190Y-9833476D01*
X10714524Y-9833476D02*
X10838333Y-9833476D01*
X10771667Y-9909667D01*
X10800238Y-9909667D01*
X10819286Y-9919190D01*
X10828810Y-9928714D01*
X10838333Y-9947762D01*
X10838333Y-9995381D01*
X10828810Y-10014429D01*
X10819286Y-10023952D01*
X10800238Y-10033476D01*
X10743095Y-10033476D01*
X10724048Y-10023952D01*
X10714524Y-10014429D01*
X10933571Y-10033476D02*
X10971667Y-10033476D01*
X10990714Y-10023952D01*
X11000238Y-10014429D01*
X11019286Y-9985857D01*
X11028810Y-9947762D01*
X11028810Y-9871571D01*
X11019286Y-9852524D01*
X11009762Y-9843000D01*
X10990714Y-9833476D01*
X10952619Y-9833476D01*
X10933571Y-9843000D01*
X10924048Y-9852524D01*
X10914524Y-9871571D01*
X10914524Y-9919190D01*
X10924048Y-9938238D01*
X10933571Y-9947762D01*
X10952619Y-9957286D01*
X10990714Y-9957286D01*
X11009762Y-9947762D01*
X11019286Y-9938238D01*
X11028810Y-9919190D01*
X11200238Y-9900143D02*
X11200238Y-10033476D01*
X11152619Y-9823952D02*
X11105000Y-9966810D01*
X11228809Y-9966810D01*
X11295476Y-9833476D02*
X11295476Y-9871571D01*
X11371667Y-9833476D02*
X11371667Y-9871571D01*
X11666905Y-10109667D02*
X11657381Y-10100143D01*
X11638333Y-10071571D01*
X11628809Y-10052524D01*
X11619286Y-10023952D01*
X11609762Y-9976333D01*
X11609762Y-9938238D01*
X11619286Y-9890619D01*
X11628809Y-9862048D01*
X11638333Y-9843000D01*
X11657381Y-9814429D01*
X11666905Y-9804905D01*
X11724048Y-9833476D02*
X11847857Y-9833476D01*
X11781190Y-9909667D01*
X11809762Y-9909667D01*
X11828809Y-9919190D01*
X11838333Y-9928714D01*
X11847857Y-9947762D01*
X11847857Y-9995381D01*
X11838333Y-10014429D01*
X11828809Y-10023952D01*
X11809762Y-10033476D01*
X11752619Y-10033476D01*
X11733571Y-10023952D01*
X11724048Y-10014429D01*
X11943095Y-10033476D02*
X11981190Y-10033476D01*
X12000238Y-10023952D01*
X12009762Y-10014429D01*
X12028809Y-9985857D01*
X12038333Y-9947762D01*
X12038333Y-9871571D01*
X12028809Y-9852524D01*
X12019286Y-9843000D01*
X12000238Y-9833476D01*
X11962143Y-9833476D01*
X11943095Y-9843000D01*
X11933571Y-9852524D01*
X11924048Y-9871571D01*
X11924048Y-9919190D01*
X11933571Y-9938238D01*
X11943095Y-9947762D01*
X11962143Y-9957286D01*
X12000238Y-9957286D01*
X12019286Y-9947762D01*
X12028809Y-9938238D01*
X12038333Y-9919190D01*
X12276428Y-10033476D02*
X12276428Y-9833476D01*
X12362143Y-10033476D02*
X12362143Y-9928714D01*
X12352619Y-9909667D01*
X12333571Y-9900143D01*
X12305000Y-9900143D01*
X12285952Y-9909667D01*
X12276428Y-9919190D01*
X12485952Y-10033476D02*
X12466905Y-10023952D01*
X12457381Y-10014429D01*
X12447857Y-9995381D01*
X12447857Y-9938238D01*
X12457381Y-9919190D01*
X12466905Y-9909667D01*
X12485952Y-9900143D01*
X12514524Y-9900143D01*
X12533571Y-9909667D01*
X12543095Y-9919190D01*
X12552619Y-9938238D01*
X12552619Y-9995381D01*
X12543095Y-10014429D01*
X12533571Y-10023952D01*
X12514524Y-10033476D01*
X12485952Y-10033476D01*
X12666905Y-10033476D02*
X12647857Y-10023952D01*
X12638333Y-10004905D01*
X12638333Y-9833476D01*
X12819286Y-10023952D02*
X12800238Y-10033476D01*
X12762143Y-10033476D01*
X12743095Y-10023952D01*
X12733571Y-10004905D01*
X12733571Y-9928714D01*
X12743095Y-9909667D01*
X12762143Y-9900143D01*
X12800238Y-9900143D01*
X12819286Y-9909667D01*
X12828809Y-9928714D01*
X12828809Y-9947762D01*
X12733571Y-9966810D01*
X12905000Y-10023952D02*
X12924048Y-10033476D01*
X12962143Y-10033476D01*
X12981190Y-10023952D01*
X12990714Y-10004905D01*
X12990714Y-9995381D01*
X12981190Y-9976333D01*
X12962143Y-9966810D01*
X12933571Y-9966810D01*
X12914524Y-9957286D01*
X12905000Y-9938238D01*
X12905000Y-9928714D01*
X12914524Y-9909667D01*
X12933571Y-9900143D01*
X12962143Y-9900143D01*
X12981190Y-9909667D01*
X13057381Y-10109667D02*
X13066905Y-10100143D01*
X13085952Y-10071571D01*
X13095476Y-10052524D01*
X13105000Y-10023952D01*
X13114524Y-9976333D01*
X13114524Y-9938238D01*
X13105000Y-9890619D01*
X13095476Y-9862048D01*
X13085952Y-9843000D01*
X13066905Y-9814429D01*
X13057381Y-9804905D01*
D19*
X7993400Y-10156200D02*
X8095000Y-10257800D01*
X8095000Y-10156200D02*
X7993400Y-10257800D01*
X8044200Y-10257800D02*
X8095000Y-10207000D01*
X8044200Y-10156200D01*
X7993400Y-10207000D01*
X8044200Y-10257800D01*
D11*
X8457381Y-10297476D02*
X8343095Y-10297476D01*
X8400238Y-10297476D02*
X8400238Y-10097476D01*
X8381190Y-10126048D01*
X8362143Y-10145095D01*
X8343095Y-10154619D01*
X8543095Y-10278429D02*
X8552619Y-10287952D01*
X8543095Y-10297476D01*
X8533571Y-10287952D01*
X8543095Y-10278429D01*
X8543095Y-10297476D01*
X8676429Y-10097476D02*
X8695476Y-10097476D01*
X8714524Y-10107000D01*
X8724048Y-10116524D01*
X8733571Y-10135571D01*
X8743095Y-10173667D01*
X8743095Y-10221286D01*
X8733571Y-10259381D01*
X8724048Y-10278429D01*
X8714524Y-10287952D01*
X8695476Y-10297476D01*
X8676429Y-10297476D01*
X8657381Y-10287952D01*
X8647857Y-10278429D01*
X8638333Y-10259381D01*
X8628810Y-10221286D01*
X8628810Y-10173667D01*
X8638333Y-10135571D01*
X8647857Y-10116524D01*
X8657381Y-10107000D01*
X8676429Y-10097476D01*
X8933571Y-10297476D02*
X8819286Y-10297476D01*
X8876429Y-10297476D02*
X8876429Y-10097476D01*
X8857381Y-10126048D01*
X8838333Y-10145095D01*
X8819286Y-10154619D01*
X9105000Y-10097476D02*
X9066905Y-10097476D01*
X9047857Y-10107000D01*
X9038333Y-10116524D01*
X9019286Y-10145095D01*
X9009762Y-10183190D01*
X9009762Y-10259381D01*
X9019286Y-10278429D01*
X9028810Y-10287952D01*
X9047857Y-10297476D01*
X9085952Y-10297476D01*
X9105000Y-10287952D01*
X9114524Y-10278429D01*
X9124048Y-10259381D01*
X9124048Y-10211762D01*
X9114524Y-10192714D01*
X9105000Y-10183190D01*
X9085952Y-10173667D01*
X9047857Y-10173667D01*
X9028810Y-10183190D01*
X9019286Y-10192714D01*
X9009762Y-10211762D01*
X9209762Y-10297476D02*
X9209762Y-10164143D01*
X9209762Y-10183190D02*
X9219286Y-10173667D01*
X9238333Y-10164143D01*
X9266905Y-10164143D01*
X9285952Y-10173667D01*
X9295476Y-10192714D01*
X9295476Y-10297476D01*
X9295476Y-10192714D02*
X9305000Y-10173667D01*
X9324048Y-10164143D01*
X9352619Y-10164143D01*
X9371667Y-10173667D01*
X9381190Y-10192714D01*
X9381190Y-10297476D01*
X9476429Y-10297476D02*
X9476429Y-10164143D01*
X9476429Y-10183190D02*
X9485952Y-10173667D01*
X9505000Y-10164143D01*
X9533571Y-10164143D01*
X9552619Y-10173667D01*
X9562143Y-10192714D01*
X9562143Y-10297476D01*
X9562143Y-10192714D02*
X9571667Y-10173667D01*
X9590714Y-10164143D01*
X9619286Y-10164143D01*
X9638333Y-10173667D01*
X9647857Y-10192714D01*
X9647857Y-10297476D01*
X10038333Y-10087952D02*
X9866905Y-10345095D01*
X10295476Y-10097476D02*
X10314524Y-10097476D01*
X10333571Y-10107000D01*
X10343095Y-10116524D01*
X10352619Y-10135571D01*
X10362143Y-10173667D01*
X10362143Y-10221286D01*
X10352619Y-10259381D01*
X10343095Y-10278429D01*
X10333571Y-10287952D01*
X10314524Y-10297476D01*
X10295476Y-10297476D01*
X10276429Y-10287952D01*
X10266905Y-10278429D01*
X10257381Y-10259381D01*
X10247857Y-10221286D01*
X10247857Y-10173667D01*
X10257381Y-10135571D01*
X10266905Y-10116524D01*
X10276429Y-10107000D01*
X10295476Y-10097476D01*
X10447857Y-10278429D02*
X10457381Y-10287952D01*
X10447857Y-10297476D01*
X10438333Y-10287952D01*
X10447857Y-10278429D01*
X10447857Y-10297476D01*
X10581190Y-10097476D02*
X10600238Y-10097476D01*
X10619286Y-10107000D01*
X10628810Y-10116524D01*
X10638333Y-10135571D01*
X10647857Y-10173667D01*
X10647857Y-10221286D01*
X10638333Y-10259381D01*
X10628810Y-10278429D01*
X10619286Y-10287952D01*
X10600238Y-10297476D01*
X10581190Y-10297476D01*
X10562143Y-10287952D01*
X10552619Y-10278429D01*
X10543095Y-10259381D01*
X10533571Y-10221286D01*
X10533571Y-10173667D01*
X10543095Y-10135571D01*
X10552619Y-10116524D01*
X10562143Y-10107000D01*
X10581190Y-10097476D01*
X10819286Y-10164143D02*
X10819286Y-10297476D01*
X10771667Y-10087952D02*
X10724048Y-10230810D01*
X10847857Y-10230810D01*
X10962143Y-10097476D02*
X10981190Y-10097476D01*
X11000238Y-10107000D01*
X11009762Y-10116524D01*
X11019286Y-10135571D01*
X11028810Y-10173667D01*
X11028810Y-10221286D01*
X11019286Y-10259381D01*
X11009762Y-10278429D01*
X11000238Y-10287952D01*
X10981190Y-10297476D01*
X10962143Y-10297476D01*
X10943095Y-10287952D01*
X10933571Y-10278429D01*
X10924048Y-10259381D01*
X10914524Y-10221286D01*
X10914524Y-10173667D01*
X10924048Y-10135571D01*
X10933571Y-10116524D01*
X10943095Y-10107000D01*
X10962143Y-10097476D01*
X11152619Y-10097476D02*
X11171667Y-10097476D01*
X11190714Y-10107000D01*
X11200238Y-10116524D01*
X11209762Y-10135571D01*
X11219286Y-10173667D01*
X11219286Y-10221286D01*
X11209762Y-10259381D01*
X11200238Y-10278429D01*
X11190714Y-10287952D01*
X11171667Y-10297476D01*
X11152619Y-10297476D01*
X11133571Y-10287952D01*
X11124048Y-10278429D01*
X11114524Y-10259381D01*
X11105000Y-10221286D01*
X11105000Y-10173667D01*
X11114524Y-10135571D01*
X11124048Y-10116524D01*
X11133571Y-10107000D01*
X11152619Y-10097476D01*
X11295476Y-10097476D02*
X11295476Y-10135571D01*
X11371667Y-10097476D02*
X11371667Y-10135571D01*
X11666905Y-10373667D02*
X11657381Y-10364143D01*
X11638333Y-10335571D01*
X11628809Y-10316524D01*
X11619286Y-10287952D01*
X11609762Y-10240333D01*
X11609762Y-10202238D01*
X11619286Y-10154619D01*
X11628809Y-10126048D01*
X11638333Y-10107000D01*
X11657381Y-10078429D01*
X11666905Y-10068905D01*
X11724048Y-10097476D02*
X11857381Y-10097476D01*
X11771667Y-10297476D01*
X12085952Y-10297476D02*
X12085952Y-10097476D01*
X12171667Y-10297476D02*
X12171667Y-10192714D01*
X12162143Y-10173667D01*
X12143095Y-10164143D01*
X12114524Y-10164143D01*
X12095476Y-10173667D01*
X12085952Y-10183190D01*
X12295476Y-10297476D02*
X12276428Y-10287952D01*
X12266905Y-10278429D01*
X12257381Y-10259381D01*
X12257381Y-10202238D01*
X12266905Y-10183190D01*
X12276428Y-10173667D01*
X12295476Y-10164143D01*
X12324048Y-10164143D01*
X12343095Y-10173667D01*
X12352619Y-10183190D01*
X12362143Y-10202238D01*
X12362143Y-10259381D01*
X12352619Y-10278429D01*
X12343095Y-10287952D01*
X12324048Y-10297476D01*
X12295476Y-10297476D01*
X12476428Y-10297476D02*
X12457381Y-10287952D01*
X12447857Y-10268905D01*
X12447857Y-10097476D01*
X12628809Y-10287952D02*
X12609762Y-10297476D01*
X12571667Y-10297476D01*
X12552619Y-10287952D01*
X12543095Y-10268905D01*
X12543095Y-10192714D01*
X12552619Y-10173667D01*
X12571667Y-10164143D01*
X12609762Y-10164143D01*
X12628809Y-10173667D01*
X12638333Y-10192714D01*
X12638333Y-10211762D01*
X12543095Y-10230810D01*
X12714524Y-10287952D02*
X12733571Y-10297476D01*
X12771667Y-10297476D01*
X12790714Y-10287952D01*
X12800238Y-10268905D01*
X12800238Y-10259381D01*
X12790714Y-10240333D01*
X12771667Y-10230810D01*
X12743095Y-10230810D01*
X12724048Y-10221286D01*
X12714524Y-10202238D01*
X12714524Y-10192714D01*
X12724048Y-10173667D01*
X12743095Y-10164143D01*
X12771667Y-10164143D01*
X12790714Y-10173667D01*
X12866905Y-10373667D02*
X12876428Y-10364143D01*
X12895476Y-10335571D01*
X12905000Y-10316524D01*
X12914524Y-10287952D01*
X12924048Y-10240333D01*
X12924048Y-10202238D01*
X12914524Y-10154619D01*
X12905000Y-10126048D01*
X12895476Y-10107000D01*
X12876428Y-10078429D01*
X12866905Y-10068905D01*
D20*
X8020000Y-10396000D02*
X8020000Y-10546000D01*
X7945000Y-10471000D02*
X8095000Y-10471000D01*
X8095000Y-10471000D02*
G75*
G03*
X8095000Y-10471000I-75000J0D01*
G01*
D11*
X8457381Y-10561476D02*
X8343095Y-10561476D01*
X8400238Y-10561476D02*
X8400238Y-10361476D01*
X8381190Y-10390048D01*
X8362143Y-10409095D01*
X8343095Y-10418619D01*
X8543095Y-10542429D02*
X8552619Y-10551952D01*
X8543095Y-10561476D01*
X8533571Y-10551952D01*
X8543095Y-10542429D01*
X8543095Y-10561476D01*
X8733571Y-10361476D02*
X8638333Y-10361476D01*
X8628810Y-10456714D01*
X8638333Y-10447190D01*
X8657381Y-10437667D01*
X8705000Y-10437667D01*
X8724048Y-10447190D01*
X8733571Y-10456714D01*
X8743095Y-10475762D01*
X8743095Y-10523381D01*
X8733571Y-10542429D01*
X8724048Y-10551952D01*
X8705000Y-10561476D01*
X8657381Y-10561476D01*
X8638333Y-10551952D01*
X8628810Y-10542429D01*
X8866905Y-10361476D02*
X8885952Y-10361476D01*
X8905000Y-10371000D01*
X8914524Y-10380524D01*
X8924048Y-10399571D01*
X8933571Y-10437667D01*
X8933571Y-10485286D01*
X8924048Y-10523381D01*
X8914524Y-10542429D01*
X8905000Y-10551952D01*
X8885952Y-10561476D01*
X8866905Y-10561476D01*
X8847857Y-10551952D01*
X8838333Y-10542429D01*
X8828810Y-10523381D01*
X8819286Y-10485286D01*
X8819286Y-10437667D01*
X8828810Y-10399571D01*
X8838333Y-10380524D01*
X8847857Y-10371000D01*
X8866905Y-10361476D01*
X9057381Y-10361476D02*
X9076429Y-10361476D01*
X9095476Y-10371000D01*
X9105000Y-10380524D01*
X9114524Y-10399571D01*
X9124048Y-10437667D01*
X9124048Y-10485286D01*
X9114524Y-10523381D01*
X9105000Y-10542429D01*
X9095476Y-10551952D01*
X9076429Y-10561476D01*
X9057381Y-10561476D01*
X9038333Y-10551952D01*
X9028810Y-10542429D01*
X9019286Y-10523381D01*
X9009762Y-10485286D01*
X9009762Y-10437667D01*
X9019286Y-10399571D01*
X9028810Y-10380524D01*
X9038333Y-10371000D01*
X9057381Y-10361476D01*
X9209762Y-10561476D02*
X9209762Y-10428143D01*
X9209762Y-10447190D02*
X9219286Y-10437667D01*
X9238333Y-10428143D01*
X9266905Y-10428143D01*
X9285952Y-10437667D01*
X9295476Y-10456714D01*
X9295476Y-10561476D01*
X9295476Y-10456714D02*
X9305000Y-10437667D01*
X9324048Y-10428143D01*
X9352619Y-10428143D01*
X9371667Y-10437667D01*
X9381190Y-10456714D01*
X9381190Y-10561476D01*
X9476429Y-10561476D02*
X9476429Y-10428143D01*
X9476429Y-10447190D02*
X9485952Y-10437667D01*
X9505000Y-10428143D01*
X9533571Y-10428143D01*
X9552619Y-10437667D01*
X9562143Y-10456714D01*
X9562143Y-10561476D01*
X9562143Y-10456714D02*
X9571667Y-10437667D01*
X9590714Y-10428143D01*
X9619286Y-10428143D01*
X9638333Y-10437667D01*
X9647857Y-10456714D01*
X9647857Y-10561476D01*
X10038333Y-10351952D02*
X9866905Y-10609095D01*
X10295476Y-10361476D02*
X10314524Y-10361476D01*
X10333571Y-10371000D01*
X10343095Y-10380524D01*
X10352619Y-10399571D01*
X10362143Y-10437667D01*
X10362143Y-10485286D01*
X10352619Y-10523381D01*
X10343095Y-10542429D01*
X10333571Y-10551952D01*
X10314524Y-10561476D01*
X10295476Y-10561476D01*
X10276429Y-10551952D01*
X10266905Y-10542429D01*
X10257381Y-10523381D01*
X10247857Y-10485286D01*
X10247857Y-10437667D01*
X10257381Y-10399571D01*
X10266905Y-10380524D01*
X10276429Y-10371000D01*
X10295476Y-10361476D01*
X10447857Y-10542429D02*
X10457381Y-10551952D01*
X10447857Y-10561476D01*
X10438333Y-10551952D01*
X10447857Y-10542429D01*
X10447857Y-10561476D01*
X10581190Y-10361476D02*
X10600238Y-10361476D01*
X10619286Y-10371000D01*
X10628810Y-10380524D01*
X10638333Y-10399571D01*
X10647857Y-10437667D01*
X10647857Y-10485286D01*
X10638333Y-10523381D01*
X10628810Y-10542429D01*
X10619286Y-10551952D01*
X10600238Y-10561476D01*
X10581190Y-10561476D01*
X10562143Y-10551952D01*
X10552619Y-10542429D01*
X10543095Y-10523381D01*
X10533571Y-10485286D01*
X10533571Y-10437667D01*
X10543095Y-10399571D01*
X10552619Y-10380524D01*
X10562143Y-10371000D01*
X10581190Y-10361476D01*
X10828810Y-10361476D02*
X10733571Y-10361476D01*
X10724048Y-10456714D01*
X10733571Y-10447190D01*
X10752619Y-10437667D01*
X10800238Y-10437667D01*
X10819286Y-10447190D01*
X10828810Y-10456714D01*
X10838333Y-10475762D01*
X10838333Y-10523381D01*
X10828810Y-10542429D01*
X10819286Y-10551952D01*
X10800238Y-10561476D01*
X10752619Y-10561476D01*
X10733571Y-10551952D01*
X10724048Y-10542429D01*
X10933571Y-10561476D02*
X10971667Y-10561476D01*
X10990714Y-10551952D01*
X11000238Y-10542429D01*
X11019286Y-10513857D01*
X11028810Y-10475762D01*
X11028810Y-10399571D01*
X11019286Y-10380524D01*
X11009762Y-10371000D01*
X10990714Y-10361476D01*
X10952619Y-10361476D01*
X10933571Y-10371000D01*
X10924048Y-10380524D01*
X10914524Y-10399571D01*
X10914524Y-10447190D01*
X10924048Y-10466238D01*
X10933571Y-10475762D01*
X10952619Y-10485286D01*
X10990714Y-10485286D01*
X11009762Y-10475762D01*
X11019286Y-10466238D01*
X11028810Y-10447190D01*
X11219286Y-10561476D02*
X11105000Y-10561476D01*
X11162143Y-10561476D02*
X11162143Y-10361476D01*
X11143095Y-10390048D01*
X11124048Y-10409095D01*
X11105000Y-10418619D01*
X11295476Y-10361476D02*
X11295476Y-10399571D01*
X11371667Y-10361476D02*
X11371667Y-10399571D01*
X11666905Y-10637667D02*
X11657381Y-10628143D01*
X11638333Y-10599571D01*
X11628809Y-10580524D01*
X11619286Y-10551952D01*
X11609762Y-10504333D01*
X11609762Y-10466238D01*
X11619286Y-10418619D01*
X11628809Y-10390048D01*
X11638333Y-10371000D01*
X11657381Y-10342429D01*
X11666905Y-10332905D01*
X11847857Y-10561476D02*
X11733571Y-10561476D01*
X11790714Y-10561476D02*
X11790714Y-10361476D01*
X11771667Y-10390048D01*
X11752619Y-10409095D01*
X11733571Y-10418619D01*
X11962143Y-10447190D02*
X11943095Y-10437667D01*
X11933571Y-10428143D01*
X11924048Y-10409095D01*
X11924048Y-10399571D01*
X11933571Y-10380524D01*
X11943095Y-10371000D01*
X11962143Y-10361476D01*
X12000238Y-10361476D01*
X12019286Y-10371000D01*
X12028809Y-10380524D01*
X12038333Y-10399571D01*
X12038333Y-10409095D01*
X12028809Y-10428143D01*
X12019286Y-10437667D01*
X12000238Y-10447190D01*
X11962143Y-10447190D01*
X11943095Y-10456714D01*
X11933571Y-10466238D01*
X11924048Y-10485286D01*
X11924048Y-10523381D01*
X11933571Y-10542429D01*
X11943095Y-10551952D01*
X11962143Y-10561476D01*
X12000238Y-10561476D01*
X12019286Y-10551952D01*
X12028809Y-10542429D01*
X12038333Y-10523381D01*
X12038333Y-10485286D01*
X12028809Y-10466238D01*
X12019286Y-10456714D01*
X12000238Y-10447190D01*
X12276428Y-10561476D02*
X12276428Y-10361476D01*
X12362143Y-10561476D02*
X12362143Y-10456714D01*
X12352619Y-10437667D01*
X12333571Y-10428143D01*
X12305000Y-10428143D01*
X12285952Y-10437667D01*
X12276428Y-10447190D01*
X12485952Y-10561476D02*
X12466905Y-10551952D01*
X12457381Y-10542429D01*
X12447857Y-10523381D01*
X12447857Y-10466238D01*
X12457381Y-10447190D01*
X12466905Y-10437667D01*
X12485952Y-10428143D01*
X12514524Y-10428143D01*
X12533571Y-10437667D01*
X12543095Y-10447190D01*
X12552619Y-10466238D01*
X12552619Y-10523381D01*
X12543095Y-10542429D01*
X12533571Y-10551952D01*
X12514524Y-10561476D01*
X12485952Y-10561476D01*
X12666905Y-10561476D02*
X12647857Y-10551952D01*
X12638333Y-10532905D01*
X12638333Y-10361476D01*
X12819286Y-10551952D02*
X12800238Y-10561476D01*
X12762143Y-10561476D01*
X12743095Y-10551952D01*
X12733571Y-10532905D01*
X12733571Y-10456714D01*
X12743095Y-10437667D01*
X12762143Y-10428143D01*
X12800238Y-10428143D01*
X12819286Y-10437667D01*
X12828809Y-10456714D01*
X12828809Y-10475762D01*
X12733571Y-10494810D01*
X12905000Y-10551952D02*
X12924048Y-10561476D01*
X12962143Y-10561476D01*
X12981190Y-10551952D01*
X12990714Y-10532905D01*
X12990714Y-10523381D01*
X12981190Y-10504333D01*
X12962143Y-10494810D01*
X12933571Y-10494810D01*
X12914524Y-10485286D01*
X12905000Y-10466238D01*
X12905000Y-10456714D01*
X12914524Y-10437667D01*
X12933571Y-10428143D01*
X12962143Y-10428143D01*
X12981190Y-10437667D01*
X13057381Y-10637667D02*
X13066905Y-10628143D01*
X13085952Y-10599571D01*
X13095476Y-10580524D01*
X13105000Y-10551952D01*
X13114524Y-10504333D01*
X13114524Y-10466238D01*
X13105000Y-10418619D01*
X13095476Y-10390048D01*
X13085952Y-10371000D01*
X13066905Y-10342429D01*
X13057381Y-10332905D01*
D21*
X8071569Y-10797569D02*
X8071569Y-10684431D01*
X7958431Y-10684431D01*
X7958431Y-10797569D01*
X8071569Y-10797569D01*
X8095000Y-10741000D02*
G75*
G03*
X8095000Y-10741000I-80000J0D01*
G01*
D11*
X8457381Y-10831476D02*
X8343095Y-10831476D01*
X8400238Y-10831476D02*
X8400238Y-10631476D01*
X8381190Y-10660048D01*
X8362143Y-10679095D01*
X8343095Y-10688619D01*
X8543095Y-10812429D02*
X8552619Y-10821952D01*
X8543095Y-10831476D01*
X8533571Y-10821952D01*
X8543095Y-10812429D01*
X8543095Y-10831476D01*
X8724048Y-10631476D02*
X8685952Y-10631476D01*
X8666905Y-10641000D01*
X8657381Y-10650524D01*
X8638333Y-10679095D01*
X8628810Y-10717190D01*
X8628810Y-10793381D01*
X8638333Y-10812429D01*
X8647857Y-10821952D01*
X8666905Y-10831476D01*
X8705000Y-10831476D01*
X8724048Y-10821952D01*
X8733571Y-10812429D01*
X8743095Y-10793381D01*
X8743095Y-10745762D01*
X8733571Y-10726714D01*
X8724048Y-10717190D01*
X8705000Y-10707667D01*
X8666905Y-10707667D01*
X8647857Y-10717190D01*
X8638333Y-10726714D01*
X8628810Y-10745762D01*
X8866905Y-10631476D02*
X8885952Y-10631476D01*
X8905000Y-10641000D01*
X8914524Y-10650524D01*
X8924048Y-10669571D01*
X8933571Y-10707667D01*
X8933571Y-10755286D01*
X8924048Y-10793381D01*
X8914524Y-10812429D01*
X8905000Y-10821952D01*
X8885952Y-10831476D01*
X8866905Y-10831476D01*
X8847857Y-10821952D01*
X8838333Y-10812429D01*
X8828810Y-10793381D01*
X8819286Y-10755286D01*
X8819286Y-10707667D01*
X8828810Y-10669571D01*
X8838333Y-10650524D01*
X8847857Y-10641000D01*
X8866905Y-10631476D01*
X9057381Y-10631476D02*
X9076429Y-10631476D01*
X9095476Y-10641000D01*
X9105000Y-10650524D01*
X9114524Y-10669571D01*
X9124048Y-10707667D01*
X9124048Y-10755286D01*
X9114524Y-10793381D01*
X9105000Y-10812429D01*
X9095476Y-10821952D01*
X9076429Y-10831476D01*
X9057381Y-10831476D01*
X9038333Y-10821952D01*
X9028810Y-10812429D01*
X9019286Y-10793381D01*
X9009762Y-10755286D01*
X9009762Y-10707667D01*
X9019286Y-10669571D01*
X9028810Y-10650524D01*
X9038333Y-10641000D01*
X9057381Y-10631476D01*
X9209762Y-10831476D02*
X9209762Y-10698143D01*
X9209762Y-10717190D02*
X9219286Y-10707667D01*
X9238333Y-10698143D01*
X9266905Y-10698143D01*
X9285952Y-10707667D01*
X9295476Y-10726714D01*
X9295476Y-10831476D01*
X9295476Y-10726714D02*
X9305000Y-10707667D01*
X9324048Y-10698143D01*
X9352619Y-10698143D01*
X9371667Y-10707667D01*
X9381190Y-10726714D01*
X9381190Y-10831476D01*
X9476429Y-10831476D02*
X9476429Y-10698143D01*
X9476429Y-10717190D02*
X9485952Y-10707667D01*
X9505000Y-10698143D01*
X9533571Y-10698143D01*
X9552619Y-10707667D01*
X9562143Y-10726714D01*
X9562143Y-10831476D01*
X9562143Y-10726714D02*
X9571667Y-10707667D01*
X9590714Y-10698143D01*
X9619286Y-10698143D01*
X9638333Y-10707667D01*
X9647857Y-10726714D01*
X9647857Y-10831476D01*
X10038333Y-10621952D02*
X9866905Y-10879095D01*
X10295476Y-10631476D02*
X10314524Y-10631476D01*
X10333571Y-10641000D01*
X10343095Y-10650524D01*
X10352619Y-10669571D01*
X10362143Y-10707667D01*
X10362143Y-10755286D01*
X10352619Y-10793381D01*
X10343095Y-10812429D01*
X10333571Y-10821952D01*
X10314524Y-10831476D01*
X10295476Y-10831476D01*
X10276429Y-10821952D01*
X10266905Y-10812429D01*
X10257381Y-10793381D01*
X10247857Y-10755286D01*
X10247857Y-10707667D01*
X10257381Y-10669571D01*
X10266905Y-10650524D01*
X10276429Y-10641000D01*
X10295476Y-10631476D01*
X10447857Y-10812429D02*
X10457381Y-10821952D01*
X10447857Y-10831476D01*
X10438333Y-10821952D01*
X10447857Y-10812429D01*
X10447857Y-10831476D01*
X10581190Y-10631476D02*
X10600238Y-10631476D01*
X10619286Y-10641000D01*
X10628810Y-10650524D01*
X10638333Y-10669571D01*
X10647857Y-10707667D01*
X10647857Y-10755286D01*
X10638333Y-10793381D01*
X10628810Y-10812429D01*
X10619286Y-10821952D01*
X10600238Y-10831476D01*
X10581190Y-10831476D01*
X10562143Y-10821952D01*
X10552619Y-10812429D01*
X10543095Y-10793381D01*
X10533571Y-10755286D01*
X10533571Y-10707667D01*
X10543095Y-10669571D01*
X10552619Y-10650524D01*
X10562143Y-10641000D01*
X10581190Y-10631476D01*
X10819286Y-10631476D02*
X10781190Y-10631476D01*
X10762143Y-10641000D01*
X10752619Y-10650524D01*
X10733571Y-10679095D01*
X10724048Y-10717190D01*
X10724048Y-10793381D01*
X10733571Y-10812429D01*
X10743095Y-10821952D01*
X10762143Y-10831476D01*
X10800238Y-10831476D01*
X10819286Y-10821952D01*
X10828810Y-10812429D01*
X10838333Y-10793381D01*
X10838333Y-10745762D01*
X10828810Y-10726714D01*
X10819286Y-10717190D01*
X10800238Y-10707667D01*
X10762143Y-10707667D01*
X10743095Y-10717190D01*
X10733571Y-10726714D01*
X10724048Y-10745762D01*
X10905000Y-10631476D02*
X11028810Y-10631476D01*
X10962143Y-10707667D01*
X10990714Y-10707667D01*
X11009762Y-10717190D01*
X11019286Y-10726714D01*
X11028810Y-10745762D01*
X11028810Y-10793381D01*
X11019286Y-10812429D01*
X11009762Y-10821952D01*
X10990714Y-10831476D01*
X10933571Y-10831476D01*
X10914524Y-10821952D01*
X10905000Y-10812429D01*
X11152619Y-10631476D02*
X11171667Y-10631476D01*
X11190714Y-10641000D01*
X11200238Y-10650524D01*
X11209762Y-10669571D01*
X11219286Y-10707667D01*
X11219286Y-10755286D01*
X11209762Y-10793381D01*
X11200238Y-10812429D01*
X11190714Y-10821952D01*
X11171667Y-10831476D01*
X11152619Y-10831476D01*
X11133571Y-10821952D01*
X11124048Y-10812429D01*
X11114524Y-10793381D01*
X11105000Y-10755286D01*
X11105000Y-10707667D01*
X11114524Y-10669571D01*
X11124048Y-10650524D01*
X11133571Y-10641000D01*
X11152619Y-10631476D01*
X11295476Y-10631476D02*
X11295476Y-10669571D01*
X11371667Y-10631476D02*
X11371667Y-10669571D01*
X11666905Y-10907667D02*
X11657381Y-10898143D01*
X11638333Y-10869571D01*
X11628809Y-10850524D01*
X11619286Y-10821952D01*
X11609762Y-10774333D01*
X11609762Y-10736238D01*
X11619286Y-10688619D01*
X11628809Y-10660048D01*
X11638333Y-10641000D01*
X11657381Y-10612429D01*
X11666905Y-10602905D01*
X11828809Y-10698143D02*
X11828809Y-10831476D01*
X11781190Y-10621952D02*
X11733571Y-10764810D01*
X11857381Y-10764810D01*
X12085952Y-10831476D02*
X12085952Y-10631476D01*
X12171667Y-10831476D02*
X12171667Y-10726714D01*
X12162143Y-10707667D01*
X12143095Y-10698143D01*
X12114524Y-10698143D01*
X12095476Y-10707667D01*
X12085952Y-10717190D01*
X12295476Y-10831476D02*
X12276428Y-10821952D01*
X12266905Y-10812429D01*
X12257381Y-10793381D01*
X12257381Y-10736238D01*
X12266905Y-10717190D01*
X12276428Y-10707667D01*
X12295476Y-10698143D01*
X12324048Y-10698143D01*
X12343095Y-10707667D01*
X12352619Y-10717190D01*
X12362143Y-10736238D01*
X12362143Y-10793381D01*
X12352619Y-10812429D01*
X12343095Y-10821952D01*
X12324048Y-10831476D01*
X12295476Y-10831476D01*
X12476428Y-10831476D02*
X12457381Y-10821952D01*
X12447857Y-10802905D01*
X12447857Y-10631476D01*
X12628809Y-10821952D02*
X12609762Y-10831476D01*
X12571667Y-10831476D01*
X12552619Y-10821952D01*
X12543095Y-10802905D01*
X12543095Y-10726714D01*
X12552619Y-10707667D01*
X12571667Y-10698143D01*
X12609762Y-10698143D01*
X12628809Y-10707667D01*
X12638333Y-10726714D01*
X12638333Y-10745762D01*
X12543095Y-10764810D01*
X12714524Y-10821952D02*
X12733571Y-10831476D01*
X12771667Y-10831476D01*
X12790714Y-10821952D01*
X12800238Y-10802905D01*
X12800238Y-10793381D01*
X12790714Y-10774333D01*
X12771667Y-10764810D01*
X12743095Y-10764810D01*
X12724048Y-10755286D01*
X12714524Y-10736238D01*
X12714524Y-10726714D01*
X12724048Y-10707667D01*
X12743095Y-10698143D01*
X12771667Y-10698143D01*
X12790714Y-10707667D01*
X12866905Y-10907667D02*
X12876428Y-10898143D01*
X12895476Y-10869571D01*
X12905000Y-10850524D01*
X12914524Y-10821952D01*
X12924048Y-10774333D01*
X12924048Y-10736238D01*
X12914524Y-10688619D01*
X12905000Y-10660048D01*
X12895476Y-10641000D01*
X12876428Y-10612429D01*
X12866905Y-10602905D01*
D22*
X8012450Y-11103550D02*
X8095000Y-11021000D01*
X8012450Y-10938450D01*
X7929900Y-11021000D01*
X8012450Y-11103550D01*
X8095000Y-11021000D02*
G75*
G03*
X8095000Y-11021000I-82550J0D01*
G01*
D11*
X8457381Y-11111476D02*
X8343095Y-11111476D01*
X8400238Y-11111476D02*
X8400238Y-10911476D01*
X8381190Y-10940048D01*
X8362143Y-10959095D01*
X8343095Y-10968619D01*
X8543095Y-11092429D02*
X8552619Y-11101952D01*
X8543095Y-11111476D01*
X8533571Y-11101952D01*
X8543095Y-11092429D01*
X8543095Y-11111476D01*
X8724048Y-10911476D02*
X8685952Y-10911476D01*
X8666905Y-10921000D01*
X8657381Y-10930524D01*
X8638333Y-10959095D01*
X8628810Y-10997190D01*
X8628810Y-11073381D01*
X8638333Y-11092429D01*
X8647857Y-11101952D01*
X8666905Y-11111476D01*
X8705000Y-11111476D01*
X8724048Y-11101952D01*
X8733571Y-11092429D01*
X8743095Y-11073381D01*
X8743095Y-11025762D01*
X8733571Y-11006714D01*
X8724048Y-10997190D01*
X8705000Y-10987667D01*
X8666905Y-10987667D01*
X8647857Y-10997190D01*
X8638333Y-11006714D01*
X8628810Y-11025762D01*
X8924048Y-10911476D02*
X8828810Y-10911476D01*
X8819286Y-11006714D01*
X8828810Y-10997190D01*
X8847857Y-10987667D01*
X8895476Y-10987667D01*
X8914524Y-10997190D01*
X8924048Y-11006714D01*
X8933571Y-11025762D01*
X8933571Y-11073381D01*
X8924048Y-11092429D01*
X8914524Y-11101952D01*
X8895476Y-11111476D01*
X8847857Y-11111476D01*
X8828810Y-11101952D01*
X8819286Y-11092429D01*
X9124048Y-11111476D02*
X9009762Y-11111476D01*
X9066905Y-11111476D02*
X9066905Y-10911476D01*
X9047857Y-10940048D01*
X9028810Y-10959095D01*
X9009762Y-10968619D01*
X9209762Y-11111476D02*
X9209762Y-10978143D01*
X9209762Y-10997190D02*
X9219286Y-10987667D01*
X9238333Y-10978143D01*
X9266905Y-10978143D01*
X9285952Y-10987667D01*
X9295476Y-11006714D01*
X9295476Y-11111476D01*
X9295476Y-11006714D02*
X9305000Y-10987667D01*
X9324048Y-10978143D01*
X9352619Y-10978143D01*
X9371667Y-10987667D01*
X9381190Y-11006714D01*
X9381190Y-11111476D01*
X9476429Y-11111476D02*
X9476429Y-10978143D01*
X9476429Y-10997190D02*
X9485952Y-10987667D01*
X9505000Y-10978143D01*
X9533571Y-10978143D01*
X9552619Y-10987667D01*
X9562143Y-11006714D01*
X9562143Y-11111476D01*
X9562143Y-11006714D02*
X9571667Y-10987667D01*
X9590714Y-10978143D01*
X9619286Y-10978143D01*
X9638333Y-10987667D01*
X9647857Y-11006714D01*
X9647857Y-11111476D01*
X10038333Y-10901952D02*
X9866905Y-11159095D01*
X10295476Y-10911476D02*
X10314524Y-10911476D01*
X10333571Y-10921000D01*
X10343095Y-10930524D01*
X10352619Y-10949571D01*
X10362143Y-10987667D01*
X10362143Y-11035286D01*
X10352619Y-11073381D01*
X10343095Y-11092429D01*
X10333571Y-11101952D01*
X10314524Y-11111476D01*
X10295476Y-11111476D01*
X10276429Y-11101952D01*
X10266905Y-11092429D01*
X10257381Y-11073381D01*
X10247857Y-11035286D01*
X10247857Y-10987667D01*
X10257381Y-10949571D01*
X10266905Y-10930524D01*
X10276429Y-10921000D01*
X10295476Y-10911476D01*
X10447857Y-11092429D02*
X10457381Y-11101952D01*
X10447857Y-11111476D01*
X10438333Y-11101952D01*
X10447857Y-11092429D01*
X10447857Y-11111476D01*
X10581190Y-10911476D02*
X10600238Y-10911476D01*
X10619286Y-10921000D01*
X10628810Y-10930524D01*
X10638333Y-10949571D01*
X10647857Y-10987667D01*
X10647857Y-11035286D01*
X10638333Y-11073381D01*
X10628810Y-11092429D01*
X10619286Y-11101952D01*
X10600238Y-11111476D01*
X10581190Y-11111476D01*
X10562143Y-11101952D01*
X10552619Y-11092429D01*
X10543095Y-11073381D01*
X10533571Y-11035286D01*
X10533571Y-10987667D01*
X10543095Y-10949571D01*
X10552619Y-10930524D01*
X10562143Y-10921000D01*
X10581190Y-10911476D01*
X10819286Y-10911476D02*
X10781190Y-10911476D01*
X10762143Y-10921000D01*
X10752619Y-10930524D01*
X10733571Y-10959095D01*
X10724048Y-10997190D01*
X10724048Y-11073381D01*
X10733571Y-11092429D01*
X10743095Y-11101952D01*
X10762143Y-11111476D01*
X10800238Y-11111476D01*
X10819286Y-11101952D01*
X10828810Y-11092429D01*
X10838333Y-11073381D01*
X10838333Y-11025762D01*
X10828810Y-11006714D01*
X10819286Y-10997190D01*
X10800238Y-10987667D01*
X10762143Y-10987667D01*
X10743095Y-10997190D01*
X10733571Y-11006714D01*
X10724048Y-11025762D01*
X11019286Y-10911476D02*
X10924048Y-10911476D01*
X10914524Y-11006714D01*
X10924048Y-10997190D01*
X10943095Y-10987667D01*
X10990714Y-10987667D01*
X11009762Y-10997190D01*
X11019286Y-11006714D01*
X11028810Y-11025762D01*
X11028810Y-11073381D01*
X11019286Y-11092429D01*
X11009762Y-11101952D01*
X10990714Y-11111476D01*
X10943095Y-11111476D01*
X10924048Y-11101952D01*
X10914524Y-11092429D01*
X11152619Y-10911476D02*
X11171667Y-10911476D01*
X11190714Y-10921000D01*
X11200238Y-10930524D01*
X11209762Y-10949571D01*
X11219286Y-10987667D01*
X11219286Y-11035286D01*
X11209762Y-11073381D01*
X11200238Y-11092429D01*
X11190714Y-11101952D01*
X11171667Y-11111476D01*
X11152619Y-11111476D01*
X11133571Y-11101952D01*
X11124048Y-11092429D01*
X11114524Y-11073381D01*
X11105000Y-11035286D01*
X11105000Y-10987667D01*
X11114524Y-10949571D01*
X11124048Y-10930524D01*
X11133571Y-10921000D01*
X11152619Y-10911476D01*
X11295476Y-10911476D02*
X11295476Y-10949571D01*
X11371667Y-10911476D02*
X11371667Y-10949571D01*
X11666905Y-11187667D02*
X11657381Y-11178143D01*
X11638333Y-11149571D01*
X11628809Y-11130524D01*
X11619286Y-11101952D01*
X11609762Y-11054333D01*
X11609762Y-11016238D01*
X11619286Y-10968619D01*
X11628809Y-10940048D01*
X11638333Y-10921000D01*
X11657381Y-10892429D01*
X11666905Y-10882905D01*
X11733571Y-10930524D02*
X11743095Y-10921000D01*
X11762143Y-10911476D01*
X11809762Y-10911476D01*
X11828809Y-10921000D01*
X11838333Y-10930524D01*
X11847857Y-10949571D01*
X11847857Y-10968619D01*
X11838333Y-10997190D01*
X11724048Y-11111476D01*
X11847857Y-11111476D01*
X12085952Y-11111476D02*
X12085952Y-10911476D01*
X12171667Y-11111476D02*
X12171667Y-11006714D01*
X12162143Y-10987667D01*
X12143095Y-10978143D01*
X12114524Y-10978143D01*
X12095476Y-10987667D01*
X12085952Y-10997190D01*
X12295476Y-11111476D02*
X12276428Y-11101952D01*
X12266905Y-11092429D01*
X12257381Y-11073381D01*
X12257381Y-11016238D01*
X12266905Y-10997190D01*
X12276428Y-10987667D01*
X12295476Y-10978143D01*
X12324048Y-10978143D01*
X12343095Y-10987667D01*
X12352619Y-10997190D01*
X12362143Y-11016238D01*
X12362143Y-11073381D01*
X12352619Y-11092429D01*
X12343095Y-11101952D01*
X12324048Y-11111476D01*
X12295476Y-11111476D01*
X12476428Y-11111476D02*
X12457381Y-11101952D01*
X12447857Y-11082905D01*
X12447857Y-10911476D01*
X12628809Y-11101952D02*
X12609762Y-11111476D01*
X12571667Y-11111476D01*
X12552619Y-11101952D01*
X12543095Y-11082905D01*
X12543095Y-11006714D01*
X12552619Y-10987667D01*
X12571667Y-10978143D01*
X12609762Y-10978143D01*
X12628809Y-10987667D01*
X12638333Y-11006714D01*
X12638333Y-11025762D01*
X12543095Y-11044810D01*
X12714524Y-11101952D02*
X12733571Y-11111476D01*
X12771667Y-11111476D01*
X12790714Y-11101952D01*
X12800238Y-11082905D01*
X12800238Y-11073381D01*
X12790714Y-11054333D01*
X12771667Y-11044810D01*
X12743095Y-11044810D01*
X12724048Y-11035286D01*
X12714524Y-11016238D01*
X12714524Y-11006714D01*
X12724048Y-10987667D01*
X12743095Y-10978143D01*
X12771667Y-10978143D01*
X12790714Y-10987667D01*
X12866905Y-11187667D02*
X12876428Y-11178143D01*
X12895476Y-11149571D01*
X12905000Y-11130524D01*
X12914524Y-11101952D01*
X12924048Y-11054333D01*
X12924048Y-11016238D01*
X12914524Y-10968619D01*
X12905000Y-10940048D01*
X12895476Y-10921000D01*
X12876428Y-10892429D01*
X12866905Y-10882905D01*
X7995000Y-11206100D02*
X7995000Y-11406100D01*
X7895000Y-11306100D02*
X8095000Y-11306100D01*
X8065711Y-11376811D02*
X8065711Y-11235389D01*
X7924289Y-11235389D01*
X7924289Y-11376811D01*
X8065711Y-11376811D01*
X8333571Y-11196576D02*
X8457381Y-11196576D01*
X8390714Y-11272767D01*
X8419286Y-11272767D01*
X8438333Y-11282290D01*
X8447857Y-11291814D01*
X8457381Y-11310862D01*
X8457381Y-11358481D01*
X8447857Y-11377528D01*
X8438333Y-11387052D01*
X8419286Y-11396576D01*
X8362143Y-11396576D01*
X8343095Y-11387052D01*
X8333571Y-11377528D01*
X8543095Y-11377528D02*
X8552619Y-11387052D01*
X8543095Y-11396576D01*
X8533571Y-11387052D01*
X8543095Y-11377528D01*
X8543095Y-11396576D01*
X8628810Y-11215624D02*
X8638333Y-11206100D01*
X8657381Y-11196576D01*
X8705000Y-11196576D01*
X8724048Y-11206100D01*
X8733571Y-11215624D01*
X8743095Y-11234671D01*
X8743095Y-11253719D01*
X8733571Y-11282290D01*
X8619286Y-11396576D01*
X8743095Y-11396576D01*
X8866905Y-11196576D02*
X8885952Y-11196576D01*
X8905000Y-11206100D01*
X8914524Y-11215624D01*
X8924048Y-11234671D01*
X8933571Y-11272767D01*
X8933571Y-11320386D01*
X8924048Y-11358481D01*
X8914524Y-11377528D01*
X8905000Y-11387052D01*
X8885952Y-11396576D01*
X8866905Y-11396576D01*
X8847857Y-11387052D01*
X8838333Y-11377528D01*
X8828810Y-11358481D01*
X8819286Y-11320386D01*
X8819286Y-11272767D01*
X8828810Y-11234671D01*
X8838333Y-11215624D01*
X8847857Y-11206100D01*
X8866905Y-11196576D01*
X9057381Y-11196576D02*
X9076429Y-11196576D01*
X9095476Y-11206100D01*
X9105000Y-11215624D01*
X9114524Y-11234671D01*
X9124048Y-11272767D01*
X9124048Y-11320386D01*
X9114524Y-11358481D01*
X9105000Y-11377528D01*
X9095476Y-11387052D01*
X9076429Y-11396576D01*
X9057381Y-11396576D01*
X9038333Y-11387052D01*
X9028810Y-11377528D01*
X9019286Y-11358481D01*
X9009762Y-11320386D01*
X9009762Y-11272767D01*
X9019286Y-11234671D01*
X9028810Y-11215624D01*
X9038333Y-11206100D01*
X9057381Y-11196576D01*
X9209762Y-11396576D02*
X9209762Y-11263243D01*
X9209762Y-11282290D02*
X9219286Y-11272767D01*
X9238333Y-11263243D01*
X9266905Y-11263243D01*
X9285952Y-11272767D01*
X9295476Y-11291814D01*
X9295476Y-11396576D01*
X9295476Y-11291814D02*
X9305000Y-11272767D01*
X9324048Y-11263243D01*
X9352619Y-11263243D01*
X9371667Y-11272767D01*
X9381190Y-11291814D01*
X9381190Y-11396576D01*
X9476429Y-11396576D02*
X9476429Y-11263243D01*
X9476429Y-11282290D02*
X9485952Y-11272767D01*
X9505000Y-11263243D01*
X9533571Y-11263243D01*
X9552619Y-11272767D01*
X9562143Y-11291814D01*
X9562143Y-11396576D01*
X9562143Y-11291814D02*
X9571667Y-11272767D01*
X9590714Y-11263243D01*
X9619286Y-11263243D01*
X9638333Y-11272767D01*
X9647857Y-11291814D01*
X9647857Y-11396576D01*
X10038333Y-11187052D02*
X9866905Y-11444195D01*
X10295476Y-11196576D02*
X10314524Y-11196576D01*
X10333571Y-11206100D01*
X10343095Y-11215624D01*
X10352619Y-11234671D01*
X10362143Y-11272767D01*
X10362143Y-11320386D01*
X10352619Y-11358481D01*
X10343095Y-11377528D01*
X10333571Y-11387052D01*
X10314524Y-11396576D01*
X10295476Y-11396576D01*
X10276429Y-11387052D01*
X10266905Y-11377528D01*
X10257381Y-11358481D01*
X10247857Y-11320386D01*
X10247857Y-11272767D01*
X10257381Y-11234671D01*
X10266905Y-11215624D01*
X10276429Y-11206100D01*
X10295476Y-11196576D01*
X10447857Y-11377528D02*
X10457381Y-11387052D01*
X10447857Y-11396576D01*
X10438333Y-11387052D01*
X10447857Y-11377528D01*
X10447857Y-11396576D01*
X10647857Y-11396576D02*
X10533571Y-11396576D01*
X10590714Y-11396576D02*
X10590714Y-11196576D01*
X10571667Y-11225148D01*
X10552619Y-11244195D01*
X10533571Y-11253719D01*
X10724048Y-11215624D02*
X10733571Y-11206100D01*
X10752619Y-11196576D01*
X10800238Y-11196576D01*
X10819286Y-11206100D01*
X10828810Y-11215624D01*
X10838333Y-11234671D01*
X10838333Y-11253719D01*
X10828810Y-11282290D01*
X10714524Y-11396576D01*
X10838333Y-11396576D01*
X11009762Y-11196576D02*
X10971667Y-11196576D01*
X10952619Y-11206100D01*
X10943095Y-11215624D01*
X10924048Y-11244195D01*
X10914524Y-11282290D01*
X10914524Y-11358481D01*
X10924048Y-11377528D01*
X10933571Y-11387052D01*
X10952619Y-11396576D01*
X10990714Y-11396576D01*
X11009762Y-11387052D01*
X11019286Y-11377528D01*
X11028810Y-11358481D01*
X11028810Y-11310862D01*
X11019286Y-11291814D01*
X11009762Y-11282290D01*
X10990714Y-11272767D01*
X10952619Y-11272767D01*
X10933571Y-11282290D01*
X10924048Y-11291814D01*
X10914524Y-11310862D01*
X11152619Y-11196576D02*
X11171667Y-11196576D01*
X11190714Y-11206100D01*
X11200238Y-11215624D01*
X11209762Y-11234671D01*
X11219286Y-11272767D01*
X11219286Y-11320386D01*
X11209762Y-11358481D01*
X11200238Y-11377528D01*
X11190714Y-11387052D01*
X11171667Y-11396576D01*
X11152619Y-11396576D01*
X11133571Y-11387052D01*
X11124048Y-11377528D01*
X11114524Y-11358481D01*
X11105000Y-11320386D01*
X11105000Y-11272767D01*
X11114524Y-11234671D01*
X11124048Y-11215624D01*
X11133571Y-11206100D01*
X11152619Y-11196576D01*
X11295476Y-11196576D02*
X11295476Y-11234671D01*
X11371667Y-11196576D02*
X11371667Y-11234671D01*
X11666905Y-11472767D02*
X11657381Y-11463243D01*
X11638333Y-11434671D01*
X11628809Y-11415624D01*
X11619286Y-11387052D01*
X11609762Y-11339433D01*
X11609762Y-11301338D01*
X11619286Y-11253719D01*
X11628809Y-11225148D01*
X11638333Y-11206100D01*
X11657381Y-11177529D01*
X11666905Y-11168005D01*
X11828809Y-11263243D02*
X11828809Y-11396576D01*
X11781190Y-11187052D02*
X11733571Y-11329909D01*
X11857381Y-11329909D01*
X12085952Y-11396576D02*
X12085952Y-11196576D01*
X12171667Y-11396576D02*
X12171667Y-11291814D01*
X12162143Y-11272767D01*
X12143095Y-11263243D01*
X12114524Y-11263243D01*
X12095476Y-11272767D01*
X12085952Y-11282290D01*
X12295476Y-11396576D02*
X12276428Y-11387052D01*
X12266905Y-11377528D01*
X12257381Y-11358481D01*
X12257381Y-11301338D01*
X12266905Y-11282290D01*
X12276428Y-11272767D01*
X12295476Y-11263243D01*
X12324048Y-11263243D01*
X12343095Y-11272767D01*
X12352619Y-11282290D01*
X12362143Y-11301338D01*
X12362143Y-11358481D01*
X12352619Y-11377528D01*
X12343095Y-11387052D01*
X12324048Y-11396576D01*
X12295476Y-11396576D01*
X12476428Y-11396576D02*
X12457381Y-11387052D01*
X12447857Y-11368005D01*
X12447857Y-11196576D01*
X12628809Y-11387052D02*
X12609762Y-11396576D01*
X12571667Y-11396576D01*
X12552619Y-11387052D01*
X12543095Y-11368005D01*
X12543095Y-11291814D01*
X12552619Y-11272767D01*
X12571667Y-11263243D01*
X12609762Y-11263243D01*
X12628809Y-11272767D01*
X12638333Y-11291814D01*
X12638333Y-11310862D01*
X12543095Y-11329909D01*
X12714524Y-11387052D02*
X12733571Y-11396576D01*
X12771667Y-11396576D01*
X12790714Y-11387052D01*
X12800238Y-11368005D01*
X12800238Y-11358481D01*
X12790714Y-11339433D01*
X12771667Y-11329909D01*
X12743095Y-11329909D01*
X12724048Y-11320386D01*
X12714524Y-11301338D01*
X12714524Y-11291814D01*
X12724048Y-11272767D01*
X12743095Y-11263243D01*
X12771667Y-11263243D01*
X12790714Y-11272767D01*
X12866905Y-11472767D02*
X12876428Y-11463243D01*
X12895476Y-11434671D01*
X12905000Y-11415624D01*
X12914524Y-11387052D01*
X12924048Y-11339433D01*
X12924048Y-11301338D01*
X12914524Y-11253719D01*
X12905000Y-11225148D01*
X12895476Y-11206100D01*
X12876428Y-11177529D01*
X12866905Y-11168005D01*
M02*
